%TF.GenerationSoftware,KiCad,Pcbnew,(6.0.4)*%
%TF.CreationDate,2022-07-07T12:58:29-04:00*%
%TF.ProjectId,Uranium,5572616e-6975-46d2-9e6b-696361645f70,rev?*%
%TF.SameCoordinates,Original*%
%TF.FileFunction,Soldermask,Top*%
%TF.FilePolarity,Negative*%
%FSLAX46Y46*%
G04 Gerber Fmt 4.6, Leading zero omitted, Abs format (unit mm)*
G04 Created by KiCad (PCBNEW (6.0.4)) date 2022-07-07 12:58:29*
%MOMM*%
%LPD*%
G01*
G04 APERTURE LIST*
G04 Aperture macros list*
%AMRoundRect*
0 Rectangle with rounded corners*
0 $1 Rounding radius*
0 $2 $3 $4 $5 $6 $7 $8 $9 X,Y pos of 4 corners*
0 Add a 4 corners polygon primitive as box body*
4,1,4,$2,$3,$4,$5,$6,$7,$8,$9,$2,$3,0*
0 Add four circle primitives for the rounded corners*
1,1,$1+$1,$2,$3*
1,1,$1+$1,$4,$5*
1,1,$1+$1,$6,$7*
1,1,$1+$1,$8,$9*
0 Add four rect primitives between the rounded corners*
20,1,$1+$1,$2,$3,$4,$5,0*
20,1,$1+$1,$4,$5,$6,$7,0*
20,1,$1+$1,$6,$7,$8,$9,0*
20,1,$1+$1,$8,$9,$2,$3,0*%
G04 Aperture macros list end*
%ADD10C,3.000000*%
%ADD11C,1.701800*%
%ADD12C,3.987800*%
%ADD13R,0.800000X0.700000*%
%ADD14C,3.048000*%
%ADD15RoundRect,0.237500X0.237500X-0.287500X0.237500X0.287500X-0.237500X0.287500X-0.237500X-0.287500X0*%
%ADD16RoundRect,0.237500X-0.237500X0.287500X-0.237500X-0.287500X0.237500X-0.287500X0.237500X0.287500X0*%
%ADD17C,3.600000*%
%ADD18C,5.500000*%
%ADD19RoundRect,0.237500X0.287500X0.237500X-0.287500X0.237500X-0.287500X-0.237500X0.287500X-0.237500X0*%
%ADD20R,1.700000X1.700000*%
%ADD21O,1.700000X1.700000*%
%ADD22R,1.100000X1.100000*%
%ADD23R,2.000000X2.000000*%
%ADD24C,2.000000*%
%ADD25R,3.200000X2.000000*%
%ADD26R,1.900000X0.800000*%
%ADD27C,0.650000*%
%ADD28R,0.600000X1.450000*%
%ADD29R,0.300000X1.450000*%
%ADD30O,1.000000X1.600000*%
%ADD31O,1.000000X2.100000*%
%ADD32RoundRect,0.237500X-0.287500X-0.237500X0.287500X-0.237500X0.287500X0.237500X-0.287500X0.237500X0*%
%ADD33R,1.560000X0.650000*%
%ADD34RoundRect,0.250001X0.462499X0.624999X-0.462499X0.624999X-0.462499X-0.624999X0.462499X-0.624999X0*%
G04 APERTURE END LIST*
D10*
%TO.C,K62*%
X469265000Y-209232500D03*
D11*
X471805000Y-214312500D03*
D10*
X462915000Y-211772500D03*
D12*
X466725000Y-214312500D03*
D11*
X461645000Y-214312500D03*
%TD*%
D12*
%TO.C,K83*%
X326231250Y-252412500D03*
D10*
X328771250Y-247332500D03*
X322421250Y-249872500D03*
D11*
X321151250Y-252412500D03*
X331311250Y-252412500D03*
%TD*%
D13*
%TO.C,D155*%
X391375000Y-220815625D03*
X391375000Y-219715625D03*
X389675000Y-220815625D03*
X389675000Y-219715625D03*
%TD*%
D11*
%TO.C,K42*%
X428942500Y-195262500D03*
D10*
X420052500Y-192722500D03*
X426402500Y-190182500D03*
D11*
X418782500Y-195262500D03*
D12*
X423862500Y-195262500D03*
%TD*%
D11*
%TO.C,K81*%
X271145000Y-252412500D03*
D12*
X276225000Y-252412500D03*
D11*
X281305000Y-252412500D03*
D10*
X278765000Y-247332500D03*
X272415000Y-249872500D03*
%TD*%
D13*
%TO.C,D118*%
X358037500Y-182715625D03*
X358037500Y-181615625D03*
X356337500Y-182715625D03*
X356337500Y-181615625D03*
%TD*%
%TO.C,D124*%
X472337500Y-182715625D03*
X472337500Y-181615625D03*
X470637500Y-182715625D03*
X470637500Y-181615625D03*
%TD*%
D12*
%TO.C,K2*%
X338137500Y-147637500D03*
D11*
X333057500Y-147637500D03*
D10*
X340677500Y-142557500D03*
X334327500Y-145097500D03*
D11*
X343217500Y-147637500D03*
%TD*%
D13*
%TO.C,D107*%
X510437500Y-154140625D03*
X510437500Y-153040625D03*
X508737500Y-154140625D03*
X508737500Y-153040625D03*
%TD*%
D11*
%TO.C,K71*%
X386080000Y-233362500D03*
D10*
X383540000Y-228282500D03*
D12*
X381000000Y-233362500D03*
D10*
X377190000Y-230822500D03*
D11*
X375920000Y-233362500D03*
%TD*%
D13*
%TO.C,D134*%
X329462500Y-201765625D03*
X329462500Y-200665625D03*
X327762500Y-201765625D03*
X327762500Y-200665625D03*
%TD*%
D11*
%TO.C,K31*%
X552132500Y-176212500D03*
X562292500Y-176212500D03*
D12*
X545274500Y-184467500D03*
D10*
X553402500Y-173672500D03*
X559752500Y-171132500D03*
D14*
X569150500Y-169227500D03*
X545274500Y-169227500D03*
D12*
X569150500Y-184467500D03*
X557212500Y-176212500D03*
%TD*%
D10*
%TO.C,K3*%
X353377500Y-145097500D03*
D11*
X352107500Y-147637500D03*
D12*
X357187500Y-147637500D03*
D10*
X359727500Y-142557500D03*
D11*
X362267500Y-147637500D03*
%TD*%
D13*
%TO.C,D126*%
X510437500Y-182715625D03*
X510437500Y-181615625D03*
X508737500Y-182715625D03*
X508737500Y-181615625D03*
%TD*%
D11*
%TO.C,K12*%
X542607500Y-147637500D03*
D10*
X543877500Y-145097500D03*
D12*
X547687500Y-147637500D03*
D10*
X550227500Y-142557500D03*
D11*
X552767500Y-147637500D03*
%TD*%
D15*
%TO.C,C8*%
X354303437Y-131875000D03*
X354303437Y-130125000D03*
%TD*%
D13*
%TO.C,D158*%
X448525000Y-220815625D03*
X448525000Y-219715625D03*
X446825000Y-220815625D03*
X446825000Y-219715625D03*
%TD*%
%TO.C,D152*%
X334225000Y-220815625D03*
X334225000Y-219715625D03*
X332525000Y-220815625D03*
X332525000Y-219715625D03*
%TD*%
%TO.C,D167*%
X362800000Y-239865625D03*
X362800000Y-238765625D03*
X361100000Y-239865625D03*
X361100000Y-238765625D03*
%TD*%
D10*
%TO.C,K45*%
X483552500Y-190182500D03*
X477202500Y-192722500D03*
D12*
X481012500Y-195262500D03*
D11*
X475932500Y-195262500D03*
X486092500Y-195262500D03*
%TD*%
D13*
%TO.C,D112*%
X610450000Y-154140625D03*
X610450000Y-153040625D03*
X608750000Y-154140625D03*
X608750000Y-153040625D03*
%TD*%
%TO.C,D184*%
X517581250Y-258915625D03*
X517581250Y-257815625D03*
X515881250Y-258915625D03*
X515881250Y-257815625D03*
%TD*%
D10*
%TO.C,K41*%
X401002500Y-192722500D03*
D11*
X399732500Y-195262500D03*
D12*
X404812500Y-195262500D03*
D10*
X407352500Y-190182500D03*
D11*
X409892500Y-195262500D03*
%TD*%
D13*
%TO.C,D113*%
X629500000Y-154140625D03*
X629500000Y-153040625D03*
X627800000Y-154140625D03*
X627800000Y-153040625D03*
%TD*%
D15*
%TO.C,R10*%
X318250000Y-134375000D03*
X318250000Y-132625000D03*
%TD*%
D12*
%TO.C,K28*%
X490537500Y-176212500D03*
D11*
X485457500Y-176212500D03*
X495617500Y-176212500D03*
D10*
X493077500Y-171132500D03*
X486727500Y-173672500D03*
%TD*%
D12*
%TO.C,K44*%
X461962500Y-195262500D03*
D10*
X464502500Y-190182500D03*
X458152500Y-192722500D03*
D11*
X467042500Y-195262500D03*
X456882500Y-195262500D03*
%TD*%
%TO.C,K4*%
X371157500Y-147637500D03*
D12*
X376237500Y-147637500D03*
D10*
X372427500Y-145097500D03*
D11*
X381317500Y-147637500D03*
D10*
X378777500Y-142557500D03*
%TD*%
D16*
%TO.C,R12*%
X355803437Y-130125000D03*
X355803437Y-131875000D03*
%TD*%
D13*
%TO.C,D122*%
X434237500Y-182715625D03*
X434237500Y-181615625D03*
X432537500Y-182715625D03*
X432537500Y-181615625D03*
%TD*%
D17*
%TO.C,H3*%
X259556250Y-269081250D03*
D18*
X259556250Y-269081250D03*
%TD*%
D11*
%TO.C,K74*%
X433070000Y-233362500D03*
D12*
X438150000Y-233362500D03*
D10*
X440690000Y-228282500D03*
X434340000Y-230822500D03*
D11*
X443230000Y-233362500D03*
%TD*%
D10*
%TO.C,K9*%
X483552500Y-142557500D03*
D11*
X475932500Y-147637500D03*
D12*
X481012500Y-147637500D03*
D11*
X486092500Y-147637500D03*
D10*
X477202500Y-145097500D03*
%TD*%
D13*
%TO.C,D136*%
X367562500Y-201765625D03*
X367562500Y-200665625D03*
X365862500Y-201765625D03*
X365862500Y-200665625D03*
%TD*%
%TO.C,D169*%
X400900000Y-239865625D03*
X400900000Y-238765625D03*
X399200000Y-239865625D03*
X399200000Y-238765625D03*
%TD*%
%TO.C,D130*%
X610450000Y-182715625D03*
X610450000Y-181615625D03*
X608750000Y-182715625D03*
X608750000Y-181615625D03*
%TD*%
D19*
%TO.C,C4*%
X269178125Y-131697500D03*
X267428125Y-131697500D03*
%TD*%
D13*
%TO.C,D174*%
X496150000Y-239865625D03*
X496150000Y-238765625D03*
X494450000Y-239865625D03*
X494450000Y-238765625D03*
%TD*%
%TO.C,D162*%
X524725000Y-220815625D03*
X524725000Y-219715625D03*
X523025000Y-220815625D03*
X523025000Y-219715625D03*
%TD*%
%TO.C,D100*%
X358037500Y-154140625D03*
X358037500Y-153040625D03*
X356337500Y-154140625D03*
X356337500Y-153040625D03*
%TD*%
D17*
%TO.C,H4*%
X645318750Y-269081250D03*
D18*
X645318750Y-269081250D03*
%TD*%
D11*
%TO.C,K90*%
X585470000Y-252412500D03*
D10*
X593090000Y-247332500D03*
D12*
X590550000Y-252412500D03*
D11*
X595630000Y-252412500D03*
D10*
X586740000Y-249872500D03*
%TD*%
D20*
%TO.C,J1*%
X627459375Y-209550000D03*
D21*
X629999375Y-209550000D03*
X627459375Y-212090000D03*
X629999375Y-212090000D03*
X627459375Y-214630000D03*
X629999375Y-214630000D03*
X627459375Y-217170000D03*
X629999375Y-217170000D03*
X627459375Y-219710000D03*
X629999375Y-219710000D03*
%TD*%
D13*
%TO.C,D99*%
X338987500Y-154140625D03*
X338987500Y-153040625D03*
X337287500Y-154140625D03*
X337287500Y-153040625D03*
%TD*%
D11*
%TO.C,K36*%
X299720000Y-195262500D03*
X309880000Y-195262500D03*
D12*
X304800000Y-195262500D03*
D10*
X300990000Y-192722500D03*
X307340000Y-190182500D03*
%TD*%
D13*
%TO.C,D140*%
X443762500Y-201765625D03*
X443762500Y-200665625D03*
X442062500Y-201765625D03*
X442062500Y-200665625D03*
%TD*%
%TO.C,D171*%
X439000000Y-239865625D03*
X439000000Y-238765625D03*
X437300000Y-239865625D03*
X437300000Y-238765625D03*
%TD*%
%TO.C,D138*%
X405662500Y-201765625D03*
X405662500Y-200665625D03*
X403962500Y-201765625D03*
X403962500Y-200665625D03*
%TD*%
D10*
%TO.C,K49*%
X564515000Y-190182500D03*
D11*
X567055000Y-195262500D03*
X556895000Y-195262500D03*
D10*
X558165000Y-192722500D03*
D12*
X561975000Y-195262500D03*
%TD*%
%TO.C,K6*%
X423862500Y-147637500D03*
D10*
X420052500Y-145097500D03*
D11*
X428942500Y-147637500D03*
D10*
X426402500Y-142557500D03*
D11*
X418782500Y-147637500D03*
%TD*%
D22*
%TO.C,D3*%
X339472812Y-132900000D03*
X339472812Y-130100000D03*
%TD*%
D13*
%TO.C,D168*%
X381850000Y-239865625D03*
X381850000Y-238765625D03*
X380150000Y-239865625D03*
X380150000Y-238765625D03*
%TD*%
%TO.C,D183*%
X493768750Y-258915625D03*
X493768750Y-257815625D03*
X492068750Y-258915625D03*
X492068750Y-257815625D03*
%TD*%
D10*
%TO.C,K19*%
X315277500Y-173672500D03*
X321627500Y-171132500D03*
D11*
X324167500Y-176212500D03*
X314007500Y-176212500D03*
D12*
X319087500Y-176212500D03*
%TD*%
%TO.C,K87*%
X516731250Y-252412500D03*
D11*
X521811250Y-252412500D03*
D10*
X512921250Y-249872500D03*
D11*
X511651250Y-252412500D03*
D10*
X519271250Y-247332500D03*
%TD*%
D13*
%TO.C,D157*%
X429475000Y-220815625D03*
X429475000Y-219715625D03*
X427775000Y-220815625D03*
X427775000Y-219715625D03*
%TD*%
D10*
%TO.C,K80*%
X612140000Y-228282500D03*
D11*
X604520000Y-233362500D03*
D10*
X605790000Y-230822500D03*
D12*
X609600000Y-233362500D03*
D11*
X614680000Y-233362500D03*
%TD*%
D10*
%TO.C,K47*%
X515302500Y-192722500D03*
X521652500Y-190182500D03*
D11*
X524192500Y-195262500D03*
X514032500Y-195262500D03*
D12*
X519112500Y-195262500D03*
%TD*%
D10*
%TO.C,K14*%
X593090000Y-142557500D03*
D11*
X595630000Y-147637500D03*
D12*
X590550000Y-147637500D03*
D10*
X586740000Y-145097500D03*
D11*
X585470000Y-147637500D03*
%TD*%
D13*
%TO.C,D170*%
X419950000Y-239865625D03*
X419950000Y-238765625D03*
X418250000Y-239865625D03*
X418250000Y-238765625D03*
%TD*%
D10*
%TO.C,K66*%
X551021250Y-211772500D03*
X557371250Y-209232500D03*
D11*
X559911250Y-214312500D03*
D14*
X542893250Y-207327500D03*
D12*
X566769250Y-222567500D03*
D14*
X566769250Y-207327500D03*
D11*
X549751250Y-214312500D03*
D12*
X542893250Y-222567500D03*
X554831250Y-214312500D03*
%TD*%
D13*
%TO.C,D98*%
X300887500Y-154140625D03*
X300887500Y-153040625D03*
X299187500Y-154140625D03*
X299187500Y-153040625D03*
%TD*%
%TO.C,D137*%
X386612500Y-201765625D03*
X386612500Y-200665625D03*
X384912500Y-201765625D03*
X384912500Y-200665625D03*
%TD*%
%TO.C,D117*%
X338987500Y-182715625D03*
X338987500Y-181615625D03*
X337287500Y-182715625D03*
X337287500Y-181615625D03*
%TD*%
D10*
%TO.C,K91*%
X605790000Y-249872500D03*
D11*
X614680000Y-252412500D03*
D12*
X609600000Y-252412500D03*
D11*
X604520000Y-252412500D03*
D10*
X612140000Y-247332500D03*
%TD*%
D18*
%TO.C,H2*%
X645318750Y-130968750D03*
D17*
X645318750Y-130968750D03*
%TD*%
D13*
%TO.C,D182*%
X422331250Y-258915625D03*
X422331250Y-257815625D03*
X420631250Y-258915625D03*
X420631250Y-257815625D03*
%TD*%
D12*
%TO.C,K56*%
X352425000Y-214312500D03*
D10*
X354965000Y-209232500D03*
D11*
X357505000Y-214312500D03*
X347345000Y-214312500D03*
D10*
X348615000Y-211772500D03*
%TD*%
%TO.C,K78*%
X516890000Y-228282500D03*
X510540000Y-230822500D03*
D11*
X509270000Y-233362500D03*
X519430000Y-233362500D03*
D12*
X514350000Y-233362500D03*
%TD*%
D13*
%TO.C,D166*%
X343750000Y-239865625D03*
X343750000Y-238765625D03*
X342050000Y-239865625D03*
X342050000Y-238765625D03*
%TD*%
%TO.C,D120*%
X396137500Y-182715625D03*
X396137500Y-181615625D03*
X394437500Y-182715625D03*
X394437500Y-181615625D03*
%TD*%
%TO.C,D106*%
X481862500Y-154140625D03*
X481862500Y-153040625D03*
X480162500Y-154140625D03*
X480162500Y-153040625D03*
%TD*%
D10*
%TO.C,K54*%
X309721250Y-209232500D03*
D11*
X312261250Y-214312500D03*
X302101250Y-214312500D03*
D12*
X307181250Y-214312500D03*
D10*
X303371250Y-211772500D03*
%TD*%
D13*
%TO.C,D114*%
X277075000Y-182715625D03*
X277075000Y-181615625D03*
X275375000Y-182715625D03*
X275375000Y-181615625D03*
%TD*%
D11*
%TO.C,K67*%
X281305000Y-233362500D03*
X271145000Y-233362500D03*
D10*
X272415000Y-230822500D03*
D12*
X276225000Y-233362500D03*
D10*
X278765000Y-228282500D03*
%TD*%
D13*
%TO.C,D173*%
X477100000Y-239865625D03*
X477100000Y-238765625D03*
X475400000Y-239865625D03*
X475400000Y-238765625D03*
%TD*%
%TO.C,D145*%
X539012500Y-201765625D03*
X539012500Y-200665625D03*
X537312500Y-201765625D03*
X537312500Y-200665625D03*
%TD*%
D11*
%TO.C,K15*%
X604520000Y-147637500D03*
D10*
X605790000Y-145097500D03*
D11*
X614680000Y-147637500D03*
D10*
X612140000Y-142557500D03*
D12*
X609600000Y-147637500D03*
%TD*%
D13*
%TO.C,D161*%
X505675000Y-220815625D03*
X505675000Y-219715625D03*
X503975000Y-220815625D03*
X503975000Y-219715625D03*
%TD*%
%TO.C,D131*%
X629500000Y-182715625D03*
X629500000Y-181615625D03*
X627800000Y-182715625D03*
X627800000Y-181615625D03*
%TD*%
D17*
%TO.C,H1*%
X259556250Y-130968750D03*
D18*
X259556250Y-130968750D03*
%TD*%
D10*
%TO.C,K38*%
X343852500Y-192722500D03*
X350202500Y-190182500D03*
D11*
X352742500Y-195262500D03*
X342582500Y-195262500D03*
D12*
X347662500Y-195262500D03*
%TD*%
D13*
%TO.C,D165*%
X312793750Y-239865625D03*
X312793750Y-238765625D03*
X311093750Y-239865625D03*
X311093750Y-238765625D03*
%TD*%
%TO.C,D175*%
X515200000Y-239865625D03*
X515200000Y-238765625D03*
X513500000Y-239865625D03*
X513500000Y-238765625D03*
%TD*%
%TO.C,D149*%
X629500000Y-201765625D03*
X629500000Y-200665625D03*
X627800000Y-201765625D03*
X627800000Y-200665625D03*
%TD*%
%TO.C,D148*%
X610450000Y-201765625D03*
X610450000Y-200665625D03*
X608750000Y-201765625D03*
X608750000Y-200665625D03*
%TD*%
%TO.C,D142*%
X481862500Y-201765625D03*
X481862500Y-200665625D03*
X480162500Y-201765625D03*
X480162500Y-200665625D03*
%TD*%
D12*
%TO.C,K69*%
X342900000Y-233362500D03*
D10*
X345440000Y-228282500D03*
D11*
X337820000Y-233362500D03*
X347980000Y-233362500D03*
D10*
X339090000Y-230822500D03*
%TD*%
%TO.C,K51*%
X605790000Y-192722500D03*
X612140000Y-190182500D03*
D11*
X614680000Y-195262500D03*
D12*
X609600000Y-195262500D03*
D11*
X604520000Y-195262500D03*
%TD*%
D13*
%TO.C,D111*%
X591400000Y-154140625D03*
X591400000Y-153040625D03*
X589700000Y-154140625D03*
X589700000Y-153040625D03*
%TD*%
D15*
%TO.C,R9*%
X319750000Y-134375000D03*
X319750000Y-132625000D03*
%TD*%
D13*
%TO.C,D110*%
X567587500Y-154140625D03*
X567587500Y-153040625D03*
X565887500Y-154140625D03*
X565887500Y-153040625D03*
%TD*%
D10*
%TO.C,K29*%
X505777500Y-173672500D03*
D11*
X514667500Y-176212500D03*
X504507500Y-176212500D03*
D10*
X512127500Y-171132500D03*
D12*
X509587500Y-176212500D03*
%TD*%
D13*
%TO.C,D163*%
X555681250Y-220815625D03*
X555681250Y-219715625D03*
X553981250Y-220815625D03*
X553981250Y-219715625D03*
%TD*%
D12*
%TO.C,K23*%
X395287500Y-176212500D03*
D11*
X390207500Y-176212500D03*
D10*
X397827500Y-171132500D03*
D11*
X400367500Y-176212500D03*
D10*
X391477500Y-173672500D03*
%TD*%
D13*
%TO.C,D188*%
X610450000Y-258915625D03*
X610450000Y-257815625D03*
X608750000Y-258915625D03*
X608750000Y-257815625D03*
%TD*%
D10*
%TO.C,K55*%
X335915000Y-209232500D03*
X329565000Y-211772500D03*
D11*
X338455000Y-214312500D03*
X328295000Y-214312500D03*
D12*
X333375000Y-214312500D03*
%TD*%
D10*
%TO.C,K70*%
X364490000Y-228282500D03*
D11*
X367030000Y-233362500D03*
X356870000Y-233362500D03*
D12*
X361950000Y-233362500D03*
D10*
X358140000Y-230822500D03*
%TD*%
D13*
%TO.C,D151*%
X308031250Y-220815625D03*
X308031250Y-219715625D03*
X306331250Y-220815625D03*
X306331250Y-219715625D03*
%TD*%
D10*
%TO.C,K68*%
X314483750Y-228282500D03*
X308133750Y-230822500D03*
D12*
X300005750Y-241617500D03*
X311943750Y-233362500D03*
D11*
X306863750Y-233362500D03*
X317023750Y-233362500D03*
D14*
X300005750Y-226377500D03*
X323881750Y-226377500D03*
D12*
X323881750Y-241617500D03*
%TD*%
%TO.C,K8*%
X461962500Y-147637500D03*
D10*
X464502500Y-142557500D03*
D11*
X467042500Y-147637500D03*
D10*
X458152500Y-145097500D03*
D11*
X456882500Y-147637500D03*
%TD*%
D13*
%TO.C,D144*%
X519962500Y-201765625D03*
X519962500Y-200665625D03*
X518262500Y-201765625D03*
X518262500Y-200665625D03*
%TD*%
%TO.C,D125*%
X491387500Y-182715625D03*
X491387500Y-181615625D03*
X489687500Y-182715625D03*
X489687500Y-181615625D03*
%TD*%
D12*
%TO.C,K58*%
X390525000Y-214312500D03*
D10*
X386715000Y-211772500D03*
D11*
X385445000Y-214312500D03*
X395605000Y-214312500D03*
D10*
X393065000Y-209232500D03*
%TD*%
D23*
%TO.C,SW2*%
X283725000Y-150137500D03*
D24*
X283725000Y-145137500D03*
X283725000Y-147637500D03*
D25*
X276225000Y-142037500D03*
X276225000Y-153237500D03*
D24*
X269225000Y-145137500D03*
X269225000Y-150137500D03*
%TD*%
D13*
%TO.C,D108*%
X529487500Y-154140625D03*
X529487500Y-153040625D03*
X527787500Y-154140625D03*
X527787500Y-153040625D03*
%TD*%
%TO.C,D115*%
X300887500Y-182715625D03*
X300887500Y-181615625D03*
X299187500Y-182715625D03*
X299187500Y-181615625D03*
%TD*%
%TO.C,D189*%
X629500000Y-258915625D03*
X629500000Y-257815625D03*
X627800000Y-258915625D03*
X627800000Y-257815625D03*
%TD*%
D10*
%TO.C,K40*%
X381952500Y-192722500D03*
X388302500Y-190182500D03*
D11*
X380682500Y-195262500D03*
D12*
X385762500Y-195262500D03*
D11*
X390842500Y-195262500D03*
%TD*%
D26*
%TO.C,U4*%
X350803437Y-130950000D03*
X350803437Y-129050000D03*
X347803437Y-130000000D03*
%TD*%
D10*
%TO.C,K20*%
X334327500Y-173672500D03*
D11*
X333057500Y-176212500D03*
D10*
X340677500Y-171132500D03*
D11*
X343217500Y-176212500D03*
D12*
X338137500Y-176212500D03*
%TD*%
D13*
%TO.C,D97*%
X277075000Y-156521875D03*
X277075000Y-155421875D03*
X275375000Y-156521875D03*
X275375000Y-155421875D03*
%TD*%
%TO.C,D172*%
X458050000Y-239865625D03*
X458050000Y-238765625D03*
X456350000Y-239865625D03*
X456350000Y-238765625D03*
%TD*%
D10*
%TO.C,K1*%
X296227500Y-145097500D03*
X302577500Y-142557500D03*
D11*
X305117500Y-147637500D03*
D12*
X300037500Y-147637500D03*
D11*
X294957500Y-147637500D03*
%TD*%
D10*
%TO.C,K59*%
X412115000Y-209232500D03*
D11*
X414655000Y-214312500D03*
D12*
X409575000Y-214312500D03*
D10*
X405765000Y-211772500D03*
D11*
X404495000Y-214312500D03*
%TD*%
D10*
%TO.C,K16*%
X631190000Y-142557500D03*
D11*
X633730000Y-147637500D03*
D12*
X628650000Y-147637500D03*
D11*
X623570000Y-147637500D03*
D10*
X624840000Y-145097500D03*
%TD*%
%TO.C,K21*%
X353377500Y-173672500D03*
D11*
X352107500Y-176212500D03*
D12*
X357187500Y-176212500D03*
D10*
X359727500Y-171132500D03*
D11*
X362267500Y-176212500D03*
%TD*%
D27*
%TO.C,J2*%
X316310000Y-128100000D03*
X322090000Y-128100000D03*
D28*
X322450000Y-129545000D03*
X321650000Y-129545000D03*
D29*
X320450000Y-129545000D03*
X319450000Y-129545000D03*
X318950000Y-129545000D03*
X317950000Y-129545000D03*
D28*
X316750000Y-129545000D03*
X315950000Y-129545000D03*
X315950000Y-129545000D03*
X316750000Y-129545000D03*
D29*
X317450000Y-129545000D03*
X318450000Y-129545000D03*
X319950000Y-129545000D03*
X320950000Y-129545000D03*
D28*
X321650000Y-129545000D03*
X322450000Y-129545000D03*
D30*
X314880000Y-124450000D03*
D31*
X314880000Y-128630000D03*
X323520000Y-128630000D03*
D30*
X323520000Y-124450000D03*
%TD*%
D11*
%TO.C,K25*%
X438467500Y-176212500D03*
D10*
X435927500Y-171132500D03*
D11*
X428307500Y-176212500D03*
D12*
X433387500Y-176212500D03*
D10*
X429577500Y-173672500D03*
%TD*%
D13*
%TO.C,D143*%
X500912500Y-201765625D03*
X500912500Y-200665625D03*
X499212500Y-201765625D03*
X499212500Y-200665625D03*
%TD*%
%TO.C,D186*%
X565206250Y-258915625D03*
X565206250Y-257815625D03*
X563506250Y-258915625D03*
X563506250Y-257815625D03*
%TD*%
D11*
%TO.C,K10*%
X514667500Y-147637500D03*
D12*
X509587500Y-147637500D03*
D10*
X512127500Y-142557500D03*
D11*
X504507500Y-147637500D03*
D10*
X505777500Y-145097500D03*
%TD*%
%TO.C,K61*%
X450215000Y-209232500D03*
D11*
X452755000Y-214312500D03*
X442595000Y-214312500D03*
D10*
X443865000Y-211772500D03*
D12*
X447675000Y-214312500D03*
%TD*%
D11*
%TO.C,K48*%
X543242500Y-195262500D03*
X533082500Y-195262500D03*
D10*
X540702500Y-190182500D03*
D12*
X538162500Y-195262500D03*
D10*
X534352500Y-192722500D03*
%TD*%
D13*
%TO.C,D185*%
X541393750Y-258915625D03*
X541393750Y-257815625D03*
X539693750Y-258915625D03*
X539693750Y-257815625D03*
%TD*%
D10*
%TO.C,K7*%
X439102500Y-145097500D03*
D11*
X437832500Y-147637500D03*
D10*
X445452500Y-142557500D03*
D11*
X447992500Y-147637500D03*
D12*
X442912500Y-147637500D03*
%TD*%
D13*
%TO.C,D159*%
X467575000Y-220815625D03*
X467575000Y-219715625D03*
X465875000Y-220815625D03*
X465875000Y-219715625D03*
%TD*%
%TO.C,D128*%
X558062500Y-182715625D03*
X558062500Y-181615625D03*
X556362500Y-182715625D03*
X556362500Y-181615625D03*
%TD*%
D11*
%TO.C,K50*%
X585470000Y-195262500D03*
D12*
X590550000Y-195262500D03*
D10*
X593090000Y-190182500D03*
X586740000Y-192722500D03*
D11*
X595630000Y-195262500D03*
%TD*%
D15*
%TO.C,C7*%
X342803437Y-131875000D03*
X342803437Y-130125000D03*
%TD*%
D13*
%TO.C,D156*%
X410425000Y-220815625D03*
X410425000Y-219715625D03*
X408725000Y-220815625D03*
X408725000Y-219715625D03*
%TD*%
D10*
%TO.C,K33*%
X612140000Y-171132500D03*
X605790000Y-173672500D03*
D12*
X609600000Y-176212500D03*
D11*
X604520000Y-176212500D03*
X614680000Y-176212500D03*
%TD*%
D12*
%TO.C,K27*%
X471487500Y-176212500D03*
D10*
X474027500Y-171132500D03*
D11*
X476567500Y-176212500D03*
D10*
X467677500Y-173672500D03*
D11*
X466407500Y-176212500D03*
%TD*%
D10*
%TO.C,K77*%
X491490000Y-230822500D03*
X497840000Y-228282500D03*
D12*
X495300000Y-233362500D03*
D11*
X490220000Y-233362500D03*
X500380000Y-233362500D03*
%TD*%
D13*
%TO.C,D133*%
X305650000Y-201765625D03*
X305650000Y-200665625D03*
X303950000Y-201765625D03*
X303950000Y-200665625D03*
%TD*%
%TO.C,D105*%
X462812500Y-154140625D03*
X462812500Y-153040625D03*
X461112500Y-154140625D03*
X461112500Y-153040625D03*
%TD*%
%TO.C,D153*%
X353275000Y-220815625D03*
X353275000Y-219715625D03*
X351575000Y-220815625D03*
X351575000Y-219715625D03*
%TD*%
%TO.C,D109*%
X548537500Y-154140625D03*
X548537500Y-153040625D03*
X546837500Y-154140625D03*
X546837500Y-153040625D03*
%TD*%
D11*
%TO.C,K26*%
X447357500Y-176212500D03*
D10*
X448627500Y-173672500D03*
D12*
X452437500Y-176212500D03*
D11*
X457517500Y-176212500D03*
D10*
X454977500Y-171132500D03*
%TD*%
D13*
%TO.C,D121*%
X415187500Y-182715625D03*
X415187500Y-181615625D03*
X413487500Y-182715625D03*
X413487500Y-181615625D03*
%TD*%
D12*
%TO.C,K84*%
X350043750Y-252412500D03*
D10*
X346233750Y-249872500D03*
D11*
X344963750Y-252412500D03*
D10*
X352583750Y-247332500D03*
D11*
X355123750Y-252412500D03*
%TD*%
D22*
%TO.C,D2*%
X347903437Y-127000000D03*
X350703437Y-127000000D03*
%TD*%
D32*
%TO.C,R13*%
X329125000Y-125500000D03*
X330875000Y-125500000D03*
%TD*%
D13*
%TO.C,D176*%
X550918750Y-239865625D03*
X550918750Y-238765625D03*
X549218750Y-239865625D03*
X549218750Y-238765625D03*
%TD*%
%TO.C,D154*%
X372325000Y-220815625D03*
X372325000Y-219715625D03*
X370625000Y-220815625D03*
X370625000Y-219715625D03*
%TD*%
D10*
%TO.C,K75*%
X453390000Y-230822500D03*
D12*
X457200000Y-233362500D03*
D11*
X462280000Y-233362500D03*
X452120000Y-233362500D03*
D10*
X459740000Y-228282500D03*
%TD*%
%TO.C,K18*%
X296227500Y-173672500D03*
D11*
X294957500Y-176212500D03*
X305117500Y-176212500D03*
D10*
X302577500Y-171132500D03*
D12*
X300037500Y-176212500D03*
%TD*%
%TO.C,K32*%
X590550000Y-176212500D03*
D11*
X595630000Y-176212500D03*
D10*
X586740000Y-173672500D03*
D11*
X585470000Y-176212500D03*
D10*
X593090000Y-171132500D03*
%TD*%
D11*
%TO.C,K52*%
X623570000Y-195262500D03*
X633730000Y-195262500D03*
D10*
X624840000Y-192722500D03*
D12*
X628650000Y-195262500D03*
D10*
X631190000Y-190182500D03*
%TD*%
D13*
%TO.C,D141*%
X462812500Y-201765625D03*
X462812500Y-200665625D03*
X461112500Y-201765625D03*
X461112500Y-200665625D03*
%TD*%
%TO.C,D160*%
X486625000Y-220815625D03*
X486625000Y-219715625D03*
X484925000Y-220815625D03*
X484925000Y-219715625D03*
%TD*%
%TO.C,D123*%
X453287500Y-182715625D03*
X453287500Y-181615625D03*
X451587500Y-182715625D03*
X451587500Y-181615625D03*
%TD*%
D11*
%TO.C,K65*%
X518795000Y-214312500D03*
X528955000Y-214312500D03*
D10*
X526415000Y-209232500D03*
D12*
X523875000Y-214312500D03*
D10*
X520065000Y-211772500D03*
%TD*%
D33*
%TO.C,U3*%
X326650000Y-129050000D03*
X326650000Y-130000000D03*
X326650000Y-130950000D03*
X329350000Y-130950000D03*
X329350000Y-130000000D03*
X329350000Y-129050000D03*
%TD*%
D13*
%TO.C,D103*%
X424712500Y-154140625D03*
X424712500Y-153040625D03*
X423012500Y-154140625D03*
X423012500Y-153040625D03*
%TD*%
D10*
%TO.C,K43*%
X445452500Y-190182500D03*
D11*
X447992500Y-195262500D03*
D12*
X442912500Y-195262500D03*
D11*
X437832500Y-195262500D03*
D10*
X439102500Y-192722500D03*
%TD*%
D13*
%TO.C,D177*%
X610450000Y-239865625D03*
X610450000Y-238765625D03*
X608750000Y-239865625D03*
X608750000Y-238765625D03*
%TD*%
D19*
%TO.C,C3*%
X328975000Y-132600000D03*
X327225000Y-132600000D03*
%TD*%
D11*
%TO.C,K30*%
X523557500Y-176212500D03*
D12*
X528637500Y-176212500D03*
D10*
X531177500Y-171132500D03*
D11*
X533717500Y-176212500D03*
D10*
X524827500Y-173672500D03*
%TD*%
D13*
%TO.C,D132*%
X277075000Y-201765625D03*
X277075000Y-200665625D03*
X275375000Y-201765625D03*
X275375000Y-200665625D03*
%TD*%
%TO.C,D104*%
X443762500Y-154140625D03*
X443762500Y-153040625D03*
X442062500Y-154140625D03*
X442062500Y-153040625D03*
%TD*%
D11*
%TO.C,K73*%
X414020000Y-233362500D03*
D12*
X419100000Y-233362500D03*
D11*
X424180000Y-233362500D03*
D10*
X415290000Y-230822500D03*
X421640000Y-228282500D03*
%TD*%
D34*
%TO.C,F1*%
X335790937Y-130000000D03*
X332815937Y-130000000D03*
%TD*%
D16*
%TO.C,R11*%
X344303437Y-130125000D03*
X344303437Y-131875000D03*
%TD*%
D13*
%TO.C,D102*%
X396137500Y-154140625D03*
X396137500Y-153040625D03*
X394437500Y-154140625D03*
X394437500Y-153040625D03*
%TD*%
D14*
%TO.C,K85*%
X471519250Y-245427500D03*
X371443250Y-245427500D03*
D11*
X416401250Y-252412500D03*
X426561250Y-252412500D03*
D10*
X424021250Y-247332500D03*
D12*
X371443250Y-260667500D03*
D10*
X417671250Y-249872500D03*
D12*
X421481250Y-252412500D03*
X471519250Y-260667500D03*
%TD*%
D13*
%TO.C,D178*%
X277075000Y-258915625D03*
X277075000Y-257815625D03*
X275375000Y-258915625D03*
X275375000Y-257815625D03*
%TD*%
D11*
%TO.C,K63*%
X490855000Y-214312500D03*
D10*
X488315000Y-209232500D03*
X481965000Y-211772500D03*
D11*
X480695000Y-214312500D03*
D12*
X485775000Y-214312500D03*
%TD*%
%TO.C,K11*%
X528637500Y-147637500D03*
D10*
X531177500Y-142557500D03*
X524827500Y-145097500D03*
D11*
X523557500Y-147637500D03*
X533717500Y-147637500D03*
%TD*%
%TO.C,K24*%
X409257500Y-176212500D03*
D12*
X414337500Y-176212500D03*
D10*
X410527500Y-173672500D03*
X416877500Y-171132500D03*
D11*
X419417500Y-176212500D03*
%TD*%
D13*
%TO.C,D179*%
X303268750Y-258915625D03*
X303268750Y-257815625D03*
X301568750Y-258915625D03*
X301568750Y-257815625D03*
%TD*%
D11*
%TO.C,K17*%
X281305000Y-176212500D03*
X271145000Y-176212500D03*
D10*
X272415000Y-173672500D03*
D12*
X276225000Y-176212500D03*
D10*
X278765000Y-171132500D03*
%TD*%
D13*
%TO.C,D139*%
X424712500Y-201765625D03*
X424712500Y-200665625D03*
X423012500Y-201765625D03*
X423012500Y-200665625D03*
%TD*%
D10*
%TO.C,K34*%
X624840000Y-173672500D03*
X631190000Y-171132500D03*
D12*
X628650000Y-176212500D03*
D11*
X623570000Y-176212500D03*
X633730000Y-176212500D03*
%TD*%
D10*
%TO.C,K37*%
X324802500Y-192722500D03*
D11*
X323532500Y-195262500D03*
D12*
X328612500Y-195262500D03*
D10*
X331152500Y-190182500D03*
D11*
X333692500Y-195262500D03*
%TD*%
D13*
%TO.C,D164*%
X277075000Y-239865625D03*
X277075000Y-238765625D03*
X275375000Y-239865625D03*
X275375000Y-238765625D03*
%TD*%
%TO.C,D147*%
X591400000Y-201765625D03*
X591400000Y-200665625D03*
X589700000Y-201765625D03*
X589700000Y-200665625D03*
%TD*%
D19*
%TO.C,C13*%
X330875000Y-127000000D03*
X329125000Y-127000000D03*
%TD*%
D13*
%TO.C,D129*%
X591400000Y-182715625D03*
X591400000Y-181615625D03*
X589700000Y-182715625D03*
X589700000Y-181615625D03*
%TD*%
D12*
%TO.C,K57*%
X371475000Y-214312500D03*
D11*
X366395000Y-214312500D03*
X376555000Y-214312500D03*
D10*
X374015000Y-209232500D03*
X367665000Y-211772500D03*
%TD*%
D11*
%TO.C,K46*%
X505142500Y-195262500D03*
D12*
X500062500Y-195262500D03*
D11*
X494982500Y-195262500D03*
D10*
X496252500Y-192722500D03*
X502602500Y-190182500D03*
%TD*%
D13*
%TO.C,D101*%
X377087500Y-154140625D03*
X377087500Y-153040625D03*
X375387500Y-154140625D03*
X375387500Y-153040625D03*
%TD*%
%TO.C,D119*%
X377087500Y-182715625D03*
X377087500Y-181615625D03*
X375387500Y-182715625D03*
X375387500Y-181615625D03*
%TD*%
%TO.C,D181*%
X350893750Y-258915625D03*
X350893750Y-257815625D03*
X349193750Y-258915625D03*
X349193750Y-257815625D03*
%TD*%
D10*
%TO.C,K39*%
X369252500Y-190182500D03*
X362902500Y-192722500D03*
D12*
X366712500Y-195262500D03*
D11*
X371792500Y-195262500D03*
X361632500Y-195262500D03*
%TD*%
D10*
%TO.C,K64*%
X501015000Y-211772500D03*
D12*
X504825000Y-214312500D03*
D11*
X499745000Y-214312500D03*
X509905000Y-214312500D03*
D10*
X507365000Y-209232500D03*
%TD*%
D12*
%TO.C,K72*%
X400050000Y-233362500D03*
D11*
X394970000Y-233362500D03*
D10*
X402590000Y-228282500D03*
D11*
X405130000Y-233362500D03*
D10*
X396240000Y-230822500D03*
%TD*%
D13*
%TO.C,D150*%
X277075000Y-220815625D03*
X277075000Y-219715625D03*
X275375000Y-220815625D03*
X275375000Y-219715625D03*
%TD*%
D10*
%TO.C,K86*%
X489108750Y-249872500D03*
D11*
X497998750Y-252412500D03*
D10*
X495458750Y-247332500D03*
D12*
X492918750Y-252412500D03*
D11*
X487838750Y-252412500D03*
%TD*%
D10*
%TO.C,K13*%
X562927500Y-145097500D03*
D11*
X571817500Y-147637500D03*
D12*
X566737500Y-147637500D03*
D10*
X569277500Y-142557500D03*
D11*
X561657500Y-147637500D03*
%TD*%
D10*
%TO.C,K53*%
X272415000Y-211772500D03*
X278765000Y-209232500D03*
D11*
X281305000Y-214312500D03*
X271145000Y-214312500D03*
D12*
X276225000Y-214312500D03*
%TD*%
D13*
%TO.C,D116*%
X319937500Y-182715625D03*
X319937500Y-181615625D03*
X318237500Y-182715625D03*
X318237500Y-181615625D03*
%TD*%
D10*
%TO.C,K22*%
X372427500Y-173672500D03*
D12*
X376237500Y-176212500D03*
D11*
X381317500Y-176212500D03*
X371157500Y-176212500D03*
D10*
X378777500Y-171132500D03*
%TD*%
D12*
%TO.C,K79*%
X562006750Y-241617500D03*
X550068750Y-233362500D03*
D11*
X544988750Y-233362500D03*
D14*
X538130750Y-226377500D03*
D12*
X538130750Y-241617500D03*
D11*
X555148750Y-233362500D03*
D10*
X552608750Y-228282500D03*
D14*
X562006750Y-226377500D03*
D10*
X546258750Y-230822500D03*
%TD*%
D11*
%TO.C,K92*%
X633730000Y-252412500D03*
X623570000Y-252412500D03*
D10*
X624840000Y-249872500D03*
D12*
X628650000Y-252412500D03*
D10*
X631190000Y-247332500D03*
%TD*%
D32*
%TO.C,R2*%
X267425000Y-130250000D03*
X269175000Y-130250000D03*
%TD*%
D11*
%TO.C,K35*%
X281305000Y-195262500D03*
D12*
X276225000Y-195262500D03*
D11*
X271145000Y-195262500D03*
D10*
X272415000Y-192722500D03*
X278765000Y-190182500D03*
%TD*%
%TO.C,K88*%
X536733750Y-249872500D03*
X543083750Y-247332500D03*
D12*
X540543750Y-252412500D03*
D11*
X545623750Y-252412500D03*
X535463750Y-252412500D03*
%TD*%
D13*
%TO.C,D187*%
X591400000Y-258915625D03*
X591400000Y-257815625D03*
X589700000Y-258915625D03*
X589700000Y-257815625D03*
%TD*%
%TO.C,D146*%
X562825000Y-201765625D03*
X562825000Y-200665625D03*
X561125000Y-201765625D03*
X561125000Y-200665625D03*
%TD*%
D12*
%TO.C,K5*%
X395287500Y-147637500D03*
D11*
X390207500Y-147637500D03*
D10*
X397827500Y-142557500D03*
X391477500Y-145097500D03*
D11*
X400367500Y-147637500D03*
%TD*%
%TO.C,K82*%
X297338750Y-252412500D03*
D10*
X304958750Y-247332500D03*
X298608750Y-249872500D03*
D12*
X302418750Y-252412500D03*
D11*
X307498750Y-252412500D03*
%TD*%
D13*
%TO.C,D180*%
X327081250Y-258915625D03*
X327081250Y-257815625D03*
X325381250Y-258915625D03*
X325381250Y-257815625D03*
%TD*%
%TO.C,D135*%
X348512500Y-201765625D03*
X348512500Y-200665625D03*
X346812500Y-201765625D03*
X346812500Y-200665625D03*
%TD*%
D11*
%TO.C,K89*%
X569436250Y-252412500D03*
D10*
X560546250Y-249872500D03*
D11*
X559276250Y-252412500D03*
D12*
X564356250Y-252412500D03*
D10*
X566896250Y-247332500D03*
%TD*%
D12*
%TO.C,K60*%
X428625000Y-214312500D03*
D11*
X433705000Y-214312500D03*
X423545000Y-214312500D03*
D10*
X424815000Y-211772500D03*
X431165000Y-209232500D03*
%TD*%
D13*
%TO.C,D127*%
X529487500Y-182715625D03*
X529487500Y-181615625D03*
X527787500Y-182715625D03*
X527787500Y-181615625D03*
%TD*%
D12*
%TO.C,K76*%
X476250000Y-233362500D03*
D10*
X472440000Y-230822500D03*
D11*
X471170000Y-233362500D03*
X481330000Y-233362500D03*
D10*
X478790000Y-228282500D03*
%TD*%
M02*
