%TF.GenerationSoftware,KiCad,Pcbnew,(6.0.4)*%
%TF.CreationDate,2022-07-07T12:58:29-04:00*%
%TF.ProjectId,Uranium,5572616e-6975-46d2-9e6b-696361645f70,rev?*%
%TF.SameCoordinates,Original*%
%TF.FileFunction,Legend,Bot*%
%TF.FilePolarity,Positive*%
%FSLAX46Y46*%
G04 Gerber Fmt 4.6, Leading zero omitted, Abs format (unit mm)*
G04 Created by KiCad (PCBNEW (6.0.4)) date 2022-07-07 12:58:29*
%MOMM*%
%LPD*%
G01*
G04 APERTURE LIST*
G04 Aperture macros list*
%AMRoundRect*
0 Rectangle with rounded corners*
0 $1 Rounding radius*
0 $2 $3 $4 $5 $6 $7 $8 $9 X,Y pos of 4 corners*
0 Add a 4 corners polygon primitive as box body*
4,1,4,$2,$3,$4,$5,$6,$7,$8,$9,$2,$3,0*
0 Add four circle primitives for the rounded corners*
1,1,$1+$1,$2,$3*
1,1,$1+$1,$4,$5*
1,1,$1+$1,$6,$7*
1,1,$1+$1,$8,$9*
0 Add four rect primitives between the rounded corners*
20,1,$1+$1,$2,$3,$4,$5,0*
20,1,$1+$1,$4,$5,$6,$7,0*
20,1,$1+$1,$6,$7,$8,$9,0*
20,1,$1+$1,$8,$9,$2,$3,0*%
%AMRotRect*
0 Rectangle, with rotation*
0 The origin of the aperture is its center*
0 $1 length*
0 $2 width*
0 $3 Rotation angle, in degrees counterclockwise*
0 Add horizontal line*
21,1,$1,$2,0,0,$3*%
G04 Aperture macros list end*
%ADD10C,0.150000*%
%ADD11C,0.120000*%
%ADD12C,0.200000*%
%ADD13C,3.000000*%
%ADD14C,1.701800*%
%ADD15C,3.987800*%
%ADD16R,2.550000X2.500000*%
%ADD17C,3.048000*%
%ADD18C,3.600000*%
%ADD19C,5.500000*%
%ADD20R,1.700000X1.700000*%
%ADD21O,1.700000X1.700000*%
%ADD22R,2.000000X2.000000*%
%ADD23C,2.000000*%
%ADD24R,3.200000X2.000000*%
%ADD25C,0.650000*%
%ADD26O,1.000000X1.600000*%
%ADD27O,1.000000X2.100000*%
%ADD28R,1.100000X1.100000*%
%ADD29RoundRect,0.237500X-0.237500X0.287500X-0.237500X-0.287500X0.237500X-0.287500X0.237500X0.287500X0*%
%ADD30RoundRect,0.237500X-0.287500X-0.237500X0.287500X-0.237500X0.287500X0.237500X-0.287500X0.237500X0*%
%ADD31RoundRect,0.237500X0.237500X-0.287500X0.237500X0.287500X-0.237500X0.287500X-0.237500X-0.287500X0*%
%ADD32R,1.500000X1.000000*%
%ADD33RoundRect,0.237500X0.287500X0.237500X-0.287500X0.237500X-0.287500X-0.237500X0.287500X-0.237500X0*%
%ADD34RoundRect,0.100000X0.637500X0.100000X-0.637500X0.100000X-0.637500X-0.100000X0.637500X-0.100000X0*%
%ADD35R,1.000000X1.500000*%
%ADD36RotRect,0.200000X0.850000X45.000000*%
%ADD37RotRect,0.200000X0.850000X135.000000*%
%ADD38RotRect,5.550000X5.550000X135.000000*%
%ADD39R,1.800000X1.100000*%
%ADD40RoundRect,0.062500X-0.375000X-0.062500X0.375000X-0.062500X0.375000X0.062500X-0.375000X0.062500X0*%
%ADD41RoundRect,0.062500X-0.062500X-0.375000X0.062500X-0.375000X0.062500X0.375000X-0.062500X0.375000X0*%
%ADD42R,5.600000X5.600000*%
%ADD43R,0.450000X1.500000*%
G04 APERTURE END LIST*
D10*
%TO.C,K62*%
X462915000Y-207327500D02*
X471805000Y-207327500D01*
X460756000Y-213677500D02*
X460375000Y-213677500D01*
X464260838Y-213677500D02*
X462534000Y-213677500D01*
X471805000Y-211772500D02*
X466725000Y-211772500D01*
X460375000Y-213296500D02*
X460375000Y-213677500D01*
X471805000Y-207327500D02*
X471805000Y-207708500D01*
X471805000Y-210756500D02*
X471805000Y-211772500D01*
X460375000Y-209867500D02*
X460375000Y-210248500D01*
X462915000Y-207327500D02*
G75*
G03*
X460375000Y-209867500I1J-2540001D01*
G01*
X466725000Y-211772499D02*
G75*
G03*
X464260838Y-213696460I0J-2540000D01*
G01*
%TO.C,K83*%
X331311250Y-245427500D02*
X331311250Y-245808500D01*
X322421250Y-245427500D02*
X331311250Y-245427500D01*
X320262250Y-251777500D02*
X319881250Y-251777500D01*
X319881250Y-251396500D02*
X319881250Y-251777500D01*
X319881250Y-247967500D02*
X319881250Y-248348500D01*
X323767088Y-251777500D02*
X322040250Y-251777500D01*
X331311250Y-249872500D02*
X326231250Y-249872500D01*
X331311250Y-248856500D02*
X331311250Y-249872500D01*
X322421250Y-245427500D02*
G75*
G03*
X319881250Y-247967500I1J-2540001D01*
G01*
X326231250Y-249872499D02*
G75*
G03*
X323767088Y-251796460I0J-2540000D01*
G01*
%TO.C,K42*%
X428942500Y-192722500D02*
X423862500Y-192722500D01*
X417893500Y-194627500D02*
X417512500Y-194627500D01*
X417512500Y-190817500D02*
X417512500Y-191198500D01*
X428942500Y-188277500D02*
X428942500Y-188658500D01*
X428942500Y-191706500D02*
X428942500Y-192722500D01*
X421398338Y-194627500D02*
X419671500Y-194627500D01*
X420052500Y-188277500D02*
X428942500Y-188277500D01*
X417512500Y-194246500D02*
X417512500Y-194627500D01*
X423862500Y-192722499D02*
G75*
G03*
X421398338Y-194646460I0J-2540000D01*
G01*
X420052500Y-188277500D02*
G75*
G03*
X417512500Y-190817500I1J-2540001D01*
G01*
%TO.C,K81*%
X281305000Y-248856500D02*
X281305000Y-249872500D01*
X281305000Y-245427500D02*
X281305000Y-245808500D01*
X270256000Y-251777500D02*
X269875000Y-251777500D01*
X269875000Y-247967500D02*
X269875000Y-248348500D01*
X272415000Y-245427500D02*
X281305000Y-245427500D01*
X281305000Y-249872500D02*
X276225000Y-249872500D01*
X273760838Y-251777500D02*
X272034000Y-251777500D01*
X269875000Y-251396500D02*
X269875000Y-251777500D01*
X276225000Y-249872499D02*
G75*
G03*
X273760838Y-251796460I0J-2540000D01*
G01*
X272415000Y-245427500D02*
G75*
G03*
X269875000Y-247967500I1J-2540001D01*
G01*
%TO.C,K2*%
X331787500Y-146621500D02*
X331787500Y-147002500D01*
X334327500Y-140652500D02*
X343217500Y-140652500D01*
X335673338Y-147002500D02*
X333946500Y-147002500D01*
X343217500Y-140652500D02*
X343217500Y-141033500D01*
X331787500Y-143192500D02*
X331787500Y-143573500D01*
X343217500Y-144081500D02*
X343217500Y-145097500D01*
X332168500Y-147002500D02*
X331787500Y-147002500D01*
X343217500Y-145097500D02*
X338137500Y-145097500D01*
X334327500Y-140652500D02*
G75*
G03*
X331787500Y-143192500I1J-2540001D01*
G01*
X338137500Y-145097499D02*
G75*
G03*
X335673338Y-147021460I0J-2540000D01*
G01*
%TO.C,K71*%
X374650000Y-232346500D02*
X374650000Y-232727500D01*
X375031000Y-232727500D02*
X374650000Y-232727500D01*
X386080000Y-230822500D02*
X381000000Y-230822500D01*
X378535838Y-232727500D02*
X376809000Y-232727500D01*
X386080000Y-229806500D02*
X386080000Y-230822500D01*
X377190000Y-226377500D02*
X386080000Y-226377500D01*
X374650000Y-228917500D02*
X374650000Y-229298500D01*
X386080000Y-226377500D02*
X386080000Y-226758500D01*
X381000000Y-230822499D02*
G75*
G03*
X378535838Y-232746460I0J-2540000D01*
G01*
X377190000Y-226377500D02*
G75*
G03*
X374650000Y-228917500I1J-2540001D01*
G01*
%TO.C,K31*%
X550862500Y-171767500D02*
X550862500Y-172148500D01*
X562292500Y-172656500D02*
X562292500Y-173672500D01*
X550862500Y-175196500D02*
X550862500Y-175577500D01*
X562292500Y-173672500D02*
X557212500Y-173672500D01*
X562292500Y-169227500D02*
X562292500Y-169608500D01*
X553402500Y-169227500D02*
X562292500Y-169227500D01*
X554748338Y-175577500D02*
X553021500Y-175577500D01*
X551243500Y-175577500D02*
X550862500Y-175577500D01*
X553402500Y-169227500D02*
G75*
G03*
X550862500Y-171767500I1J-2540001D01*
G01*
X557212500Y-173672499D02*
G75*
G03*
X554748338Y-175596460I0J-2540000D01*
G01*
%TO.C,K3*%
X362267500Y-140652500D02*
X362267500Y-141033500D01*
X350837500Y-146621500D02*
X350837500Y-147002500D01*
X362267500Y-144081500D02*
X362267500Y-145097500D01*
X362267500Y-145097500D02*
X357187500Y-145097500D01*
X353377500Y-140652500D02*
X362267500Y-140652500D01*
X354723338Y-147002500D02*
X352996500Y-147002500D01*
X351218500Y-147002500D02*
X350837500Y-147002500D01*
X350837500Y-143192500D02*
X350837500Y-143573500D01*
X357187500Y-145097499D02*
G75*
G03*
X354723338Y-147021460I0J-2540000D01*
G01*
X353377500Y-140652500D02*
G75*
G03*
X350837500Y-143192500I1J-2540001D01*
G01*
%TO.C,K12*%
X541337500Y-143192500D02*
X541337500Y-143573500D01*
X541337500Y-146621500D02*
X541337500Y-147002500D01*
X552767500Y-140652500D02*
X552767500Y-141033500D01*
X552767500Y-144081500D02*
X552767500Y-145097500D01*
X543877500Y-140652500D02*
X552767500Y-140652500D01*
X545223338Y-147002500D02*
X543496500Y-147002500D01*
X552767500Y-145097500D02*
X547687500Y-145097500D01*
X541718500Y-147002500D02*
X541337500Y-147002500D01*
X547687500Y-145097499D02*
G75*
G03*
X545223338Y-147021460I0J-2540000D01*
G01*
X543877500Y-140652500D02*
G75*
G03*
X541337500Y-143192500I1J-2540001D01*
G01*
%TO.C,K45*%
X474662500Y-194246500D02*
X474662500Y-194627500D01*
X486092500Y-191706500D02*
X486092500Y-192722500D01*
X478548338Y-194627500D02*
X476821500Y-194627500D01*
X486092500Y-192722500D02*
X481012500Y-192722500D01*
X486092500Y-188277500D02*
X486092500Y-188658500D01*
X475043500Y-194627500D02*
X474662500Y-194627500D01*
X474662500Y-190817500D02*
X474662500Y-191198500D01*
X477202500Y-188277500D02*
X486092500Y-188277500D01*
X477202500Y-188277500D02*
G75*
G03*
X474662500Y-190817500I1J-2540001D01*
G01*
X481012500Y-192722499D02*
G75*
G03*
X478548338Y-194646460I0J-2540000D01*
G01*
%TO.C,K41*%
X398843500Y-194627500D02*
X398462500Y-194627500D01*
X398462500Y-190817500D02*
X398462500Y-191198500D01*
X409892500Y-191706500D02*
X409892500Y-192722500D01*
X409892500Y-188277500D02*
X409892500Y-188658500D01*
X409892500Y-192722500D02*
X404812500Y-192722500D01*
X401002500Y-188277500D02*
X409892500Y-188277500D01*
X398462500Y-194246500D02*
X398462500Y-194627500D01*
X402348338Y-194627500D02*
X400621500Y-194627500D01*
X404812500Y-192722499D02*
G75*
G03*
X402348338Y-194646460I0J-2540000D01*
G01*
X401002500Y-188277500D02*
G75*
G03*
X398462500Y-190817500I1J-2540001D01*
G01*
%TO.C,K28*%
X486727500Y-169227500D02*
X495617500Y-169227500D01*
X495617500Y-172656500D02*
X495617500Y-173672500D01*
X488073338Y-175577500D02*
X486346500Y-175577500D01*
X495617500Y-169227500D02*
X495617500Y-169608500D01*
X484187500Y-171767500D02*
X484187500Y-172148500D01*
X484187500Y-175196500D02*
X484187500Y-175577500D01*
X484568500Y-175577500D02*
X484187500Y-175577500D01*
X495617500Y-173672500D02*
X490537500Y-173672500D01*
X486727500Y-169227500D02*
G75*
G03*
X484187500Y-171767500I1J-2540001D01*
G01*
X490537500Y-173672499D02*
G75*
G03*
X488073338Y-175596460I0J-2540000D01*
G01*
%TO.C,K44*%
X467042500Y-191706500D02*
X467042500Y-192722500D01*
X467042500Y-192722500D02*
X461962500Y-192722500D01*
X467042500Y-188277500D02*
X467042500Y-188658500D01*
X458152500Y-188277500D02*
X467042500Y-188277500D01*
X455612500Y-190817500D02*
X455612500Y-191198500D01*
X455993500Y-194627500D02*
X455612500Y-194627500D01*
X459498338Y-194627500D02*
X457771500Y-194627500D01*
X455612500Y-194246500D02*
X455612500Y-194627500D01*
X458152500Y-188277500D02*
G75*
G03*
X455612500Y-190817500I1J-2540001D01*
G01*
X461962500Y-192722499D02*
G75*
G03*
X459498338Y-194646460I0J-2540000D01*
G01*
%TO.C,K4*%
X372427500Y-140652500D02*
X381317500Y-140652500D01*
X381317500Y-140652500D02*
X381317500Y-141033500D01*
X369887500Y-143192500D02*
X369887500Y-143573500D01*
X373773338Y-147002500D02*
X372046500Y-147002500D01*
X381317500Y-145097500D02*
X376237500Y-145097500D01*
X370268500Y-147002500D02*
X369887500Y-147002500D01*
X369887500Y-146621500D02*
X369887500Y-147002500D01*
X381317500Y-144081500D02*
X381317500Y-145097500D01*
X376237500Y-145097499D02*
G75*
G03*
X373773338Y-147021460I0J-2540000D01*
G01*
X372427500Y-140652500D02*
G75*
G03*
X369887500Y-143192500I1J-2540001D01*
G01*
%TO.C,K74*%
X435685838Y-232727500D02*
X433959000Y-232727500D01*
X431800000Y-228917500D02*
X431800000Y-229298500D01*
X443230000Y-226377500D02*
X443230000Y-226758500D01*
X443230000Y-229806500D02*
X443230000Y-230822500D01*
X431800000Y-232346500D02*
X431800000Y-232727500D01*
X432181000Y-232727500D02*
X431800000Y-232727500D01*
X443230000Y-230822500D02*
X438150000Y-230822500D01*
X434340000Y-226377500D02*
X443230000Y-226377500D01*
X434340000Y-226377500D02*
G75*
G03*
X431800000Y-228917500I1J-2540001D01*
G01*
X438150000Y-230822499D02*
G75*
G03*
X435685838Y-232746460I0J-2540000D01*
G01*
%TO.C,K9*%
X486092500Y-145097500D02*
X481012500Y-145097500D01*
X486092500Y-140652500D02*
X486092500Y-141033500D01*
X477202500Y-140652500D02*
X486092500Y-140652500D01*
X475043500Y-147002500D02*
X474662500Y-147002500D01*
X486092500Y-144081500D02*
X486092500Y-145097500D01*
X478548338Y-147002500D02*
X476821500Y-147002500D01*
X474662500Y-146621500D02*
X474662500Y-147002500D01*
X474662500Y-143192500D02*
X474662500Y-143573500D01*
X481012500Y-145097499D02*
G75*
G03*
X478548338Y-147021460I0J-2540000D01*
G01*
X477202500Y-140652500D02*
G75*
G03*
X474662500Y-143192500I1J-2540001D01*
G01*
%TO.C,K90*%
X595630000Y-249872500D02*
X590550000Y-249872500D01*
X588085838Y-251777500D02*
X586359000Y-251777500D01*
X586740000Y-245427500D02*
X595630000Y-245427500D01*
X595630000Y-248856500D02*
X595630000Y-249872500D01*
X584200000Y-247967500D02*
X584200000Y-248348500D01*
X595630000Y-245427500D02*
X595630000Y-245808500D01*
X584200000Y-251396500D02*
X584200000Y-251777500D01*
X584581000Y-251777500D02*
X584200000Y-251777500D01*
X586740000Y-245427500D02*
G75*
G03*
X584200000Y-247967500I1J-2540001D01*
G01*
X590550000Y-249872499D02*
G75*
G03*
X588085838Y-251796460I0J-2540000D01*
G01*
%TO.C,K36*%
X302335838Y-194627500D02*
X300609000Y-194627500D01*
X300990000Y-188277500D02*
X309880000Y-188277500D01*
X309880000Y-188277500D02*
X309880000Y-188658500D01*
X298450000Y-190817500D02*
X298450000Y-191198500D01*
X298450000Y-194246500D02*
X298450000Y-194627500D01*
X309880000Y-192722500D02*
X304800000Y-192722500D01*
X298831000Y-194627500D02*
X298450000Y-194627500D01*
X309880000Y-191706500D02*
X309880000Y-192722500D01*
X304800000Y-192722499D02*
G75*
G03*
X302335838Y-194646460I0J-2540000D01*
G01*
X300990000Y-188277500D02*
G75*
G03*
X298450000Y-190817500I1J-2540001D01*
G01*
%TO.C,K49*%
X567055000Y-192722500D02*
X561975000Y-192722500D01*
X556006000Y-194627500D02*
X555625000Y-194627500D01*
X567055000Y-188277500D02*
X567055000Y-188658500D01*
X559510838Y-194627500D02*
X557784000Y-194627500D01*
X555625000Y-190817500D02*
X555625000Y-191198500D01*
X567055000Y-191706500D02*
X567055000Y-192722500D01*
X555625000Y-194246500D02*
X555625000Y-194627500D01*
X558165000Y-188277500D02*
X567055000Y-188277500D01*
X561975000Y-192722499D02*
G75*
G03*
X559510838Y-194646460I0J-2540000D01*
G01*
X558165000Y-188277500D02*
G75*
G03*
X555625000Y-190817500I1J-2540001D01*
G01*
%TO.C,K6*%
X417512500Y-146621500D02*
X417512500Y-147002500D01*
X420052500Y-140652500D02*
X428942500Y-140652500D01*
X417893500Y-147002500D02*
X417512500Y-147002500D01*
X428942500Y-140652500D02*
X428942500Y-141033500D01*
X428942500Y-144081500D02*
X428942500Y-145097500D01*
X417512500Y-143192500D02*
X417512500Y-143573500D01*
X428942500Y-145097500D02*
X423862500Y-145097500D01*
X421398338Y-147002500D02*
X419671500Y-147002500D01*
X423862500Y-145097499D02*
G75*
G03*
X421398338Y-147021460I0J-2540000D01*
G01*
X420052500Y-140652500D02*
G75*
G03*
X417512500Y-143192500I1J-2540001D01*
G01*
%TO.C,K19*%
X324167500Y-172656500D02*
X324167500Y-173672500D01*
X324167500Y-173672500D02*
X319087500Y-173672500D01*
X312737500Y-175196500D02*
X312737500Y-175577500D01*
X316623338Y-175577500D02*
X314896500Y-175577500D01*
X315277500Y-169227500D02*
X324167500Y-169227500D01*
X324167500Y-169227500D02*
X324167500Y-169608500D01*
X313118500Y-175577500D02*
X312737500Y-175577500D01*
X312737500Y-171767500D02*
X312737500Y-172148500D01*
X319087500Y-173672499D02*
G75*
G03*
X316623338Y-175596460I0J-2540000D01*
G01*
X315277500Y-169227500D02*
G75*
G03*
X312737500Y-171767500I1J-2540001D01*
G01*
%TO.C,K87*%
X521811250Y-245427500D02*
X521811250Y-245808500D01*
X510381250Y-251396500D02*
X510381250Y-251777500D01*
X510762250Y-251777500D02*
X510381250Y-251777500D01*
X521811250Y-248856500D02*
X521811250Y-249872500D01*
X510381250Y-247967500D02*
X510381250Y-248348500D01*
X514267088Y-251777500D02*
X512540250Y-251777500D01*
X512921250Y-245427500D02*
X521811250Y-245427500D01*
X521811250Y-249872500D02*
X516731250Y-249872500D01*
X516731250Y-249872499D02*
G75*
G03*
X514267088Y-251796460I0J-2540000D01*
G01*
X512921250Y-245427500D02*
G75*
G03*
X510381250Y-247967500I1J-2540001D01*
G01*
%TO.C,K80*%
X614680000Y-230822500D02*
X609600000Y-230822500D01*
X614680000Y-226377500D02*
X614680000Y-226758500D01*
X607135838Y-232727500D02*
X605409000Y-232727500D01*
X603250000Y-232346500D02*
X603250000Y-232727500D01*
X603250000Y-228917500D02*
X603250000Y-229298500D01*
X605790000Y-226377500D02*
X614680000Y-226377500D01*
X603631000Y-232727500D02*
X603250000Y-232727500D01*
X614680000Y-229806500D02*
X614680000Y-230822500D01*
X609600000Y-230822499D02*
G75*
G03*
X607135838Y-232746460I0J-2540000D01*
G01*
X605790000Y-226377500D02*
G75*
G03*
X603250000Y-228917500I1J-2540001D01*
G01*
%TO.C,K47*%
X515302500Y-188277500D02*
X524192500Y-188277500D01*
X516648338Y-194627500D02*
X514921500Y-194627500D01*
X513143500Y-194627500D02*
X512762500Y-194627500D01*
X512762500Y-194246500D02*
X512762500Y-194627500D01*
X524192500Y-192722500D02*
X519112500Y-192722500D01*
X524192500Y-188277500D02*
X524192500Y-188658500D01*
X512762500Y-190817500D02*
X512762500Y-191198500D01*
X524192500Y-191706500D02*
X524192500Y-192722500D01*
X519112500Y-192722499D02*
G75*
G03*
X516648338Y-194646460I0J-2540000D01*
G01*
X515302500Y-188277500D02*
G75*
G03*
X512762500Y-190817500I1J-2540001D01*
G01*
%TO.C,K14*%
X588085838Y-147002500D02*
X586359000Y-147002500D01*
X584200000Y-143192500D02*
X584200000Y-143573500D01*
X584200000Y-146621500D02*
X584200000Y-147002500D01*
X586740000Y-140652500D02*
X595630000Y-140652500D01*
X595630000Y-145097500D02*
X590550000Y-145097500D01*
X584581000Y-147002500D02*
X584200000Y-147002500D01*
X595630000Y-144081500D02*
X595630000Y-145097500D01*
X595630000Y-140652500D02*
X595630000Y-141033500D01*
X590550000Y-145097499D02*
G75*
G03*
X588085838Y-147021460I0J-2540000D01*
G01*
X586740000Y-140652500D02*
G75*
G03*
X584200000Y-143192500I1J-2540001D01*
G01*
%TO.C,K66*%
X552367088Y-213677500D02*
X550640250Y-213677500D01*
X551021250Y-207327500D02*
X559911250Y-207327500D01*
X548481250Y-213296500D02*
X548481250Y-213677500D01*
X559911250Y-211772500D02*
X554831250Y-211772500D01*
X548481250Y-209867500D02*
X548481250Y-210248500D01*
X548862250Y-213677500D02*
X548481250Y-213677500D01*
X559911250Y-207327500D02*
X559911250Y-207708500D01*
X559911250Y-210756500D02*
X559911250Y-211772500D01*
X554831250Y-211772499D02*
G75*
G03*
X552367088Y-213696460I0J-2540000D01*
G01*
X551021250Y-207327500D02*
G75*
G03*
X548481250Y-209867500I1J-2540001D01*
G01*
%TO.C,K91*%
X607135838Y-251777500D02*
X605409000Y-251777500D01*
X614680000Y-249872500D02*
X609600000Y-249872500D01*
X603631000Y-251777500D02*
X603250000Y-251777500D01*
X603250000Y-251396500D02*
X603250000Y-251777500D01*
X614680000Y-245427500D02*
X614680000Y-245808500D01*
X614680000Y-248856500D02*
X614680000Y-249872500D01*
X605790000Y-245427500D02*
X614680000Y-245427500D01*
X603250000Y-247967500D02*
X603250000Y-248348500D01*
X609600000Y-249872499D02*
G75*
G03*
X607135838Y-251796460I0J-2540000D01*
G01*
X605790000Y-245427500D02*
G75*
G03*
X603250000Y-247967500I1J-2540001D01*
G01*
%TO.C,K56*%
X357505000Y-207327500D02*
X357505000Y-207708500D01*
X348615000Y-207327500D02*
X357505000Y-207327500D01*
X346075000Y-209867500D02*
X346075000Y-210248500D01*
X357505000Y-210756500D02*
X357505000Y-211772500D01*
X346075000Y-213296500D02*
X346075000Y-213677500D01*
X357505000Y-211772500D02*
X352425000Y-211772500D01*
X349960838Y-213677500D02*
X348234000Y-213677500D01*
X346456000Y-213677500D02*
X346075000Y-213677500D01*
X348615000Y-207327500D02*
G75*
G03*
X346075000Y-209867500I1J-2540001D01*
G01*
X352425000Y-211772499D02*
G75*
G03*
X349960838Y-213696460I0J-2540000D01*
G01*
%TO.C,K78*%
X508000000Y-232346500D02*
X508000000Y-232727500D01*
X511885838Y-232727500D02*
X510159000Y-232727500D01*
X519430000Y-229806500D02*
X519430000Y-230822500D01*
X519430000Y-230822500D02*
X514350000Y-230822500D01*
X508000000Y-228917500D02*
X508000000Y-229298500D01*
X508381000Y-232727500D02*
X508000000Y-232727500D01*
X519430000Y-226377500D02*
X519430000Y-226758500D01*
X510540000Y-226377500D02*
X519430000Y-226377500D01*
X510540000Y-226377500D02*
G75*
G03*
X508000000Y-228917500I1J-2540001D01*
G01*
X514350000Y-230822499D02*
G75*
G03*
X511885838Y-232746460I0J-2540000D01*
G01*
%TO.C,K54*%
X312261250Y-210756500D02*
X312261250Y-211772500D01*
X300831250Y-209867500D02*
X300831250Y-210248500D01*
X312261250Y-211772500D02*
X307181250Y-211772500D01*
X301212250Y-213677500D02*
X300831250Y-213677500D01*
X300831250Y-213296500D02*
X300831250Y-213677500D01*
X303371250Y-207327500D02*
X312261250Y-207327500D01*
X304717088Y-213677500D02*
X302990250Y-213677500D01*
X312261250Y-207327500D02*
X312261250Y-207708500D01*
X307181250Y-211772499D02*
G75*
G03*
X304717088Y-213696460I0J-2540000D01*
G01*
X303371250Y-207327500D02*
G75*
G03*
X300831250Y-209867500I1J-2540001D01*
G01*
%TO.C,K67*%
X272415000Y-226377500D02*
X281305000Y-226377500D01*
X281305000Y-229806500D02*
X281305000Y-230822500D01*
X269875000Y-228917500D02*
X269875000Y-229298500D01*
X269875000Y-232346500D02*
X269875000Y-232727500D01*
X273760838Y-232727500D02*
X272034000Y-232727500D01*
X281305000Y-230822500D02*
X276225000Y-230822500D01*
X281305000Y-226377500D02*
X281305000Y-226758500D01*
X270256000Y-232727500D02*
X269875000Y-232727500D01*
X272415000Y-226377500D02*
G75*
G03*
X269875000Y-228917500I1J-2540001D01*
G01*
X276225000Y-230822499D02*
G75*
G03*
X273760838Y-232746460I0J-2540000D01*
G01*
%TO.C,K15*%
X603250000Y-146621500D02*
X603250000Y-147002500D01*
X614680000Y-145097500D02*
X609600000Y-145097500D01*
X614680000Y-140652500D02*
X614680000Y-141033500D01*
X605790000Y-140652500D02*
X614680000Y-140652500D01*
X603631000Y-147002500D02*
X603250000Y-147002500D01*
X607135838Y-147002500D02*
X605409000Y-147002500D01*
X614680000Y-144081500D02*
X614680000Y-145097500D01*
X603250000Y-143192500D02*
X603250000Y-143573500D01*
X609600000Y-145097499D02*
G75*
G03*
X607135838Y-147021460I0J-2540000D01*
G01*
X605790000Y-140652500D02*
G75*
G03*
X603250000Y-143192500I1J-2540001D01*
G01*
%TO.C,K38*%
X343852500Y-188277500D02*
X352742500Y-188277500D01*
X341312500Y-190817500D02*
X341312500Y-191198500D01*
X341312500Y-194246500D02*
X341312500Y-194627500D01*
X352742500Y-192722500D02*
X347662500Y-192722500D01*
X345198338Y-194627500D02*
X343471500Y-194627500D01*
X341693500Y-194627500D02*
X341312500Y-194627500D01*
X352742500Y-191706500D02*
X352742500Y-192722500D01*
X352742500Y-188277500D02*
X352742500Y-188658500D01*
X343852500Y-188277500D02*
G75*
G03*
X341312500Y-190817500I1J-2540001D01*
G01*
X347662500Y-192722499D02*
G75*
G03*
X345198338Y-194646460I0J-2540000D01*
G01*
%TO.C,K69*%
X347980000Y-226377500D02*
X347980000Y-226758500D01*
X347980000Y-230822500D02*
X342900000Y-230822500D01*
X336550000Y-228917500D02*
X336550000Y-229298500D01*
X336931000Y-232727500D02*
X336550000Y-232727500D01*
X339090000Y-226377500D02*
X347980000Y-226377500D01*
X340435838Y-232727500D02*
X338709000Y-232727500D01*
X336550000Y-232346500D02*
X336550000Y-232727500D01*
X347980000Y-229806500D02*
X347980000Y-230822500D01*
X339090000Y-226377500D02*
G75*
G03*
X336550000Y-228917500I1J-2540001D01*
G01*
X342900000Y-230822499D02*
G75*
G03*
X340435838Y-232746460I0J-2540000D01*
G01*
%TO.C,K51*%
X603250000Y-194246500D02*
X603250000Y-194627500D01*
X614680000Y-191706500D02*
X614680000Y-192722500D01*
X603631000Y-194627500D02*
X603250000Y-194627500D01*
X605790000Y-188277500D02*
X614680000Y-188277500D01*
X614680000Y-188277500D02*
X614680000Y-188658500D01*
X607135838Y-194627500D02*
X605409000Y-194627500D01*
X603250000Y-190817500D02*
X603250000Y-191198500D01*
X614680000Y-192722500D02*
X609600000Y-192722500D01*
X605790000Y-188277500D02*
G75*
G03*
X603250000Y-190817500I1J-2540001D01*
G01*
X609600000Y-192722499D02*
G75*
G03*
X607135838Y-194646460I0J-2540000D01*
G01*
%TO.C,K29*%
X514667500Y-172656500D02*
X514667500Y-173672500D01*
X507123338Y-175577500D02*
X505396500Y-175577500D01*
X503618500Y-175577500D02*
X503237500Y-175577500D01*
X514667500Y-169227500D02*
X514667500Y-169608500D01*
X503237500Y-175196500D02*
X503237500Y-175577500D01*
X503237500Y-171767500D02*
X503237500Y-172148500D01*
X514667500Y-173672500D02*
X509587500Y-173672500D01*
X505777500Y-169227500D02*
X514667500Y-169227500D01*
X505777500Y-169227500D02*
G75*
G03*
X503237500Y-171767500I1J-2540001D01*
G01*
X509587500Y-173672499D02*
G75*
G03*
X507123338Y-175596460I0J-2540000D01*
G01*
%TO.C,K23*%
X388937500Y-171767500D02*
X388937500Y-172148500D01*
X392823338Y-175577500D02*
X391096500Y-175577500D01*
X389318500Y-175577500D02*
X388937500Y-175577500D01*
X391477500Y-169227500D02*
X400367500Y-169227500D01*
X388937500Y-175196500D02*
X388937500Y-175577500D01*
X400367500Y-173672500D02*
X395287500Y-173672500D01*
X400367500Y-172656500D02*
X400367500Y-173672500D01*
X400367500Y-169227500D02*
X400367500Y-169608500D01*
X395287500Y-173672499D02*
G75*
G03*
X392823338Y-175596460I0J-2540000D01*
G01*
X391477500Y-169227500D02*
G75*
G03*
X388937500Y-171767500I1J-2540001D01*
G01*
%TO.C,K55*%
X330910838Y-213677500D02*
X329184000Y-213677500D01*
X338455000Y-210756500D02*
X338455000Y-211772500D01*
X327406000Y-213677500D02*
X327025000Y-213677500D01*
X327025000Y-209867500D02*
X327025000Y-210248500D01*
X327025000Y-213296500D02*
X327025000Y-213677500D01*
X338455000Y-207327500D02*
X338455000Y-207708500D01*
X329565000Y-207327500D02*
X338455000Y-207327500D01*
X338455000Y-211772500D02*
X333375000Y-211772500D01*
X333375000Y-211772499D02*
G75*
G03*
X330910838Y-213696460I0J-2540000D01*
G01*
X329565000Y-207327500D02*
G75*
G03*
X327025000Y-209867500I1J-2540001D01*
G01*
%TO.C,K70*%
X355600000Y-228917500D02*
X355600000Y-229298500D01*
X355981000Y-232727500D02*
X355600000Y-232727500D01*
X367030000Y-229806500D02*
X367030000Y-230822500D01*
X359485838Y-232727500D02*
X357759000Y-232727500D01*
X355600000Y-232346500D02*
X355600000Y-232727500D01*
X367030000Y-230822500D02*
X361950000Y-230822500D01*
X367030000Y-226377500D02*
X367030000Y-226758500D01*
X358140000Y-226377500D02*
X367030000Y-226377500D01*
X358140000Y-226377500D02*
G75*
G03*
X355600000Y-228917500I1J-2540001D01*
G01*
X361950000Y-230822499D02*
G75*
G03*
X359485838Y-232746460I0J-2540000D01*
G01*
%TO.C,K68*%
X317023750Y-229806500D02*
X317023750Y-230822500D01*
X305593750Y-228917500D02*
X305593750Y-229298500D01*
X305593750Y-232346500D02*
X305593750Y-232727500D01*
X317023750Y-226377500D02*
X317023750Y-226758500D01*
X305974750Y-232727500D02*
X305593750Y-232727500D01*
X309479588Y-232727500D02*
X307752750Y-232727500D01*
X308133750Y-226377500D02*
X317023750Y-226377500D01*
X317023750Y-230822500D02*
X311943750Y-230822500D01*
X308133750Y-226377500D02*
G75*
G03*
X305593750Y-228917500I1J-2540001D01*
G01*
X311943750Y-230822499D02*
G75*
G03*
X309479588Y-232746460I0J-2540000D01*
G01*
%TO.C,K8*%
X458152500Y-140652500D02*
X467042500Y-140652500D01*
X455993500Y-147002500D02*
X455612500Y-147002500D01*
X459498338Y-147002500D02*
X457771500Y-147002500D01*
X467042500Y-144081500D02*
X467042500Y-145097500D01*
X467042500Y-145097500D02*
X461962500Y-145097500D01*
X455612500Y-146621500D02*
X455612500Y-147002500D01*
X467042500Y-140652500D02*
X467042500Y-141033500D01*
X455612500Y-143192500D02*
X455612500Y-143573500D01*
X461962500Y-145097499D02*
G75*
G03*
X459498338Y-147021460I0J-2540000D01*
G01*
X458152500Y-140652500D02*
G75*
G03*
X455612500Y-143192500I1J-2540001D01*
G01*
%TO.C,K58*%
X388060838Y-213677500D02*
X386334000Y-213677500D01*
X395605000Y-210756500D02*
X395605000Y-211772500D01*
X384175000Y-213296500D02*
X384175000Y-213677500D01*
X395605000Y-207327500D02*
X395605000Y-207708500D01*
X386715000Y-207327500D02*
X395605000Y-207327500D01*
X384175000Y-209867500D02*
X384175000Y-210248500D01*
X384556000Y-213677500D02*
X384175000Y-213677500D01*
X395605000Y-211772500D02*
X390525000Y-211772500D01*
X390525000Y-211772499D02*
G75*
G03*
X388060838Y-213696460I0J-2540000D01*
G01*
X386715000Y-207327500D02*
G75*
G03*
X384175000Y-209867500I1J-2540001D01*
G01*
%TO.C,K40*%
X379793500Y-194627500D02*
X379412500Y-194627500D01*
X390842500Y-191706500D02*
X390842500Y-192722500D01*
X390842500Y-188277500D02*
X390842500Y-188658500D01*
X381952500Y-188277500D02*
X390842500Y-188277500D01*
X379412500Y-194246500D02*
X379412500Y-194627500D01*
X390842500Y-192722500D02*
X385762500Y-192722500D01*
X379412500Y-190817500D02*
X379412500Y-191198500D01*
X383298338Y-194627500D02*
X381571500Y-194627500D01*
X381952500Y-188277500D02*
G75*
G03*
X379412500Y-190817500I1J-2540001D01*
G01*
X385762500Y-192722499D02*
G75*
G03*
X383298338Y-194646460I0J-2540000D01*
G01*
%TO.C,K20*%
X331787500Y-175196500D02*
X331787500Y-175577500D01*
X331787500Y-171767500D02*
X331787500Y-172148500D01*
X343217500Y-169227500D02*
X343217500Y-169608500D01*
X343217500Y-172656500D02*
X343217500Y-173672500D01*
X335673338Y-175577500D02*
X333946500Y-175577500D01*
X332168500Y-175577500D02*
X331787500Y-175577500D01*
X343217500Y-173672500D02*
X338137500Y-173672500D01*
X334327500Y-169227500D02*
X343217500Y-169227500D01*
X334327500Y-169227500D02*
G75*
G03*
X331787500Y-171767500I1J-2540001D01*
G01*
X338137500Y-173672499D02*
G75*
G03*
X335673338Y-175596460I0J-2540000D01*
G01*
%TO.C,K1*%
X293687500Y-143192500D02*
X293687500Y-143573500D01*
X296227500Y-140652500D02*
X305117500Y-140652500D01*
X293687500Y-146621500D02*
X293687500Y-147002500D01*
X305117500Y-145097500D02*
X300037500Y-145097500D01*
X305117500Y-140652500D02*
X305117500Y-141033500D01*
X305117500Y-144081500D02*
X305117500Y-145097500D01*
X294068500Y-147002500D02*
X293687500Y-147002500D01*
X297573338Y-147002500D02*
X295846500Y-147002500D01*
X300037500Y-145097499D02*
G75*
G03*
X297573338Y-147021460I0J-2540000D01*
G01*
X296227500Y-140652500D02*
G75*
G03*
X293687500Y-143192500I1J-2540001D01*
G01*
%TO.C,K59*%
X407110838Y-213677500D02*
X405384000Y-213677500D01*
X403225000Y-213296500D02*
X403225000Y-213677500D01*
X414655000Y-207327500D02*
X414655000Y-207708500D01*
X414655000Y-211772500D02*
X409575000Y-211772500D01*
X403225000Y-209867500D02*
X403225000Y-210248500D01*
X414655000Y-210756500D02*
X414655000Y-211772500D01*
X403606000Y-213677500D02*
X403225000Y-213677500D01*
X405765000Y-207327500D02*
X414655000Y-207327500D01*
X409575000Y-211772499D02*
G75*
G03*
X407110838Y-213696460I0J-2540000D01*
G01*
X405765000Y-207327500D02*
G75*
G03*
X403225000Y-209867500I1J-2540001D01*
G01*
%TO.C,K16*%
X626185838Y-147002500D02*
X624459000Y-147002500D01*
X624840000Y-140652500D02*
X633730000Y-140652500D01*
X622300000Y-143192500D02*
X622300000Y-143573500D01*
X633730000Y-140652500D02*
X633730000Y-141033500D01*
X622681000Y-147002500D02*
X622300000Y-147002500D01*
X622300000Y-146621500D02*
X622300000Y-147002500D01*
X633730000Y-144081500D02*
X633730000Y-145097500D01*
X633730000Y-145097500D02*
X628650000Y-145097500D01*
X624840000Y-140652500D02*
G75*
G03*
X622300000Y-143192500I1J-2540001D01*
G01*
X628650000Y-145097499D02*
G75*
G03*
X626185838Y-147021460I0J-2540000D01*
G01*
%TO.C,K21*%
X362267500Y-173672500D02*
X357187500Y-173672500D01*
X350837500Y-175196500D02*
X350837500Y-175577500D01*
X353377500Y-169227500D02*
X362267500Y-169227500D01*
X362267500Y-172656500D02*
X362267500Y-173672500D01*
X362267500Y-169227500D02*
X362267500Y-169608500D01*
X350837500Y-171767500D02*
X350837500Y-172148500D01*
X354723338Y-175577500D02*
X352996500Y-175577500D01*
X351218500Y-175577500D02*
X350837500Y-175577500D01*
X357187500Y-173672499D02*
G75*
G03*
X354723338Y-175596460I0J-2540000D01*
G01*
X353377500Y-169227500D02*
G75*
G03*
X350837500Y-171767500I1J-2540001D01*
G01*
%TO.C,K25*%
X427037500Y-175196500D02*
X427037500Y-175577500D01*
X429577500Y-169227500D02*
X438467500Y-169227500D01*
X430923338Y-175577500D02*
X429196500Y-175577500D01*
X438467500Y-169227500D02*
X438467500Y-169608500D01*
X427418500Y-175577500D02*
X427037500Y-175577500D01*
X427037500Y-171767500D02*
X427037500Y-172148500D01*
X438467500Y-172656500D02*
X438467500Y-173672500D01*
X438467500Y-173672500D02*
X433387500Y-173672500D01*
X429577500Y-169227500D02*
G75*
G03*
X427037500Y-171767500I1J-2540001D01*
G01*
X433387500Y-173672499D02*
G75*
G03*
X430923338Y-175596460I0J-2540000D01*
G01*
%TO.C,K10*%
X503618500Y-147002500D02*
X503237500Y-147002500D01*
X514667500Y-145097500D02*
X509587500Y-145097500D01*
X507123338Y-147002500D02*
X505396500Y-147002500D01*
X514667500Y-140652500D02*
X514667500Y-141033500D01*
X505777500Y-140652500D02*
X514667500Y-140652500D01*
X514667500Y-144081500D02*
X514667500Y-145097500D01*
X503237500Y-143192500D02*
X503237500Y-143573500D01*
X503237500Y-146621500D02*
X503237500Y-147002500D01*
X505777500Y-140652500D02*
G75*
G03*
X503237500Y-143192500I1J-2540001D01*
G01*
X509587500Y-145097499D02*
G75*
G03*
X507123338Y-147021460I0J-2540000D01*
G01*
%TO.C,K61*%
X441325000Y-209867500D02*
X441325000Y-210248500D01*
X452755000Y-207327500D02*
X452755000Y-207708500D01*
X443865000Y-207327500D02*
X452755000Y-207327500D01*
X452755000Y-211772500D02*
X447675000Y-211772500D01*
X445210838Y-213677500D02*
X443484000Y-213677500D01*
X441325000Y-213296500D02*
X441325000Y-213677500D01*
X452755000Y-210756500D02*
X452755000Y-211772500D01*
X441706000Y-213677500D02*
X441325000Y-213677500D01*
X443865000Y-207327500D02*
G75*
G03*
X441325000Y-209867500I1J-2540001D01*
G01*
X447675000Y-211772499D02*
G75*
G03*
X445210838Y-213696460I0J-2540000D01*
G01*
%TO.C,K48*%
X543242500Y-192722500D02*
X538162500Y-192722500D01*
X543242500Y-191706500D02*
X543242500Y-192722500D01*
X543242500Y-188277500D02*
X543242500Y-188658500D01*
X532193500Y-194627500D02*
X531812500Y-194627500D01*
X535698338Y-194627500D02*
X533971500Y-194627500D01*
X534352500Y-188277500D02*
X543242500Y-188277500D01*
X531812500Y-190817500D02*
X531812500Y-191198500D01*
X531812500Y-194246500D02*
X531812500Y-194627500D01*
X538162500Y-192722499D02*
G75*
G03*
X535698338Y-194646460I0J-2540000D01*
G01*
X534352500Y-188277500D02*
G75*
G03*
X531812500Y-190817500I1J-2540001D01*
G01*
%TO.C,K7*%
X440448338Y-147002500D02*
X438721500Y-147002500D01*
X436562500Y-143192500D02*
X436562500Y-143573500D01*
X447992500Y-140652500D02*
X447992500Y-141033500D01*
X436943500Y-147002500D02*
X436562500Y-147002500D01*
X439102500Y-140652500D02*
X447992500Y-140652500D01*
X436562500Y-146621500D02*
X436562500Y-147002500D01*
X447992500Y-145097500D02*
X442912500Y-145097500D01*
X447992500Y-144081500D02*
X447992500Y-145097500D01*
X442912500Y-145097499D02*
G75*
G03*
X440448338Y-147021460I0J-2540000D01*
G01*
X439102500Y-140652500D02*
G75*
G03*
X436562500Y-143192500I1J-2540001D01*
G01*
%TO.C,K50*%
X584581000Y-194627500D02*
X584200000Y-194627500D01*
X584200000Y-190817500D02*
X584200000Y-191198500D01*
X586740000Y-188277500D02*
X595630000Y-188277500D01*
X595630000Y-188277500D02*
X595630000Y-188658500D01*
X595630000Y-192722500D02*
X590550000Y-192722500D01*
X595630000Y-191706500D02*
X595630000Y-192722500D01*
X584200000Y-194246500D02*
X584200000Y-194627500D01*
X588085838Y-194627500D02*
X586359000Y-194627500D01*
X590550000Y-192722499D02*
G75*
G03*
X588085838Y-194646460I0J-2540000D01*
G01*
X586740000Y-188277500D02*
G75*
G03*
X584200000Y-190817500I1J-2540001D01*
G01*
%TO.C,K33*%
X607135838Y-175577500D02*
X605409000Y-175577500D01*
X603250000Y-175196500D02*
X603250000Y-175577500D01*
X614680000Y-169227500D02*
X614680000Y-169608500D01*
X603250000Y-171767500D02*
X603250000Y-172148500D01*
X605790000Y-169227500D02*
X614680000Y-169227500D01*
X614680000Y-173672500D02*
X609600000Y-173672500D01*
X603631000Y-175577500D02*
X603250000Y-175577500D01*
X614680000Y-172656500D02*
X614680000Y-173672500D01*
X605790000Y-169227500D02*
G75*
G03*
X603250000Y-171767500I1J-2540001D01*
G01*
X609600000Y-173672499D02*
G75*
G03*
X607135838Y-175596460I0J-2540000D01*
G01*
%TO.C,K27*%
X476567500Y-172656500D02*
X476567500Y-173672500D01*
X476567500Y-173672500D02*
X471487500Y-173672500D01*
X465137500Y-175196500D02*
X465137500Y-175577500D01*
X465137500Y-171767500D02*
X465137500Y-172148500D01*
X467677500Y-169227500D02*
X476567500Y-169227500D01*
X476567500Y-169227500D02*
X476567500Y-169608500D01*
X469023338Y-175577500D02*
X467296500Y-175577500D01*
X465518500Y-175577500D02*
X465137500Y-175577500D01*
X467677500Y-169227500D02*
G75*
G03*
X465137500Y-171767500I1J-2540001D01*
G01*
X471487500Y-173672499D02*
G75*
G03*
X469023338Y-175596460I0J-2540000D01*
G01*
%TO.C,K77*%
X492835838Y-232727500D02*
X491109000Y-232727500D01*
X488950000Y-232346500D02*
X488950000Y-232727500D01*
X491490000Y-226377500D02*
X500380000Y-226377500D01*
X489331000Y-232727500D02*
X488950000Y-232727500D01*
X488950000Y-228917500D02*
X488950000Y-229298500D01*
X500380000Y-230822500D02*
X495300000Y-230822500D01*
X500380000Y-226377500D02*
X500380000Y-226758500D01*
X500380000Y-229806500D02*
X500380000Y-230822500D01*
X495300000Y-230822499D02*
G75*
G03*
X492835838Y-232746460I0J-2540000D01*
G01*
X491490000Y-226377500D02*
G75*
G03*
X488950000Y-228917500I1J-2540001D01*
G01*
%TO.C,K26*%
X448627500Y-169227500D02*
X457517500Y-169227500D01*
X457517500Y-173672500D02*
X452437500Y-173672500D01*
X446468500Y-175577500D02*
X446087500Y-175577500D01*
X446087500Y-171767500D02*
X446087500Y-172148500D01*
X446087500Y-175196500D02*
X446087500Y-175577500D01*
X457517500Y-172656500D02*
X457517500Y-173672500D01*
X457517500Y-169227500D02*
X457517500Y-169608500D01*
X449973338Y-175577500D02*
X448246500Y-175577500D01*
X448627500Y-169227500D02*
G75*
G03*
X446087500Y-171767500I1J-2540001D01*
G01*
X452437500Y-173672499D02*
G75*
G03*
X449973338Y-175596460I0J-2540000D01*
G01*
%TO.C,K84*%
X346233750Y-245427500D02*
X355123750Y-245427500D01*
X343693750Y-247967500D02*
X343693750Y-248348500D01*
X355123750Y-245427500D02*
X355123750Y-245808500D01*
X344074750Y-251777500D02*
X343693750Y-251777500D01*
X355123750Y-249872500D02*
X350043750Y-249872500D01*
X347579588Y-251777500D02*
X345852750Y-251777500D01*
X355123750Y-248856500D02*
X355123750Y-249872500D01*
X343693750Y-251396500D02*
X343693750Y-251777500D01*
X346233750Y-245427500D02*
G75*
G03*
X343693750Y-247967500I1J-2540001D01*
G01*
X350043750Y-249872499D02*
G75*
G03*
X347579588Y-251796460I0J-2540000D01*
G01*
%TO.C,K75*%
X462280000Y-229806500D02*
X462280000Y-230822500D01*
X462280000Y-226377500D02*
X462280000Y-226758500D01*
X450850000Y-232346500D02*
X450850000Y-232727500D01*
X450850000Y-228917500D02*
X450850000Y-229298500D01*
X451231000Y-232727500D02*
X450850000Y-232727500D01*
X454735838Y-232727500D02*
X453009000Y-232727500D01*
X462280000Y-230822500D02*
X457200000Y-230822500D01*
X453390000Y-226377500D02*
X462280000Y-226377500D01*
X457200000Y-230822499D02*
G75*
G03*
X454735838Y-232746460I0J-2540000D01*
G01*
X453390000Y-226377500D02*
G75*
G03*
X450850000Y-228917500I1J-2540001D01*
G01*
%TO.C,K18*%
X305117500Y-172656500D02*
X305117500Y-173672500D01*
X296227500Y-169227500D02*
X305117500Y-169227500D01*
X297573338Y-175577500D02*
X295846500Y-175577500D01*
X293687500Y-171767500D02*
X293687500Y-172148500D01*
X294068500Y-175577500D02*
X293687500Y-175577500D01*
X305117500Y-169227500D02*
X305117500Y-169608500D01*
X305117500Y-173672500D02*
X300037500Y-173672500D01*
X293687500Y-175196500D02*
X293687500Y-175577500D01*
X296227500Y-169227500D02*
G75*
G03*
X293687500Y-171767500I1J-2540001D01*
G01*
X300037500Y-173672499D02*
G75*
G03*
X297573338Y-175596460I0J-2540000D01*
G01*
%TO.C,K32*%
X595630000Y-169227500D02*
X595630000Y-169608500D01*
X584200000Y-171767500D02*
X584200000Y-172148500D01*
X584200000Y-175196500D02*
X584200000Y-175577500D01*
X595630000Y-173672500D02*
X590550000Y-173672500D01*
X595630000Y-172656500D02*
X595630000Y-173672500D01*
X586740000Y-169227500D02*
X595630000Y-169227500D01*
X588085838Y-175577500D02*
X586359000Y-175577500D01*
X584581000Y-175577500D02*
X584200000Y-175577500D01*
X590550000Y-173672499D02*
G75*
G03*
X588085838Y-175596460I0J-2540000D01*
G01*
X586740000Y-169227500D02*
G75*
G03*
X584200000Y-171767500I1J-2540001D01*
G01*
%TO.C,K52*%
X633730000Y-192722500D02*
X628650000Y-192722500D01*
X626185838Y-194627500D02*
X624459000Y-194627500D01*
X624840000Y-188277500D02*
X633730000Y-188277500D01*
X622300000Y-190817500D02*
X622300000Y-191198500D01*
X633730000Y-191706500D02*
X633730000Y-192722500D01*
X622681000Y-194627500D02*
X622300000Y-194627500D01*
X633730000Y-188277500D02*
X633730000Y-188658500D01*
X622300000Y-194246500D02*
X622300000Y-194627500D01*
X628650000Y-192722499D02*
G75*
G03*
X626185838Y-194646460I0J-2540000D01*
G01*
X624840000Y-188277500D02*
G75*
G03*
X622300000Y-190817500I1J-2540001D01*
G01*
%TO.C,K65*%
X528955000Y-211772500D02*
X523875000Y-211772500D01*
X521410838Y-213677500D02*
X519684000Y-213677500D01*
X517906000Y-213677500D02*
X517525000Y-213677500D01*
X528955000Y-210756500D02*
X528955000Y-211772500D01*
X520065000Y-207327500D02*
X528955000Y-207327500D01*
X528955000Y-207327500D02*
X528955000Y-207708500D01*
X517525000Y-209867500D02*
X517525000Y-210248500D01*
X517525000Y-213296500D02*
X517525000Y-213677500D01*
X523875000Y-211772499D02*
G75*
G03*
X521410838Y-213696460I0J-2540000D01*
G01*
X520065000Y-207327500D02*
G75*
G03*
X517525000Y-209867500I1J-2540001D01*
G01*
%TO.C,K43*%
X440448338Y-194627500D02*
X438721500Y-194627500D01*
X436943500Y-194627500D02*
X436562500Y-194627500D01*
X447992500Y-192722500D02*
X442912500Y-192722500D01*
X436562500Y-190817500D02*
X436562500Y-191198500D01*
X436562500Y-194246500D02*
X436562500Y-194627500D01*
X447992500Y-191706500D02*
X447992500Y-192722500D01*
X447992500Y-188277500D02*
X447992500Y-188658500D01*
X439102500Y-188277500D02*
X447992500Y-188277500D01*
X439102500Y-188277500D02*
G75*
G03*
X436562500Y-190817500I1J-2540001D01*
G01*
X442912500Y-192722499D02*
G75*
G03*
X440448338Y-194646460I0J-2540000D01*
G01*
%TO.C,K30*%
X524827500Y-169227500D02*
X533717500Y-169227500D01*
X533717500Y-169227500D02*
X533717500Y-169608500D01*
X522287500Y-175196500D02*
X522287500Y-175577500D01*
X522287500Y-171767500D02*
X522287500Y-172148500D01*
X533717500Y-172656500D02*
X533717500Y-173672500D01*
X533717500Y-173672500D02*
X528637500Y-173672500D01*
X526173338Y-175577500D02*
X524446500Y-175577500D01*
X522668500Y-175577500D02*
X522287500Y-175577500D01*
X524827500Y-169227500D02*
G75*
G03*
X522287500Y-171767500I1J-2540001D01*
G01*
X528637500Y-173672499D02*
G75*
G03*
X526173338Y-175596460I0J-2540000D01*
G01*
%TO.C,K73*%
X412750000Y-228917500D02*
X412750000Y-229298500D01*
X424180000Y-230822500D02*
X419100000Y-230822500D01*
X412750000Y-232346500D02*
X412750000Y-232727500D01*
X413131000Y-232727500D02*
X412750000Y-232727500D01*
X424180000Y-229806500D02*
X424180000Y-230822500D01*
X416635838Y-232727500D02*
X414909000Y-232727500D01*
X424180000Y-226377500D02*
X424180000Y-226758500D01*
X415290000Y-226377500D02*
X424180000Y-226377500D01*
X419100000Y-230822499D02*
G75*
G03*
X416635838Y-232746460I0J-2540000D01*
G01*
X415290000Y-226377500D02*
G75*
G03*
X412750000Y-228917500I1J-2540001D01*
G01*
%TO.C,K85*%
X415131250Y-247967500D02*
X415131250Y-248348500D01*
X415131250Y-251396500D02*
X415131250Y-251777500D01*
X426561250Y-248856500D02*
X426561250Y-249872500D01*
X419017088Y-251777500D02*
X417290250Y-251777500D01*
X417671250Y-245427500D02*
X426561250Y-245427500D01*
X415512250Y-251777500D02*
X415131250Y-251777500D01*
X426561250Y-249872500D02*
X421481250Y-249872500D01*
X426561250Y-245427500D02*
X426561250Y-245808500D01*
X421481250Y-249872499D02*
G75*
G03*
X419017088Y-251796460I0J-2540000D01*
G01*
X417671250Y-245427500D02*
G75*
G03*
X415131250Y-247967500I1J-2540001D01*
G01*
%TO.C,K63*%
X483310838Y-213677500D02*
X481584000Y-213677500D01*
X479806000Y-213677500D02*
X479425000Y-213677500D01*
X490855000Y-211772500D02*
X485775000Y-211772500D01*
X490855000Y-210756500D02*
X490855000Y-211772500D01*
X481965000Y-207327500D02*
X490855000Y-207327500D01*
X479425000Y-209867500D02*
X479425000Y-210248500D01*
X479425000Y-213296500D02*
X479425000Y-213677500D01*
X490855000Y-207327500D02*
X490855000Y-207708500D01*
X481965000Y-207327500D02*
G75*
G03*
X479425000Y-209867500I1J-2540001D01*
G01*
X485775000Y-211772499D02*
G75*
G03*
X483310838Y-213696460I0J-2540000D01*
G01*
%TO.C,K11*%
X522668500Y-147002500D02*
X522287500Y-147002500D01*
X522287500Y-143192500D02*
X522287500Y-143573500D01*
X522287500Y-146621500D02*
X522287500Y-147002500D01*
X533717500Y-144081500D02*
X533717500Y-145097500D01*
X533717500Y-140652500D02*
X533717500Y-141033500D01*
X526173338Y-147002500D02*
X524446500Y-147002500D01*
X533717500Y-145097500D02*
X528637500Y-145097500D01*
X524827500Y-140652500D02*
X533717500Y-140652500D01*
X524827500Y-140652500D02*
G75*
G03*
X522287500Y-143192500I1J-2540001D01*
G01*
X528637500Y-145097499D02*
G75*
G03*
X526173338Y-147021460I0J-2540000D01*
G01*
%TO.C,K24*%
X408368500Y-175577500D02*
X407987500Y-175577500D01*
X407987500Y-175196500D02*
X407987500Y-175577500D01*
X419417500Y-172656500D02*
X419417500Y-173672500D01*
X410527500Y-169227500D02*
X419417500Y-169227500D01*
X419417500Y-169227500D02*
X419417500Y-169608500D01*
X411873338Y-175577500D02*
X410146500Y-175577500D01*
X419417500Y-173672500D02*
X414337500Y-173672500D01*
X407987500Y-171767500D02*
X407987500Y-172148500D01*
X414337500Y-173672499D02*
G75*
G03*
X411873338Y-175596460I0J-2540000D01*
G01*
X410527500Y-169227500D02*
G75*
G03*
X407987500Y-171767500I1J-2540001D01*
G01*
%TO.C,K17*%
X269875000Y-171767500D02*
X269875000Y-172148500D01*
X272415000Y-169227500D02*
X281305000Y-169227500D01*
X273760838Y-175577500D02*
X272034000Y-175577500D01*
X281305000Y-172656500D02*
X281305000Y-173672500D01*
X281305000Y-169227500D02*
X281305000Y-169608500D01*
X269875000Y-175196500D02*
X269875000Y-175577500D01*
X270256000Y-175577500D02*
X269875000Y-175577500D01*
X281305000Y-173672500D02*
X276225000Y-173672500D01*
X276225000Y-173672499D02*
G75*
G03*
X273760838Y-175596460I0J-2540000D01*
G01*
X272415000Y-169227500D02*
G75*
G03*
X269875000Y-171767500I1J-2540001D01*
G01*
%TO.C,K34*%
X633730000Y-169227500D02*
X633730000Y-169608500D01*
X633730000Y-173672500D02*
X628650000Y-173672500D01*
X622300000Y-171767500D02*
X622300000Y-172148500D01*
X626185838Y-175577500D02*
X624459000Y-175577500D01*
X622681000Y-175577500D02*
X622300000Y-175577500D01*
X622300000Y-175196500D02*
X622300000Y-175577500D01*
X633730000Y-172656500D02*
X633730000Y-173672500D01*
X624840000Y-169227500D02*
X633730000Y-169227500D01*
X624840000Y-169227500D02*
G75*
G03*
X622300000Y-171767500I1J-2540001D01*
G01*
X628650000Y-173672499D02*
G75*
G03*
X626185838Y-175596460I0J-2540000D01*
G01*
%TO.C,K37*%
X324802500Y-188277500D02*
X333692500Y-188277500D01*
X333692500Y-192722500D02*
X328612500Y-192722500D01*
X326148338Y-194627500D02*
X324421500Y-194627500D01*
X322262500Y-194246500D02*
X322262500Y-194627500D01*
X322643500Y-194627500D02*
X322262500Y-194627500D01*
X333692500Y-191706500D02*
X333692500Y-192722500D01*
X322262500Y-190817500D02*
X322262500Y-191198500D01*
X333692500Y-188277500D02*
X333692500Y-188658500D01*
X328612500Y-192722499D02*
G75*
G03*
X326148338Y-194646460I0J-2540000D01*
G01*
X324802500Y-188277500D02*
G75*
G03*
X322262500Y-190817500I1J-2540001D01*
G01*
%TO.C,K57*%
X367665000Y-207327500D02*
X376555000Y-207327500D01*
X365125000Y-213296500D02*
X365125000Y-213677500D01*
X365125000Y-209867500D02*
X365125000Y-210248500D01*
X369010838Y-213677500D02*
X367284000Y-213677500D01*
X376555000Y-207327500D02*
X376555000Y-207708500D01*
X365506000Y-213677500D02*
X365125000Y-213677500D01*
X376555000Y-210756500D02*
X376555000Y-211772500D01*
X376555000Y-211772500D02*
X371475000Y-211772500D01*
X367665000Y-207327500D02*
G75*
G03*
X365125000Y-209867500I1J-2540001D01*
G01*
X371475000Y-211772499D02*
G75*
G03*
X369010838Y-213696460I0J-2540000D01*
G01*
%TO.C,K46*%
X493712500Y-194246500D02*
X493712500Y-194627500D01*
X497598338Y-194627500D02*
X495871500Y-194627500D01*
X494093500Y-194627500D02*
X493712500Y-194627500D01*
X493712500Y-190817500D02*
X493712500Y-191198500D01*
X505142500Y-192722500D02*
X500062500Y-192722500D01*
X505142500Y-191706500D02*
X505142500Y-192722500D01*
X496252500Y-188277500D02*
X505142500Y-188277500D01*
X505142500Y-188277500D02*
X505142500Y-188658500D01*
X496252500Y-188277500D02*
G75*
G03*
X493712500Y-190817500I1J-2540001D01*
G01*
X500062500Y-192722499D02*
G75*
G03*
X497598338Y-194646460I0J-2540000D01*
G01*
%TO.C,K39*%
X360362500Y-190817500D02*
X360362500Y-191198500D01*
X360743500Y-194627500D02*
X360362500Y-194627500D01*
X360362500Y-194246500D02*
X360362500Y-194627500D01*
X364248338Y-194627500D02*
X362521500Y-194627500D01*
X362902500Y-188277500D02*
X371792500Y-188277500D01*
X371792500Y-191706500D02*
X371792500Y-192722500D01*
X371792500Y-192722500D02*
X366712500Y-192722500D01*
X371792500Y-188277500D02*
X371792500Y-188658500D01*
X362902500Y-188277500D02*
G75*
G03*
X360362500Y-190817500I1J-2540001D01*
G01*
X366712500Y-192722499D02*
G75*
G03*
X364248338Y-194646460I0J-2540000D01*
G01*
%TO.C,K64*%
X498856000Y-213677500D02*
X498475000Y-213677500D01*
X498475000Y-213296500D02*
X498475000Y-213677500D01*
X502360838Y-213677500D02*
X500634000Y-213677500D01*
X498475000Y-209867500D02*
X498475000Y-210248500D01*
X509905000Y-207327500D02*
X509905000Y-207708500D01*
X509905000Y-210756500D02*
X509905000Y-211772500D01*
X509905000Y-211772500D02*
X504825000Y-211772500D01*
X501015000Y-207327500D02*
X509905000Y-207327500D01*
X501015000Y-207327500D02*
G75*
G03*
X498475000Y-209867500I1J-2540001D01*
G01*
X504825000Y-211772499D02*
G75*
G03*
X502360838Y-213696460I0J-2540000D01*
G01*
%TO.C,K72*%
X396240000Y-226377500D02*
X405130000Y-226377500D01*
X393700000Y-232346500D02*
X393700000Y-232727500D01*
X394081000Y-232727500D02*
X393700000Y-232727500D01*
X405130000Y-226377500D02*
X405130000Y-226758500D01*
X397585838Y-232727500D02*
X395859000Y-232727500D01*
X405130000Y-229806500D02*
X405130000Y-230822500D01*
X405130000Y-230822500D02*
X400050000Y-230822500D01*
X393700000Y-228917500D02*
X393700000Y-229298500D01*
X400050000Y-230822499D02*
G75*
G03*
X397585838Y-232746460I0J-2540000D01*
G01*
X396240000Y-226377500D02*
G75*
G03*
X393700000Y-228917500I1J-2540001D01*
G01*
%TO.C,K86*%
X486949750Y-251777500D02*
X486568750Y-251777500D01*
X490454588Y-251777500D02*
X488727750Y-251777500D01*
X486568750Y-251396500D02*
X486568750Y-251777500D01*
X489108750Y-245427500D02*
X497998750Y-245427500D01*
X497998750Y-245427500D02*
X497998750Y-245808500D01*
X497998750Y-248856500D02*
X497998750Y-249872500D01*
X497998750Y-249872500D02*
X492918750Y-249872500D01*
X486568750Y-247967500D02*
X486568750Y-248348500D01*
X492918750Y-249872499D02*
G75*
G03*
X490454588Y-251796460I0J-2540000D01*
G01*
X489108750Y-245427500D02*
G75*
G03*
X486568750Y-247967500I1J-2540001D01*
G01*
%TO.C,K13*%
X560387500Y-146621500D02*
X560387500Y-147002500D01*
X571817500Y-145097500D02*
X566737500Y-145097500D01*
X571817500Y-144081500D02*
X571817500Y-145097500D01*
X562927500Y-140652500D02*
X571817500Y-140652500D01*
X564273338Y-147002500D02*
X562546500Y-147002500D01*
X571817500Y-140652500D02*
X571817500Y-141033500D01*
X560387500Y-143192500D02*
X560387500Y-143573500D01*
X560768500Y-147002500D02*
X560387500Y-147002500D01*
X562927500Y-140652500D02*
G75*
G03*
X560387500Y-143192500I1J-2540001D01*
G01*
X566737500Y-145097499D02*
G75*
G03*
X564273338Y-147021460I0J-2540000D01*
G01*
%TO.C,K53*%
X281305000Y-207327500D02*
X281305000Y-207708500D01*
X281305000Y-211772500D02*
X276225000Y-211772500D01*
X273760838Y-213677500D02*
X272034000Y-213677500D01*
X270256000Y-213677500D02*
X269875000Y-213677500D01*
X272415000Y-207327500D02*
X281305000Y-207327500D01*
X269875000Y-209867500D02*
X269875000Y-210248500D01*
X269875000Y-213296500D02*
X269875000Y-213677500D01*
X281305000Y-210756500D02*
X281305000Y-211772500D01*
X276225000Y-211772499D02*
G75*
G03*
X273760838Y-213696460I0J-2540000D01*
G01*
X272415000Y-207327500D02*
G75*
G03*
X269875000Y-209867500I1J-2540001D01*
G01*
%TO.C,K22*%
X381317500Y-172656500D02*
X381317500Y-173672500D01*
X370268500Y-175577500D02*
X369887500Y-175577500D01*
X381317500Y-173672500D02*
X376237500Y-173672500D01*
X369887500Y-175196500D02*
X369887500Y-175577500D01*
X373773338Y-175577500D02*
X372046500Y-175577500D01*
X372427500Y-169227500D02*
X381317500Y-169227500D01*
X381317500Y-169227500D02*
X381317500Y-169608500D01*
X369887500Y-171767500D02*
X369887500Y-172148500D01*
X372427500Y-169227500D02*
G75*
G03*
X369887500Y-171767500I1J-2540001D01*
G01*
X376237500Y-173672499D02*
G75*
G03*
X373773338Y-175596460I0J-2540000D01*
G01*
%TO.C,K79*%
X555148750Y-229806500D02*
X555148750Y-230822500D01*
X555148750Y-226377500D02*
X555148750Y-226758500D01*
X555148750Y-230822500D02*
X550068750Y-230822500D01*
X546258750Y-226377500D02*
X555148750Y-226377500D01*
X543718750Y-232346500D02*
X543718750Y-232727500D01*
X547604588Y-232727500D02*
X545877750Y-232727500D01*
X543718750Y-228917500D02*
X543718750Y-229298500D01*
X544099750Y-232727500D02*
X543718750Y-232727500D01*
X550068750Y-230822499D02*
G75*
G03*
X547604588Y-232746460I0J-2540000D01*
G01*
X546258750Y-226377500D02*
G75*
G03*
X543718750Y-228917500I1J-2540001D01*
G01*
%TO.C,K92*%
X633730000Y-245427500D02*
X633730000Y-245808500D01*
X622681000Y-251777500D02*
X622300000Y-251777500D01*
X633730000Y-249872500D02*
X628650000Y-249872500D01*
X626185838Y-251777500D02*
X624459000Y-251777500D01*
X622300000Y-251396500D02*
X622300000Y-251777500D01*
X624840000Y-245427500D02*
X633730000Y-245427500D01*
X622300000Y-247967500D02*
X622300000Y-248348500D01*
X633730000Y-248856500D02*
X633730000Y-249872500D01*
X628650000Y-249872499D02*
G75*
G03*
X626185838Y-251796460I0J-2540000D01*
G01*
X624840000Y-245427500D02*
G75*
G03*
X622300000Y-247967500I1J-2540001D01*
G01*
%TO.C,K35*%
X270256000Y-194627500D02*
X269875000Y-194627500D01*
X281305000Y-188277500D02*
X281305000Y-188658500D01*
X272415000Y-188277500D02*
X281305000Y-188277500D01*
X269875000Y-190817500D02*
X269875000Y-191198500D01*
X273760838Y-194627500D02*
X272034000Y-194627500D01*
X281305000Y-191706500D02*
X281305000Y-192722500D01*
X281305000Y-192722500D02*
X276225000Y-192722500D01*
X269875000Y-194246500D02*
X269875000Y-194627500D01*
X272415000Y-188277500D02*
G75*
G03*
X269875000Y-190817500I1J-2540001D01*
G01*
X276225000Y-192722499D02*
G75*
G03*
X273760838Y-194646460I0J-2540000D01*
G01*
%TO.C,K88*%
X545623750Y-249872500D02*
X540543750Y-249872500D01*
X536733750Y-245427500D02*
X545623750Y-245427500D01*
X545623750Y-248856500D02*
X545623750Y-249872500D01*
X534193750Y-247967500D02*
X534193750Y-248348500D01*
X534574750Y-251777500D02*
X534193750Y-251777500D01*
X534193750Y-251396500D02*
X534193750Y-251777500D01*
X545623750Y-245427500D02*
X545623750Y-245808500D01*
X538079588Y-251777500D02*
X536352750Y-251777500D01*
X540543750Y-249872499D02*
G75*
G03*
X538079588Y-251796460I0J-2540000D01*
G01*
X536733750Y-245427500D02*
G75*
G03*
X534193750Y-247967500I1J-2540001D01*
G01*
%TO.C,K5*%
X391477500Y-140652500D02*
X400367500Y-140652500D01*
X392823338Y-147002500D02*
X391096500Y-147002500D01*
X388937500Y-146621500D02*
X388937500Y-147002500D01*
X388937500Y-143192500D02*
X388937500Y-143573500D01*
X400367500Y-140652500D02*
X400367500Y-141033500D01*
X400367500Y-145097500D02*
X395287500Y-145097500D01*
X400367500Y-144081500D02*
X400367500Y-145097500D01*
X389318500Y-147002500D02*
X388937500Y-147002500D01*
X395287500Y-145097499D02*
G75*
G03*
X392823338Y-147021460I0J-2540000D01*
G01*
X391477500Y-140652500D02*
G75*
G03*
X388937500Y-143192500I1J-2540001D01*
G01*
%TO.C,K82*%
X298608750Y-245427500D02*
X307498750Y-245427500D01*
X307498750Y-248856500D02*
X307498750Y-249872500D01*
X296449750Y-251777500D02*
X296068750Y-251777500D01*
X307498750Y-245427500D02*
X307498750Y-245808500D01*
X296068750Y-251396500D02*
X296068750Y-251777500D01*
X299954588Y-251777500D02*
X298227750Y-251777500D01*
X296068750Y-247967500D02*
X296068750Y-248348500D01*
X307498750Y-249872500D02*
X302418750Y-249872500D01*
X298608750Y-245427500D02*
G75*
G03*
X296068750Y-247967500I1J-2540001D01*
G01*
X302418750Y-249872499D02*
G75*
G03*
X299954588Y-251796460I0J-2540000D01*
G01*
%TO.C,K89*%
X558006250Y-251396500D02*
X558006250Y-251777500D01*
X558006250Y-247967500D02*
X558006250Y-248348500D01*
X569436250Y-248856500D02*
X569436250Y-249872500D01*
X569436250Y-245427500D02*
X569436250Y-245808500D01*
X558387250Y-251777500D02*
X558006250Y-251777500D01*
X569436250Y-249872500D02*
X564356250Y-249872500D01*
X561892088Y-251777500D02*
X560165250Y-251777500D01*
X560546250Y-245427500D02*
X569436250Y-245427500D01*
X564356250Y-249872499D02*
G75*
G03*
X561892088Y-251796460I0J-2540000D01*
G01*
X560546250Y-245427500D02*
G75*
G03*
X558006250Y-247967500I1J-2540001D01*
G01*
%TO.C,K60*%
X433705000Y-207327500D02*
X433705000Y-207708500D01*
X433705000Y-211772500D02*
X428625000Y-211772500D01*
X433705000Y-210756500D02*
X433705000Y-211772500D01*
X424815000Y-207327500D02*
X433705000Y-207327500D01*
X426160838Y-213677500D02*
X424434000Y-213677500D01*
X422275000Y-213296500D02*
X422275000Y-213677500D01*
X422275000Y-209867500D02*
X422275000Y-210248500D01*
X422656000Y-213677500D02*
X422275000Y-213677500D01*
X424815000Y-207327500D02*
G75*
G03*
X422275000Y-209867500I1J-2540001D01*
G01*
X428625000Y-211772499D02*
G75*
G03*
X426160838Y-213696460I0J-2540000D01*
G01*
%TO.C,K76*%
X469900000Y-228917500D02*
X469900000Y-229298500D01*
X472440000Y-226377500D02*
X481330000Y-226377500D01*
X469900000Y-232346500D02*
X469900000Y-232727500D01*
X481330000Y-230822500D02*
X476250000Y-230822500D01*
X481330000Y-226377500D02*
X481330000Y-226758500D01*
X481330000Y-229806500D02*
X481330000Y-230822500D01*
X473785838Y-232727500D02*
X472059000Y-232727500D01*
X470281000Y-232727500D02*
X469900000Y-232727500D01*
X472440000Y-226377500D02*
G75*
G03*
X469900000Y-228917500I1J-2540001D01*
G01*
X476250000Y-230822499D02*
G75*
G03*
X473785838Y-232746460I0J-2540000D01*
G01*
D11*
%TO.C,D75*%
X373665625Y-242706250D02*
X373665625Y-238856250D01*
X373665625Y-242706250D02*
X371665625Y-242706250D01*
X371665625Y-242706250D02*
X371665625Y-238856250D01*
%TO.C,D61*%
X364140625Y-223656250D02*
X362140625Y-223656250D01*
X364140625Y-223656250D02*
X364140625Y-219806250D01*
X362140625Y-223656250D02*
X362140625Y-219806250D01*
%TO.C,D23*%
X311753125Y-185556250D02*
X309753125Y-185556250D01*
X309753125Y-185556250D02*
X309753125Y-181706250D01*
X311753125Y-185556250D02*
X311753125Y-181706250D01*
%TO.C,C10*%
X616405000Y-217728733D02*
X616405000Y-218071267D01*
X615385000Y-217728733D02*
X615385000Y-218071267D01*
%TO.C,D9*%
X385953125Y-156981250D02*
X385953125Y-153131250D01*
X387953125Y-156981250D02*
X387953125Y-153131250D01*
X387953125Y-156981250D02*
X385953125Y-156981250D01*
%TO.C,D70*%
X535590625Y-223656250D02*
X533590625Y-223656250D01*
X535590625Y-223656250D02*
X535590625Y-219806250D01*
X533590625Y-223656250D02*
X533590625Y-219806250D01*
%TO.C,C31*%
X258087483Y-223320459D02*
X258430017Y-223320459D01*
X258087483Y-222300459D02*
X258430017Y-222300459D01*
%TO.C,R23*%
X301908750Y-264490017D02*
X301908750Y-264147483D01*
X302928750Y-264490017D02*
X302928750Y-264147483D01*
%TO.C,D31*%
X462153125Y-185556250D02*
X462153125Y-181706250D01*
X464153125Y-185556250D02*
X464153125Y-181706250D01*
X464153125Y-185556250D02*
X462153125Y-185556250D01*
%TO.C,D50*%
X492728125Y-204606250D02*
X492728125Y-200756250D01*
X492728125Y-204606250D02*
X490728125Y-204606250D01*
X490728125Y-204606250D02*
X490728125Y-200756250D01*
%TO.C,R7*%
X611010000Y-222528733D02*
X611010000Y-222871267D01*
X609990000Y-222528733D02*
X609990000Y-222871267D01*
%TO.C,R31*%
X363960000Y-245440017D02*
X363960000Y-245097483D01*
X362940000Y-245440017D02*
X362940000Y-245097483D01*
%TO.C,R47*%
X456690000Y-245440017D02*
X456690000Y-245097483D01*
X457710000Y-245440017D02*
X457710000Y-245097483D01*
%TO.C,C27*%
X478681309Y-270455017D02*
X478681309Y-270112483D01*
X477661309Y-270455017D02*
X477661309Y-270112483D01*
%TO.C,R6*%
X284487024Y-136128733D02*
X284487024Y-136471267D01*
X285507024Y-136128733D02*
X285507024Y-136471267D01*
%TO.C,D80*%
X468915625Y-242706250D02*
X466915625Y-242706250D01*
X468915625Y-242706250D02*
X468915625Y-238856250D01*
X466915625Y-242706250D02*
X466915625Y-238856250D01*
%TO.C,C28*%
X421191138Y-270455017D02*
X421191138Y-270112483D01*
X420171138Y-270455017D02*
X420171138Y-270112483D01*
%TO.C,R44*%
X438660000Y-245440017D02*
X438660000Y-245097483D01*
X437640000Y-245440017D02*
X437640000Y-245097483D01*
%TO.C,D198*%
X598276651Y-127921250D02*
X590976651Y-127921250D01*
X590976651Y-133421250D02*
X590976651Y-132271250D01*
X598276651Y-133421250D02*
X590976651Y-133421250D01*
%TO.C,R43*%
X439140000Y-245440017D02*
X439140000Y-245097483D01*
X440160000Y-245440017D02*
X440160000Y-245097483D01*
%TO.C,C18*%
X447071267Y-252490000D02*
X446728733Y-252490000D01*
X447071267Y-253510000D02*
X446728733Y-253510000D01*
%TO.C,D25*%
X347853125Y-185556250D02*
X347853125Y-181706250D01*
X349853125Y-185556250D02*
X349853125Y-181706250D01*
X349853125Y-185556250D02*
X347853125Y-185556250D01*
%TO.C,D71*%
X266890625Y-242706250D02*
X266890625Y-238856250D01*
X268890625Y-242706250D02*
X268890625Y-238856250D01*
X268890625Y-242706250D02*
X266890625Y-242706250D01*
%TO.C,D202*%
X368315967Y-127921250D02*
X361015967Y-127921250D01*
X368315967Y-133421250D02*
X361015967Y-133421250D01*
X361015967Y-133421250D02*
X361015967Y-132271250D01*
%TO.C,D92*%
X530828125Y-261756250D02*
X530828125Y-257906250D01*
X528828125Y-261756250D02*
X528828125Y-257906250D01*
X530828125Y-261756250D02*
X528828125Y-261756250D01*
%TO.C,D52*%
X528828125Y-204606250D02*
X528828125Y-200756250D01*
X530828125Y-204606250D02*
X530828125Y-200756250D01*
X530828125Y-204606250D02*
X528828125Y-204606250D01*
%TO.C,R39*%
X398033750Y-245440017D02*
X398033750Y-245097483D01*
X399053750Y-245440017D02*
X399053750Y-245097483D01*
%TO.C,D37*%
X602265625Y-185556250D02*
X602265625Y-181706250D01*
X602265625Y-185556250D02*
X600265625Y-185556250D01*
X600265625Y-185556250D02*
X600265625Y-181706250D01*
%TO.C,R16*%
X447071267Y-253990000D02*
X446728733Y-253990000D01*
X447071267Y-255010000D02*
X446728733Y-255010000D01*
%TO.C,D8*%
X368903125Y-156981250D02*
X368903125Y-153131250D01*
X368903125Y-156981250D02*
X366903125Y-156981250D01*
X366903125Y-156981250D02*
X366903125Y-153131250D01*
%TO.C,D78*%
X428815625Y-242706250D02*
X428815625Y-238856250D01*
X430815625Y-242706250D02*
X430815625Y-238856250D01*
X430815625Y-242706250D02*
X428815625Y-242706250D01*
%TO.C,R54*%
X490908750Y-264490017D02*
X490908750Y-264147483D01*
X491928750Y-264490017D02*
X491928750Y-264147483D01*
%TO.C,C21*%
X394490000Y-269383767D02*
X394490000Y-269041233D01*
X395510000Y-269383767D02*
X395510000Y-269041233D01*
%TO.C,R19*%
X277215000Y-264490017D02*
X277215000Y-264147483D01*
X278235000Y-264490017D02*
X278235000Y-264147483D01*
%TO.C,D36*%
X583215625Y-185556250D02*
X581215625Y-185556250D01*
X581215625Y-185556250D02*
X581215625Y-181706250D01*
X583215625Y-185556250D02*
X583215625Y-181706250D01*
%TO.C,D89*%
X362140625Y-261756250D02*
X362140625Y-257906250D01*
X364140625Y-261756250D02*
X362140625Y-261756250D01*
X364140625Y-261756250D02*
X364140625Y-257906250D01*
%TO.C,C25*%
X592666651Y-270355017D02*
X592666651Y-270012483D01*
X593686651Y-270355017D02*
X593686651Y-270012483D01*
%TO.C,D85*%
X268890625Y-261756250D02*
X266890625Y-261756250D01*
X266890625Y-261756250D02*
X266890625Y-257906250D01*
X268890625Y-261756250D02*
X268890625Y-257906250D01*
%TO.C,R42*%
X419471250Y-264490017D02*
X419471250Y-264147483D01*
X420491250Y-264490017D02*
X420491250Y-264147483D01*
%TO.C,R41*%
X421991250Y-264490017D02*
X421991250Y-264147483D01*
X420971250Y-264490017D02*
X420971250Y-264147483D01*
%TO.C,D73*%
X335565625Y-242706250D02*
X335565625Y-238856250D01*
X335565625Y-242706250D02*
X333565625Y-242706250D01*
X333565625Y-242706250D02*
X333565625Y-238856250D01*
%TO.C,C30*%
X305190796Y-270455017D02*
X305190796Y-270112483D01*
X306210796Y-270455017D02*
X306210796Y-270112483D01*
%TO.C,D81*%
X487965625Y-242706250D02*
X485965625Y-242706250D01*
X485965625Y-242706250D02*
X485965625Y-238856250D01*
X487965625Y-242706250D02*
X487965625Y-238856250D01*
%TO.C,D203*%
X310825796Y-127921250D02*
X303525796Y-127921250D01*
X310825796Y-133421250D02*
X303525796Y-133421250D01*
X303525796Y-133421250D02*
X303525796Y-132271250D01*
%TO.C,D28*%
X407003125Y-185556250D02*
X405003125Y-185556250D01*
X407003125Y-185556250D02*
X407003125Y-181706250D01*
X405003125Y-185556250D02*
X405003125Y-181706250D01*
%TO.C,D86*%
X290703125Y-261756250D02*
X290703125Y-257906250D01*
X292703125Y-261756250D02*
X292703125Y-257906250D01*
X292703125Y-261756250D02*
X290703125Y-261756250D01*
%TO.C,C40*%
X646692517Y-228275459D02*
X646349983Y-228275459D01*
X646692517Y-229295459D02*
X646349983Y-229295459D01*
%TO.C,D79*%
X449865625Y-242706250D02*
X447865625Y-242706250D01*
X449865625Y-242706250D02*
X449865625Y-238856250D01*
X447865625Y-242706250D02*
X447865625Y-238856250D01*
%TO.C,U1*%
X611981250Y-271275625D02*
X614181250Y-271275625D01*
X611981250Y-264505625D02*
X609781250Y-264505625D01*
X611981250Y-264505625D02*
X615581250Y-264505625D01*
X611981250Y-271275625D02*
X609781250Y-271275625D01*
%TO.C,D13*%
X473678125Y-156981250D02*
X471678125Y-156981250D01*
X471678125Y-156981250D02*
X471678125Y-153131250D01*
X473678125Y-156981250D02*
X473678125Y-153131250D01*
%TO.C,D192*%
X479021309Y-272033750D02*
X486321309Y-272033750D01*
X486321309Y-266533750D02*
X486321309Y-267683750D01*
X479021309Y-266533750D02*
X486321309Y-266533750D01*
%TO.C,D46*%
X414528125Y-204606250D02*
X414528125Y-200756250D01*
X416528125Y-204606250D02*
X414528125Y-204606250D01*
X416528125Y-204606250D02*
X416528125Y-200756250D01*
%TO.C,D1*%
X593587500Y-213359375D02*
X589737500Y-213359375D01*
X593587500Y-211359375D02*
X589737500Y-211359375D01*
X593587500Y-211359375D02*
X593587500Y-213359375D01*
%TO.C,D205*%
X642771250Y-227935459D02*
X642771250Y-220635459D01*
X642771250Y-220635459D02*
X643921250Y-220635459D01*
X648271250Y-227935459D02*
X648271250Y-220635459D01*
%TO.C,R18*%
X399910000Y-269383767D02*
X399910000Y-269041233D01*
X398890000Y-269383767D02*
X398890000Y-269041233D01*
%TO.C,C20*%
X398466250Y-269383767D02*
X398466250Y-269041233D01*
X397446250Y-269383767D02*
X397446250Y-269041233D01*
%TO.C,D83*%
X526065625Y-242706250D02*
X524065625Y-242706250D01*
X526065625Y-242706250D02*
X526065625Y-238856250D01*
X524065625Y-242706250D02*
X524065625Y-238856250D01*
%TO.C,C36*%
X426146138Y-129499983D02*
X426146138Y-129842517D01*
X427166138Y-129499983D02*
X427166138Y-129842517D01*
%TO.C,D38*%
X621315625Y-185556250D02*
X621315625Y-181706250D01*
X621315625Y-185556250D02*
X619315625Y-185556250D01*
X619315625Y-185556250D02*
X619315625Y-181706250D01*
%TO.C,D41*%
X319278125Y-204606250D02*
X319278125Y-200756250D01*
X321278125Y-204606250D02*
X319278125Y-204606250D01*
X321278125Y-204606250D02*
X321278125Y-200756250D01*
D12*
%TO.C,U5*%
X395003479Y-257361181D02*
G75*
G03*
X395003479Y-257361181I-100000J0D01*
G01*
D11*
%TO.C,C26*%
X536171480Y-270455017D02*
X536171480Y-270112483D01*
X535151480Y-270455017D02*
X535151480Y-270112483D01*
%TO.C,D20*%
X621315625Y-156981250D02*
X621315625Y-153131250D01*
X621315625Y-156981250D02*
X619315625Y-156981250D01*
X619315625Y-156981250D02*
X619315625Y-153131250D01*
%TO.C,D58*%
X292703125Y-223656250D02*
X292703125Y-219806250D01*
X290703125Y-223656250D02*
X290703125Y-219806250D01*
X292703125Y-223656250D02*
X290703125Y-223656250D01*
%TO.C,D82*%
X507015625Y-242706250D02*
X507015625Y-238856250D01*
X507015625Y-242706250D02*
X505015625Y-242706250D01*
X505015625Y-242706250D02*
X505015625Y-238856250D01*
%TO.C,D93*%
X554640625Y-261756250D02*
X552640625Y-261756250D01*
X552640625Y-261756250D02*
X552640625Y-257906250D01*
X554640625Y-261756250D02*
X554640625Y-257906250D01*
%TO.C,C35*%
X484656309Y-129499983D02*
X484656309Y-129842517D01*
X483636309Y-129499983D02*
X483636309Y-129842517D01*
%TO.C,R55*%
X518741250Y-264490017D02*
X518741250Y-264147483D01*
X517721250Y-264490017D02*
X517721250Y-264147483D01*
%TO.C,R4*%
X282768291Y-137710000D02*
X282425757Y-137710000D01*
X282768291Y-136690000D02*
X282425757Y-136690000D01*
%TO.C,D19*%
X602265625Y-156981250D02*
X600265625Y-156981250D01*
X600265625Y-156981250D02*
X600265625Y-153131250D01*
X602265625Y-156981250D02*
X602265625Y-153131250D01*
%TO.C,D87*%
X314515625Y-261756250D02*
X314515625Y-257906250D01*
X316515625Y-261756250D02*
X316515625Y-257906250D01*
X316515625Y-261756250D02*
X314515625Y-261756250D01*
%TO.C,C16*%
X601871267Y-217510000D02*
X601528733Y-217510000D01*
X601871267Y-216490000D02*
X601528733Y-216490000D01*
%TO.C,C12*%
X600390000Y-211971267D02*
X600390000Y-211628733D01*
X601410000Y-211971267D02*
X601410000Y-211628733D01*
%TO.C,C24*%
X391010000Y-269371267D02*
X391010000Y-269028733D01*
X389990000Y-269371267D02*
X389990000Y-269028733D01*
%TO.C,D60*%
X345090625Y-223656250D02*
X345090625Y-219806250D01*
X343090625Y-223656250D02*
X343090625Y-219806250D01*
X345090625Y-223656250D02*
X343090625Y-223656250D01*
%TO.C,D88*%
X340328125Y-261756250D02*
X338328125Y-261756250D01*
X340328125Y-261756250D02*
X340328125Y-257906250D01*
X338328125Y-261756250D02*
X338328125Y-257906250D01*
%TO.C,D65*%
X438340625Y-223656250D02*
X438340625Y-219806250D01*
X440340625Y-223656250D02*
X440340625Y-219806250D01*
X440340625Y-223656250D02*
X438340625Y-223656250D01*
%TO.C,R29*%
X349533750Y-264490017D02*
X349533750Y-264147483D01*
X350553750Y-264490017D02*
X350553750Y-264147483D01*
%TO.C,D39*%
X268890625Y-204606250D02*
X266890625Y-204606250D01*
X268890625Y-204606250D02*
X268890625Y-200756250D01*
X266890625Y-204606250D02*
X266890625Y-200756250D01*
%TO.C,D94*%
X581215625Y-261756250D02*
X581215625Y-257906250D01*
X583215625Y-261756250D02*
X581215625Y-261756250D01*
X583215625Y-261756250D02*
X583215625Y-257906250D01*
%TO.C,D44*%
X378428125Y-204606250D02*
X376428125Y-204606250D01*
X378428125Y-204606250D02*
X378428125Y-200756250D01*
X376428125Y-204606250D02*
X376428125Y-200756250D01*
%TO.C,D32*%
X483203125Y-185556250D02*
X483203125Y-181706250D01*
X481203125Y-185556250D02*
X481203125Y-181706250D01*
X483203125Y-185556250D02*
X481203125Y-185556250D01*
%TO.C,D6*%
X330803125Y-156981250D02*
X328803125Y-156981250D01*
X328803125Y-156981250D02*
X328803125Y-153131250D01*
X330803125Y-156981250D02*
X330803125Y-153131250D01*
%TO.C,D68*%
X497490625Y-223656250D02*
X495490625Y-223656250D01*
X497490625Y-223656250D02*
X497490625Y-219806250D01*
X495490625Y-223656250D02*
X495490625Y-219806250D01*
%TO.C,R27*%
X324221250Y-264490017D02*
X324221250Y-264147483D01*
X325241250Y-264490017D02*
X325241250Y-264147483D01*
%TO.C,C29*%
X363700967Y-270455017D02*
X363700967Y-270112483D01*
X362680967Y-270455017D02*
X362680967Y-270112483D01*
%TO.C,R30*%
X348033750Y-264490017D02*
X348033750Y-264147483D01*
X349053750Y-264490017D02*
X349053750Y-264147483D01*
%TO.C,D191*%
X543811480Y-266533750D02*
X543811480Y-267683750D01*
X536511480Y-266533750D02*
X543811480Y-266533750D01*
X536511480Y-272033750D02*
X543811480Y-272033750D01*
%TO.C,R5*%
X284487024Y-133171267D02*
X284487024Y-132828733D01*
X285507024Y-133171267D02*
X285507024Y-132828733D01*
%TO.C,SW1*%
X582080000Y-213260000D02*
X582080000Y-215340000D01*
X583350000Y-217020000D02*
X586250000Y-217020000D01*
X586250000Y-217020000D02*
X586740000Y-216530000D01*
X583350000Y-211580000D02*
X582860000Y-212070000D01*
X587520000Y-213260000D02*
X587520000Y-215340000D01*
X586250000Y-211580000D02*
X586740000Y-212070000D01*
X583350000Y-211580000D02*
X586250000Y-211580000D01*
X583350000Y-217020000D02*
X582860000Y-216530000D01*
%TO.C,D197*%
X262008750Y-172066792D02*
X262008750Y-179366792D01*
X262008750Y-179366792D02*
X260858750Y-179366792D01*
X256508750Y-172066792D02*
X256508750Y-179366792D01*
%TO.C,D91*%
X507015625Y-261756250D02*
X505015625Y-261756250D01*
X505015625Y-261756250D02*
X505015625Y-257906250D01*
X507015625Y-261756250D02*
X507015625Y-257906250D01*
%TO.C,D34*%
X521303125Y-185556250D02*
X519303125Y-185556250D01*
X521303125Y-185556250D02*
X521303125Y-181706250D01*
X519303125Y-185556250D02*
X519303125Y-181706250D01*
%TO.C,R51*%
X475260000Y-245440017D02*
X475260000Y-245097483D01*
X474240000Y-245440017D02*
X474240000Y-245097483D01*
%TO.C,R49*%
X478260000Y-245440017D02*
X478260000Y-245097483D01*
X477240000Y-245440017D02*
X477240000Y-245097483D01*
%TO.C,C11*%
X601890000Y-211971267D02*
X601890000Y-211628733D01*
X602910000Y-211971267D02*
X602910000Y-211628733D01*
%TO.C,D63*%
X402240625Y-223656250D02*
X402240625Y-219806250D01*
X402240625Y-223656250D02*
X400240625Y-223656250D01*
X400240625Y-223656250D02*
X400240625Y-219806250D01*
%TO.C,C33*%
X599636651Y-129499983D02*
X599636651Y-129842517D01*
X598616651Y-129499983D02*
X598616651Y-129842517D01*
%TO.C,C15*%
X614971267Y-210010000D02*
X614628733Y-210010000D01*
X614971267Y-208990000D02*
X614628733Y-208990000D01*
%TO.C,C34*%
X542146480Y-129499983D02*
X542146480Y-129842517D01*
X541126480Y-129499983D02*
X541126480Y-129842517D01*
%TO.C,D27*%
X387953125Y-185556250D02*
X385953125Y-185556250D01*
X385953125Y-185556250D02*
X385953125Y-181706250D01*
X387953125Y-185556250D02*
X387953125Y-181706250D01*
%TO.C,D199*%
X540786480Y-133421250D02*
X533486480Y-133421250D01*
X540786480Y-127921250D02*
X533486480Y-127921250D01*
X533486480Y-133421250D02*
X533486480Y-132271250D01*
%TO.C,R48*%
X456210000Y-245440017D02*
X456210000Y-245097483D01*
X455190000Y-245440017D02*
X455190000Y-245097483D01*
%TO.C,D17*%
X559403125Y-156981250D02*
X559403125Y-153131250D01*
X557403125Y-156981250D02*
X557403125Y-153131250D01*
X559403125Y-156981250D02*
X557403125Y-156981250D01*
%TO.C,D10*%
X414528125Y-156981250D02*
X414528125Y-153131250D01*
X416528125Y-156981250D02*
X414528125Y-156981250D01*
X416528125Y-156981250D02*
X416528125Y-153131250D01*
%TO.C,R35*%
X380490000Y-245440017D02*
X380490000Y-245097483D01*
X381510000Y-245440017D02*
X381510000Y-245097483D01*
%TO.C,D64*%
X421290625Y-223656250D02*
X421290625Y-219806250D01*
X421290625Y-223656250D02*
X419290625Y-223656250D01*
X419290625Y-223656250D02*
X419290625Y-219806250D01*
%TO.C,D90*%
X481203125Y-261756250D02*
X481203125Y-257906250D01*
X483203125Y-261756250D02*
X483203125Y-257906250D01*
X483203125Y-261756250D02*
X481203125Y-261756250D01*
%TO.C,D201*%
X418506138Y-133421250D02*
X418506138Y-132271250D01*
X425806138Y-127921250D02*
X418506138Y-127921250D01*
X425806138Y-133421250D02*
X418506138Y-133421250D01*
%TO.C,D69*%
X516540625Y-223656250D02*
X516540625Y-219806250D01*
X516540625Y-223656250D02*
X514540625Y-223656250D01*
X514540625Y-223656250D02*
X514540625Y-219806250D01*
%TO.C,D67*%
X478440625Y-223656250D02*
X478440625Y-219806250D01*
X476440625Y-223656250D02*
X476440625Y-219806250D01*
X478440625Y-223656250D02*
X476440625Y-223656250D01*
%TO.C,D76*%
X392715625Y-242706250D02*
X392715625Y-238856250D01*
X390715625Y-242706250D02*
X390715625Y-238856250D01*
X392715625Y-242706250D02*
X390715625Y-242706250D01*
%TO.C,R37*%
X402060000Y-245440017D02*
X402060000Y-245097483D01*
X401040000Y-245440017D02*
X401040000Y-245097483D01*
%TO.C,D84*%
X600265625Y-242706250D02*
X600265625Y-238856250D01*
X602265625Y-242706250D02*
X600265625Y-242706250D01*
X602265625Y-242706250D02*
X602265625Y-238856250D01*
%TO.C,C9*%
X613885000Y-217728733D02*
X613885000Y-218071267D01*
X614905000Y-217728733D02*
X614905000Y-218071267D01*
%TO.C,D45*%
X395478125Y-204606250D02*
X395478125Y-200756250D01*
X397478125Y-204606250D02*
X397478125Y-200756250D01*
X397478125Y-204606250D02*
X395478125Y-204606250D01*
%TO.C,R15*%
X447071267Y-258010000D02*
X446728733Y-258010000D01*
X447071267Y-256990000D02*
X446728733Y-256990000D01*
%TO.C,R3*%
X282425757Y-133390000D02*
X282768291Y-133390000D01*
X282425757Y-134410000D02*
X282768291Y-134410000D01*
%TO.C,R38*%
X400560000Y-245440017D02*
X400560000Y-245097483D01*
X399540000Y-245440017D02*
X399540000Y-245097483D01*
%TO.C,D95*%
X602265625Y-261756250D02*
X602265625Y-257906250D01*
X602265625Y-261756250D02*
X600265625Y-261756250D01*
X600265625Y-261756250D02*
X600265625Y-257906250D01*
%TO.C,R14*%
X447071267Y-252010000D02*
X446728733Y-252010000D01*
X447071267Y-250990000D02*
X446728733Y-250990000D01*
%TO.C,D5*%
X290703125Y-156981250D02*
X290703125Y-153131250D01*
X292703125Y-156981250D02*
X292703125Y-153131250D01*
X292703125Y-156981250D02*
X290703125Y-156981250D01*
%TO.C,D42*%
X340328125Y-204606250D02*
X340328125Y-200756250D01*
X340328125Y-204606250D02*
X338328125Y-204606250D01*
X338328125Y-204606250D02*
X338328125Y-200756250D01*
%TO.C,U2*%
X606465000Y-210702500D02*
X605990000Y-210702500D01*
X612735000Y-217922500D02*
X613210000Y-217922500D01*
X612735000Y-210702500D02*
X613210000Y-210702500D01*
X613210000Y-217922500D02*
X613210000Y-217447500D01*
X606465000Y-217922500D02*
X605990000Y-217922500D01*
X605990000Y-210702500D02*
X605990000Y-211177500D01*
X613210000Y-210702500D02*
X613210000Y-211177500D01*
%TO.C,C2*%
X595897500Y-211188108D02*
X595897500Y-211530642D01*
X594877500Y-211188108D02*
X594877500Y-211530642D01*
%TO.C,D49*%
X471678125Y-204606250D02*
X471678125Y-200756250D01*
X473678125Y-204606250D02*
X473678125Y-200756250D01*
X473678125Y-204606250D02*
X471678125Y-204606250D01*
%TO.C,R52*%
X493908750Y-264490017D02*
X493908750Y-264147483D01*
X494928750Y-264490017D02*
X494928750Y-264147483D01*
%TO.C,D21*%
X266890625Y-185556250D02*
X266890625Y-181706250D01*
X268890625Y-185556250D02*
X266890625Y-185556250D01*
X268890625Y-185556250D02*
X268890625Y-181706250D01*
%TO.C,R22*%
X303408750Y-264490017D02*
X303408750Y-264147483D01*
X304428750Y-264490017D02*
X304428750Y-264147483D01*
%TO.C,C22*%
X394010000Y-269383767D02*
X394010000Y-269041233D01*
X392990000Y-269383767D02*
X392990000Y-269041233D01*
%TO.C,D74*%
X354615625Y-242706250D02*
X352615625Y-242706250D01*
X354615625Y-242706250D02*
X354615625Y-238856250D01*
X352615625Y-242706250D02*
X352615625Y-238856250D01*
%TO.C,C39*%
X646692517Y-177701792D02*
X646349983Y-177701792D01*
X646692517Y-176681792D02*
X646349983Y-176681792D01*
%TO.C,D55*%
X602265625Y-204606250D02*
X600265625Y-204606250D01*
X600265625Y-204606250D02*
X600265625Y-200756250D01*
X602265625Y-204606250D02*
X602265625Y-200756250D01*
%TO.C,D26*%
X368903125Y-185556250D02*
X366903125Y-185556250D01*
X368903125Y-185556250D02*
X368903125Y-181706250D01*
X366903125Y-185556250D02*
X366903125Y-181706250D01*
%TO.C,Q1*%
X591960000Y-216184375D02*
X591960000Y-217594375D01*
X591300000Y-217594375D02*
X591960000Y-217594375D01*
X589640000Y-217594375D02*
X589640000Y-214859375D01*
X589630000Y-217594375D02*
X590300000Y-217594375D01*
%TO.C,D11*%
X433578125Y-156981250D02*
X433578125Y-153131250D01*
X435578125Y-156981250D02*
X433578125Y-156981250D01*
X435578125Y-156981250D02*
X435578125Y-153131250D01*
%TO.C,R25*%
X327221250Y-264490017D02*
X327221250Y-264147483D01*
X328241250Y-264490017D02*
X328241250Y-264147483D01*
%TO.C,C5*%
X282768291Y-132610000D02*
X282425757Y-132610000D01*
X282768291Y-131590000D02*
X282425757Y-131590000D01*
%TO.C,D15*%
X519303125Y-157091875D02*
X519303125Y-153241875D01*
X521303125Y-157091875D02*
X519303125Y-157091875D01*
X521303125Y-157091875D02*
X521303125Y-153241875D01*
%TO.C,C1*%
X594310000Y-219530642D02*
X594310000Y-219188108D01*
X593290000Y-219530642D02*
X593290000Y-219188108D01*
%TO.C,C19*%
X395990000Y-269383767D02*
X395990000Y-269041233D01*
X397010000Y-269383767D02*
X397010000Y-269041233D01*
%TO.C,D12*%
X454628125Y-156981250D02*
X452628125Y-156981250D01*
X454628125Y-156981250D02*
X454628125Y-153131250D01*
X452628125Y-156981250D02*
X452628125Y-153131250D01*
%TO.C,R28*%
X352053750Y-264490017D02*
X352053750Y-264147483D01*
X351033750Y-264490017D02*
X351033750Y-264147483D01*
%TO.C,D4*%
X268890625Y-156981250D02*
X268890625Y-153131250D01*
X268890625Y-156981250D02*
X266890625Y-156981250D01*
X266890625Y-156981250D02*
X266890625Y-153131250D01*
%TO.C,D193*%
X421531138Y-266533750D02*
X428831138Y-266533750D01*
X428831138Y-266533750D02*
X428831138Y-267683750D01*
X421531138Y-272033750D02*
X428831138Y-272033750D01*
%TO.C,R40*%
X422471250Y-264490017D02*
X422471250Y-264147483D01*
X423491250Y-264490017D02*
X423491250Y-264147483D01*
%TO.C,D18*%
X581215625Y-156981250D02*
X581215625Y-153131250D01*
X583215625Y-156981250D02*
X583215625Y-153131250D01*
X583215625Y-156981250D02*
X581215625Y-156981250D01*
%TO.C,C17*%
X601871267Y-216010000D02*
X601528733Y-216010000D01*
X601871267Y-214990000D02*
X601528733Y-214990000D01*
%TO.C,R56*%
X517241250Y-264490017D02*
X517241250Y-264147483D01*
X516221250Y-264490017D02*
X516221250Y-264147483D01*
%TO.C,C38*%
X312185796Y-129499983D02*
X312185796Y-129842517D01*
X311165796Y-129499983D02*
X311165796Y-129842517D01*
%TO.C,C23*%
X391490000Y-269383767D02*
X391490000Y-269041233D01*
X392510000Y-269383767D02*
X392510000Y-269041233D01*
%TO.C,R57*%
X515741250Y-264490017D02*
X515741250Y-264147483D01*
X514721250Y-264490017D02*
X514721250Y-264147483D01*
%TO.C,D195*%
X306550796Y-272033750D02*
X313850796Y-272033750D01*
X313850796Y-266533750D02*
X313850796Y-267683750D01*
X306550796Y-266533750D02*
X313850796Y-266533750D01*
%TO.C,D48*%
X454628125Y-204606250D02*
X452628125Y-204606250D01*
X454628125Y-204606250D02*
X454628125Y-200756250D01*
X452628125Y-204606250D02*
X452628125Y-200756250D01*
%TO.C,R1*%
X596377500Y-211530642D02*
X596377500Y-211188108D01*
X597397500Y-211530642D02*
X597397500Y-211188108D01*
%TO.C,R20*%
X276735000Y-264490017D02*
X276735000Y-264147483D01*
X275715000Y-264490017D02*
X275715000Y-264147483D01*
%TO.C,D35*%
X540353125Y-185556250D02*
X540353125Y-181706250D01*
X538353125Y-185556250D02*
X538353125Y-181706250D01*
X540353125Y-185556250D02*
X538353125Y-185556250D01*
%TO.C,R26*%
X326741250Y-264490017D02*
X326741250Y-264147483D01*
X325721250Y-264490017D02*
X325721250Y-264147483D01*
%TO.C,D204*%
X648271250Y-176341792D02*
X648271250Y-169041792D01*
X642771250Y-176341792D02*
X642771250Y-169041792D01*
X642771250Y-169041792D02*
X643921250Y-169041792D01*
%TO.C,D72*%
X292703125Y-242706250D02*
X290703125Y-242706250D01*
X292703125Y-242706250D02*
X292703125Y-238856250D01*
X290703125Y-242706250D02*
X290703125Y-238856250D01*
%TO.C,D30*%
X445103125Y-185556250D02*
X445103125Y-181706250D01*
X443103125Y-185556250D02*
X443103125Y-181706250D01*
X445103125Y-185556250D02*
X443103125Y-185556250D01*
%TO.C,D43*%
X359378125Y-204606250D02*
X357378125Y-204606250D01*
X357378125Y-204606250D02*
X357378125Y-200756250D01*
X359378125Y-204606250D02*
X359378125Y-200756250D01*
%TO.C,D33*%
X502253125Y-185556250D02*
X502253125Y-181706250D01*
X502253125Y-185556250D02*
X500253125Y-185556250D01*
X500253125Y-185556250D02*
X500253125Y-181706250D01*
%TO.C,D196*%
X256508750Y-223660459D02*
X256508750Y-230960459D01*
X262008750Y-230960459D02*
X260858750Y-230960459D01*
X262008750Y-223660459D02*
X262008750Y-230960459D01*
%TO.C,D57*%
X266890625Y-223656250D02*
X266890625Y-219806250D01*
X268890625Y-223656250D02*
X268890625Y-219806250D01*
X268890625Y-223656250D02*
X266890625Y-223656250D01*
%TO.C,R45*%
X436140000Y-245440017D02*
X436140000Y-245097483D01*
X437160000Y-245440017D02*
X437160000Y-245097483D01*
%TO.C,D194*%
X364040967Y-272033750D02*
X371340967Y-272033750D01*
X364040967Y-266533750D02*
X371340967Y-266533750D01*
X371340967Y-266533750D02*
X371340967Y-267683750D01*
%TO.C,D66*%
X459390625Y-223656250D02*
X457390625Y-223656250D01*
X457390625Y-223656250D02*
X457390625Y-219806250D01*
X459390625Y-223656250D02*
X459390625Y-219806250D01*
%TO.C,D190*%
X593976651Y-272033750D02*
X601276651Y-272033750D01*
X601276651Y-266533750D02*
X601276651Y-267683750D01*
X593976651Y-266533750D02*
X601276651Y-266533750D01*
%TO.C,C37*%
X369675967Y-129499983D02*
X369675967Y-129842517D01*
X368655967Y-129499983D02*
X368655967Y-129842517D01*
%TO.C,R36*%
X378990000Y-245440017D02*
X378990000Y-245097483D01*
X380010000Y-245440017D02*
X380010000Y-245097483D01*
%TO.C,D59*%
X326040625Y-223656250D02*
X324040625Y-223656250D01*
X326040625Y-223656250D02*
X326040625Y-219806250D01*
X324040625Y-223656250D02*
X324040625Y-219806250D01*
%TO.C,D7*%
X349853125Y-156981250D02*
X349853125Y-153131250D01*
X349853125Y-156981250D02*
X347853125Y-156981250D01*
X347853125Y-156981250D02*
X347853125Y-153131250D01*
%TO.C,D96*%
X619315625Y-261756250D02*
X619315625Y-257906250D01*
X621315625Y-261756250D02*
X619315625Y-261756250D01*
X621315625Y-261756250D02*
X621315625Y-257906250D01*
%TO.C,D22*%
X292703125Y-185556250D02*
X290703125Y-185556250D01*
X290703125Y-185556250D02*
X290703125Y-181706250D01*
X292703125Y-185556250D02*
X292703125Y-181706250D01*
%TO.C,R33*%
X359940000Y-245440017D02*
X359940000Y-245097483D01*
X360960000Y-245440017D02*
X360960000Y-245097483D01*
%TO.C,D16*%
X538353125Y-156981250D02*
X538353125Y-153131250D01*
X540353125Y-156981250D02*
X540353125Y-153131250D01*
X540353125Y-156981250D02*
X538353125Y-156981250D01*
%TO.C,D200*%
X483296309Y-127921250D02*
X475996309Y-127921250D01*
X483296309Y-133421250D02*
X475996309Y-133421250D01*
X475996309Y-133421250D02*
X475996309Y-132271250D01*
%TO.C,R21*%
X275235000Y-264490017D02*
X275235000Y-264147483D01*
X274215000Y-264490017D02*
X274215000Y-264147483D01*
%TO.C,C6*%
X282425757Y-134890000D02*
X282768291Y-134890000D01*
X282425757Y-135910000D02*
X282768291Y-135910000D01*
%TO.C,R34*%
X381990000Y-245440017D02*
X381990000Y-245097483D01*
X383010000Y-245440017D02*
X383010000Y-245097483D01*
%TO.C,D51*%
X511778125Y-204606250D02*
X509778125Y-204606250D01*
X509778125Y-204606250D02*
X509778125Y-200756250D01*
X511778125Y-204606250D02*
X511778125Y-200756250D01*
%TO.C,D56*%
X621315625Y-204606250D02*
X621315625Y-200756250D01*
X621315625Y-204606250D02*
X619315625Y-204606250D01*
X619315625Y-204606250D02*
X619315625Y-200756250D01*
%TO.C,D29*%
X426053125Y-185556250D02*
X426053125Y-181706250D01*
X426053125Y-185556250D02*
X424053125Y-185556250D01*
X424053125Y-185556250D02*
X424053125Y-181706250D01*
%TO.C,C14*%
X605671267Y-218590000D02*
X605328733Y-218590000D01*
X605671267Y-219610000D02*
X605328733Y-219610000D01*
%TO.C,R53*%
X493428750Y-264490017D02*
X493428750Y-264147483D01*
X492408750Y-264490017D02*
X492408750Y-264147483D01*
%TO.C,D47*%
X435578125Y-204606250D02*
X435578125Y-200756250D01*
X435578125Y-204606250D02*
X433578125Y-204606250D01*
X433578125Y-204606250D02*
X433578125Y-200756250D01*
%TO.C,R8*%
X609510000Y-222871267D02*
X609510000Y-222528733D01*
X608490000Y-222871267D02*
X608490000Y-222528733D01*
%TO.C,D24*%
X330803125Y-185556250D02*
X328803125Y-185556250D01*
X328803125Y-185556250D02*
X328803125Y-181706250D01*
X330803125Y-185556250D02*
X330803125Y-181706250D01*
%TO.C,D54*%
X581215625Y-204606250D02*
X581215625Y-200756250D01*
X583215625Y-204606250D02*
X583215625Y-200756250D01*
X583215625Y-204606250D02*
X581215625Y-204606250D01*
%TO.C,R32*%
X362460000Y-245440017D02*
X362460000Y-245097483D01*
X361440000Y-245440017D02*
X361440000Y-245097483D01*
%TO.C,D40*%
X292703125Y-204606250D02*
X290703125Y-204606250D01*
X290703125Y-204606250D02*
X290703125Y-200756250D01*
X292703125Y-204606250D02*
X292703125Y-200756250D01*
%TO.C,D14*%
X502253125Y-156981250D02*
X502253125Y-153131250D01*
X500253125Y-156981250D02*
X500253125Y-153131250D01*
X502253125Y-156981250D02*
X500253125Y-156981250D01*
%TO.C,R24*%
X301428750Y-264490017D02*
X301428750Y-264147483D01*
X300408750Y-264490017D02*
X300408750Y-264147483D01*
%TO.C,D77*%
X409765625Y-242706250D02*
X409765625Y-238856250D01*
X411765625Y-242706250D02*
X409765625Y-242706250D01*
X411765625Y-242706250D02*
X411765625Y-238856250D01*
%TO.C,R17*%
X447071267Y-256510000D02*
X446728733Y-256510000D01*
X447071267Y-255490000D02*
X446728733Y-255490000D01*
%TO.C,C32*%
X258087483Y-171726792D02*
X258430017Y-171726792D01*
X258087483Y-170706792D02*
X258430017Y-170706792D01*
%TO.C,R50*%
X475740000Y-245440017D02*
X475740000Y-245097483D01*
X476760000Y-245440017D02*
X476760000Y-245097483D01*
%TO.C,R46*%
X458190000Y-245440017D02*
X458190000Y-245097483D01*
X459210000Y-245440017D02*
X459210000Y-245097483D01*
%TO.C,D53*%
X547878125Y-204606250D02*
X547878125Y-200756250D01*
X549878125Y-204606250D02*
X547878125Y-204606250D01*
X549878125Y-204606250D02*
X549878125Y-200756250D01*
%TO.C,D62*%
X381190625Y-223656250D02*
X381190625Y-219806250D01*
X383190625Y-223656250D02*
X381190625Y-223656250D01*
X383190625Y-223656250D02*
X383190625Y-219806250D01*
%TD*%
%LPC*%
D13*
%TO.C,K62*%
X469265000Y-209232500D03*
D14*
X471805000Y-214312500D03*
D13*
X462915000Y-211772500D03*
D15*
X466725000Y-214312500D03*
D14*
X461645000Y-214312500D03*
D16*
X473015000Y-209232500D03*
X459165000Y-211772500D03*
%TD*%
D15*
%TO.C,K83*%
X326231250Y-252412500D03*
D13*
X328771250Y-247332500D03*
X322421250Y-249872500D03*
D14*
X321151250Y-252412500D03*
X331311250Y-252412500D03*
D16*
X332521250Y-247332500D03*
X318671250Y-249872500D03*
%TD*%
D14*
%TO.C,K42*%
X428942500Y-195262500D03*
D13*
X420052500Y-192722500D03*
X426402500Y-190182500D03*
D14*
X418782500Y-195262500D03*
D15*
X423862500Y-195262500D03*
D16*
X430152500Y-190182500D03*
X416302500Y-192722500D03*
%TD*%
D14*
%TO.C,K81*%
X271145000Y-252412500D03*
D15*
X276225000Y-252412500D03*
D14*
X281305000Y-252412500D03*
D13*
X278765000Y-247332500D03*
X272415000Y-249872500D03*
D16*
X282515000Y-247332500D03*
X268665000Y-249872500D03*
%TD*%
D15*
%TO.C,K2*%
X338137500Y-147637500D03*
D14*
X333057500Y-147637500D03*
D13*
X340677500Y-142557500D03*
X334327500Y-145097500D03*
D14*
X343217500Y-147637500D03*
D16*
X344427500Y-142557500D03*
X330577500Y-145097500D03*
%TD*%
D14*
%TO.C,K71*%
X386080000Y-233362500D03*
D13*
X383540000Y-228282500D03*
D15*
X381000000Y-233362500D03*
D13*
X377190000Y-230822500D03*
D14*
X375920000Y-233362500D03*
D16*
X387290000Y-228282500D03*
X373440000Y-230822500D03*
%TD*%
D14*
%TO.C,K31*%
X552132500Y-176212500D03*
X562292500Y-176212500D03*
D15*
X545274500Y-184467500D03*
D13*
X553402500Y-173672500D03*
X559752500Y-171132500D03*
D17*
X569150500Y-169227500D03*
X545274500Y-169227500D03*
D15*
X569150500Y-184467500D03*
X557212500Y-176212500D03*
D16*
X563502500Y-171132500D03*
X549652500Y-173672500D03*
%TD*%
D13*
%TO.C,K3*%
X353377500Y-145097500D03*
D14*
X352107500Y-147637500D03*
D15*
X357187500Y-147637500D03*
D13*
X359727500Y-142557500D03*
D14*
X362267500Y-147637500D03*
D16*
X363477500Y-142557500D03*
X349627500Y-145097500D03*
%TD*%
D14*
%TO.C,K12*%
X542607500Y-147637500D03*
D13*
X543877500Y-145097500D03*
D15*
X547687500Y-147637500D03*
D13*
X550227500Y-142557500D03*
D14*
X552767500Y-147637500D03*
D16*
X553977500Y-142557500D03*
X540127500Y-145097500D03*
%TD*%
D13*
%TO.C,K45*%
X483552500Y-190182500D03*
X477202500Y-192722500D03*
D15*
X481012500Y-195262500D03*
D14*
X475932500Y-195262500D03*
X486092500Y-195262500D03*
D16*
X487302500Y-190182500D03*
X473452500Y-192722500D03*
%TD*%
D13*
%TO.C,K41*%
X401002500Y-192722500D03*
D14*
X399732500Y-195262500D03*
D15*
X404812500Y-195262500D03*
D13*
X407352500Y-190182500D03*
D14*
X409892500Y-195262500D03*
D16*
X411102500Y-190182500D03*
X397252500Y-192722500D03*
%TD*%
D15*
%TO.C,K28*%
X490537500Y-176212500D03*
D14*
X485457500Y-176212500D03*
X495617500Y-176212500D03*
D13*
X493077500Y-171132500D03*
X486727500Y-173672500D03*
D16*
X496827500Y-171132500D03*
X482977500Y-173672500D03*
%TD*%
D15*
%TO.C,K44*%
X461962500Y-195262500D03*
D13*
X464502500Y-190182500D03*
X458152500Y-192722500D03*
D14*
X467042500Y-195262500D03*
X456882500Y-195262500D03*
D16*
X468252500Y-190182500D03*
X454402500Y-192722500D03*
%TD*%
D14*
%TO.C,K4*%
X371157500Y-147637500D03*
D15*
X376237500Y-147637500D03*
D13*
X372427500Y-145097500D03*
D14*
X381317500Y-147637500D03*
D13*
X378777500Y-142557500D03*
D16*
X382527500Y-142557500D03*
X368677500Y-145097500D03*
%TD*%
D18*
%TO.C,H3*%
X259556250Y-269081250D03*
D19*
X259556250Y-269081250D03*
%TD*%
D14*
%TO.C,K74*%
X433070000Y-233362500D03*
D15*
X438150000Y-233362500D03*
D13*
X440690000Y-228282500D03*
X434340000Y-230822500D03*
D14*
X443230000Y-233362500D03*
D16*
X444440000Y-228282500D03*
X430590000Y-230822500D03*
%TD*%
D13*
%TO.C,K9*%
X483552500Y-142557500D03*
D14*
X475932500Y-147637500D03*
D15*
X481012500Y-147637500D03*
D14*
X486092500Y-147637500D03*
D13*
X477202500Y-145097500D03*
D16*
X487302500Y-142557500D03*
X473452500Y-145097500D03*
%TD*%
D18*
%TO.C,H4*%
X645318750Y-269081250D03*
D19*
X645318750Y-269081250D03*
%TD*%
D14*
%TO.C,K90*%
X585470000Y-252412500D03*
D13*
X593090000Y-247332500D03*
D15*
X590550000Y-252412500D03*
D14*
X595630000Y-252412500D03*
D13*
X586740000Y-249872500D03*
D16*
X596840000Y-247332500D03*
X582990000Y-249872500D03*
%TD*%
D20*
%TO.C,J1*%
X627459375Y-209550000D03*
D21*
X629999375Y-209550000D03*
X627459375Y-212090000D03*
X629999375Y-212090000D03*
X627459375Y-214630000D03*
X629999375Y-214630000D03*
X627459375Y-217170000D03*
X629999375Y-217170000D03*
X627459375Y-219710000D03*
X629999375Y-219710000D03*
%TD*%
D14*
%TO.C,K36*%
X299720000Y-195262500D03*
X309880000Y-195262500D03*
D15*
X304800000Y-195262500D03*
D13*
X300990000Y-192722500D03*
X307340000Y-190182500D03*
D16*
X311090000Y-190182500D03*
X297240000Y-192722500D03*
%TD*%
D13*
%TO.C,K49*%
X564515000Y-190182500D03*
D14*
X567055000Y-195262500D03*
X556895000Y-195262500D03*
D13*
X558165000Y-192722500D03*
D15*
X561975000Y-195262500D03*
D16*
X568265000Y-190182500D03*
X554415000Y-192722500D03*
%TD*%
D15*
%TO.C,K6*%
X423862500Y-147637500D03*
D13*
X420052500Y-145097500D03*
D14*
X428942500Y-147637500D03*
D13*
X426402500Y-142557500D03*
D14*
X418782500Y-147637500D03*
D16*
X430152500Y-142557500D03*
X416302500Y-145097500D03*
%TD*%
D13*
%TO.C,K19*%
X315277500Y-173672500D03*
X321627500Y-171132500D03*
D14*
X324167500Y-176212500D03*
X314007500Y-176212500D03*
D15*
X319087500Y-176212500D03*
D16*
X325377500Y-171132500D03*
X311527500Y-173672500D03*
%TD*%
D15*
%TO.C,K87*%
X516731250Y-252412500D03*
D14*
X521811250Y-252412500D03*
D13*
X512921250Y-249872500D03*
D14*
X511651250Y-252412500D03*
D13*
X519271250Y-247332500D03*
D16*
X523021250Y-247332500D03*
X509171250Y-249872500D03*
%TD*%
D13*
%TO.C,K80*%
X612140000Y-228282500D03*
D14*
X604520000Y-233362500D03*
D13*
X605790000Y-230822500D03*
D15*
X609600000Y-233362500D03*
D14*
X614680000Y-233362500D03*
D16*
X615890000Y-228282500D03*
X602040000Y-230822500D03*
%TD*%
D13*
%TO.C,K47*%
X515302500Y-192722500D03*
X521652500Y-190182500D03*
D14*
X524192500Y-195262500D03*
X514032500Y-195262500D03*
D15*
X519112500Y-195262500D03*
D16*
X525402500Y-190182500D03*
X511552500Y-192722500D03*
%TD*%
D13*
%TO.C,K14*%
X593090000Y-142557500D03*
D14*
X595630000Y-147637500D03*
D15*
X590550000Y-147637500D03*
D13*
X586740000Y-145097500D03*
D14*
X585470000Y-147637500D03*
D16*
X596840000Y-142557500D03*
X582990000Y-145097500D03*
%TD*%
D13*
%TO.C,K66*%
X551021250Y-211772500D03*
X557371250Y-209232500D03*
D14*
X559911250Y-214312500D03*
D17*
X542893250Y-207327500D03*
D15*
X566769250Y-222567500D03*
D17*
X566769250Y-207327500D03*
D14*
X549751250Y-214312500D03*
D15*
X542893250Y-222567500D03*
X554831250Y-214312500D03*
D16*
X561121250Y-209232500D03*
X547271250Y-211772500D03*
%TD*%
D13*
%TO.C,K91*%
X605790000Y-249872500D03*
D14*
X614680000Y-252412500D03*
D15*
X609600000Y-252412500D03*
D14*
X604520000Y-252412500D03*
D13*
X612140000Y-247332500D03*
D16*
X615890000Y-247332500D03*
X602040000Y-249872500D03*
%TD*%
D19*
%TO.C,H2*%
X645318750Y-130968750D03*
D18*
X645318750Y-130968750D03*
%TD*%
D15*
%TO.C,K56*%
X352425000Y-214312500D03*
D13*
X354965000Y-209232500D03*
D14*
X357505000Y-214312500D03*
X347345000Y-214312500D03*
D13*
X348615000Y-211772500D03*
D16*
X358715000Y-209232500D03*
X344865000Y-211772500D03*
%TD*%
D13*
%TO.C,K78*%
X516890000Y-228282500D03*
X510540000Y-230822500D03*
D14*
X509270000Y-233362500D03*
X519430000Y-233362500D03*
D15*
X514350000Y-233362500D03*
D16*
X520640000Y-228282500D03*
X506790000Y-230822500D03*
%TD*%
D13*
%TO.C,K54*%
X309721250Y-209232500D03*
D14*
X312261250Y-214312500D03*
X302101250Y-214312500D03*
D15*
X307181250Y-214312500D03*
D13*
X303371250Y-211772500D03*
D16*
X313471250Y-209232500D03*
X299621250Y-211772500D03*
%TD*%
D14*
%TO.C,K67*%
X281305000Y-233362500D03*
X271145000Y-233362500D03*
D13*
X272415000Y-230822500D03*
D15*
X276225000Y-233362500D03*
D13*
X278765000Y-228282500D03*
D16*
X282515000Y-228282500D03*
X268665000Y-230822500D03*
%TD*%
D14*
%TO.C,K15*%
X604520000Y-147637500D03*
D13*
X605790000Y-145097500D03*
D14*
X614680000Y-147637500D03*
D13*
X612140000Y-142557500D03*
D15*
X609600000Y-147637500D03*
D16*
X615890000Y-142557500D03*
X602040000Y-145097500D03*
%TD*%
D18*
%TO.C,H1*%
X259556250Y-130968750D03*
D19*
X259556250Y-130968750D03*
%TD*%
D13*
%TO.C,K38*%
X343852500Y-192722500D03*
X350202500Y-190182500D03*
D14*
X352742500Y-195262500D03*
X342582500Y-195262500D03*
D15*
X347662500Y-195262500D03*
D16*
X353952500Y-190182500D03*
X340102500Y-192722500D03*
%TD*%
D15*
%TO.C,K69*%
X342900000Y-233362500D03*
D13*
X345440000Y-228282500D03*
D14*
X337820000Y-233362500D03*
X347980000Y-233362500D03*
D13*
X339090000Y-230822500D03*
D16*
X349190000Y-228282500D03*
X335340000Y-230822500D03*
%TD*%
D13*
%TO.C,K51*%
X605790000Y-192722500D03*
X612140000Y-190182500D03*
D14*
X614680000Y-195262500D03*
D15*
X609600000Y-195262500D03*
D14*
X604520000Y-195262500D03*
D16*
X615890000Y-190182500D03*
X602040000Y-192722500D03*
%TD*%
D13*
%TO.C,K29*%
X505777500Y-173672500D03*
D14*
X514667500Y-176212500D03*
X504507500Y-176212500D03*
D13*
X512127500Y-171132500D03*
D15*
X509587500Y-176212500D03*
D16*
X515877500Y-171132500D03*
X502027500Y-173672500D03*
%TD*%
D15*
%TO.C,K23*%
X395287500Y-176212500D03*
D14*
X390207500Y-176212500D03*
D13*
X397827500Y-171132500D03*
D14*
X400367500Y-176212500D03*
D13*
X391477500Y-173672500D03*
D16*
X401577500Y-171132500D03*
X387727500Y-173672500D03*
%TD*%
D13*
%TO.C,K55*%
X335915000Y-209232500D03*
X329565000Y-211772500D03*
D14*
X338455000Y-214312500D03*
X328295000Y-214312500D03*
D15*
X333375000Y-214312500D03*
D16*
X339665000Y-209232500D03*
X325815000Y-211772500D03*
%TD*%
D13*
%TO.C,K70*%
X364490000Y-228282500D03*
D14*
X367030000Y-233362500D03*
X356870000Y-233362500D03*
D15*
X361950000Y-233362500D03*
D13*
X358140000Y-230822500D03*
D16*
X368240000Y-228282500D03*
X354390000Y-230822500D03*
%TD*%
D13*
%TO.C,K68*%
X314483750Y-228282500D03*
X308133750Y-230822500D03*
D15*
X300005750Y-241617500D03*
X311943750Y-233362500D03*
D14*
X306863750Y-233362500D03*
X317023750Y-233362500D03*
D17*
X300005750Y-226377500D03*
X323881750Y-226377500D03*
D15*
X323881750Y-241617500D03*
D16*
X318233750Y-228282500D03*
X304383750Y-230822500D03*
%TD*%
D15*
%TO.C,K8*%
X461962500Y-147637500D03*
D13*
X464502500Y-142557500D03*
D14*
X467042500Y-147637500D03*
D13*
X458152500Y-145097500D03*
D14*
X456882500Y-147637500D03*
D16*
X468252500Y-142557500D03*
X454402500Y-145097500D03*
%TD*%
D15*
%TO.C,K58*%
X390525000Y-214312500D03*
D13*
X386715000Y-211772500D03*
D14*
X385445000Y-214312500D03*
X395605000Y-214312500D03*
D13*
X393065000Y-209232500D03*
D16*
X396815000Y-209232500D03*
X382965000Y-211772500D03*
%TD*%
D22*
%TO.C,SW2*%
X283725000Y-150137500D03*
D23*
X283725000Y-145137500D03*
X283725000Y-147637500D03*
D24*
X276225000Y-142037500D03*
X276225000Y-153237500D03*
D23*
X269225000Y-145137500D03*
X269225000Y-150137500D03*
%TD*%
D13*
%TO.C,K40*%
X381952500Y-192722500D03*
X388302500Y-190182500D03*
D14*
X380682500Y-195262500D03*
D15*
X385762500Y-195262500D03*
D14*
X390842500Y-195262500D03*
D16*
X392052500Y-190182500D03*
X378202500Y-192722500D03*
%TD*%
D13*
%TO.C,K20*%
X334327500Y-173672500D03*
D14*
X333057500Y-176212500D03*
D13*
X340677500Y-171132500D03*
D14*
X343217500Y-176212500D03*
D15*
X338137500Y-176212500D03*
D16*
X344427500Y-171132500D03*
X330577500Y-173672500D03*
%TD*%
D13*
%TO.C,K1*%
X296227500Y-145097500D03*
X302577500Y-142557500D03*
D14*
X305117500Y-147637500D03*
D15*
X300037500Y-147637500D03*
D14*
X294957500Y-147637500D03*
D16*
X306327500Y-142557500D03*
X292477500Y-145097500D03*
%TD*%
D13*
%TO.C,K59*%
X412115000Y-209232500D03*
D14*
X414655000Y-214312500D03*
D15*
X409575000Y-214312500D03*
D13*
X405765000Y-211772500D03*
D14*
X404495000Y-214312500D03*
D16*
X415865000Y-209232500D03*
X402015000Y-211772500D03*
%TD*%
D13*
%TO.C,K16*%
X631190000Y-142557500D03*
D14*
X633730000Y-147637500D03*
D15*
X628650000Y-147637500D03*
D14*
X623570000Y-147637500D03*
D13*
X624840000Y-145097500D03*
D16*
X634940000Y-142557500D03*
X621090000Y-145097500D03*
%TD*%
D13*
%TO.C,K21*%
X353377500Y-173672500D03*
D14*
X352107500Y-176212500D03*
D15*
X357187500Y-176212500D03*
D13*
X359727500Y-171132500D03*
D14*
X362267500Y-176212500D03*
D16*
X363477500Y-171132500D03*
X349627500Y-173672500D03*
%TD*%
D25*
%TO.C,J2*%
X316310000Y-128100000D03*
X322090000Y-128100000D03*
D26*
X314880000Y-124450000D03*
D27*
X314880000Y-128630000D03*
X323520000Y-128630000D03*
D26*
X323520000Y-124450000D03*
%TD*%
D14*
%TO.C,K25*%
X438467500Y-176212500D03*
D13*
X435927500Y-171132500D03*
D14*
X428307500Y-176212500D03*
D15*
X433387500Y-176212500D03*
D13*
X429577500Y-173672500D03*
D16*
X439677500Y-171132500D03*
X425827500Y-173672500D03*
%TD*%
D14*
%TO.C,K10*%
X514667500Y-147637500D03*
D15*
X509587500Y-147637500D03*
D13*
X512127500Y-142557500D03*
D14*
X504507500Y-147637500D03*
D13*
X505777500Y-145097500D03*
D16*
X515877500Y-142557500D03*
X502027500Y-145097500D03*
%TD*%
D13*
%TO.C,K61*%
X450215000Y-209232500D03*
D14*
X452755000Y-214312500D03*
X442595000Y-214312500D03*
D13*
X443865000Y-211772500D03*
D15*
X447675000Y-214312500D03*
D16*
X453965000Y-209232500D03*
X440115000Y-211772500D03*
%TD*%
D14*
%TO.C,K48*%
X543242500Y-195262500D03*
X533082500Y-195262500D03*
D13*
X540702500Y-190182500D03*
D15*
X538162500Y-195262500D03*
D13*
X534352500Y-192722500D03*
D16*
X544452500Y-190182500D03*
X530602500Y-192722500D03*
%TD*%
D13*
%TO.C,K7*%
X439102500Y-145097500D03*
D14*
X437832500Y-147637500D03*
D13*
X445452500Y-142557500D03*
D14*
X447992500Y-147637500D03*
D15*
X442912500Y-147637500D03*
D16*
X449202500Y-142557500D03*
X435352500Y-145097500D03*
%TD*%
D14*
%TO.C,K50*%
X585470000Y-195262500D03*
D15*
X590550000Y-195262500D03*
D13*
X593090000Y-190182500D03*
X586740000Y-192722500D03*
D14*
X595630000Y-195262500D03*
D16*
X596840000Y-190182500D03*
X582990000Y-192722500D03*
%TD*%
D13*
%TO.C,K33*%
X612140000Y-171132500D03*
X605790000Y-173672500D03*
D15*
X609600000Y-176212500D03*
D14*
X604520000Y-176212500D03*
X614680000Y-176212500D03*
D16*
X615890000Y-171132500D03*
X602040000Y-173672500D03*
%TD*%
D15*
%TO.C,K27*%
X471487500Y-176212500D03*
D13*
X474027500Y-171132500D03*
D14*
X476567500Y-176212500D03*
D13*
X467677500Y-173672500D03*
D14*
X466407500Y-176212500D03*
D16*
X477777500Y-171132500D03*
X463927500Y-173672500D03*
%TD*%
D13*
%TO.C,K77*%
X491490000Y-230822500D03*
X497840000Y-228282500D03*
D15*
X495300000Y-233362500D03*
D14*
X490220000Y-233362500D03*
X500380000Y-233362500D03*
D16*
X501590000Y-228282500D03*
X487740000Y-230822500D03*
%TD*%
D14*
%TO.C,K26*%
X447357500Y-176212500D03*
D13*
X448627500Y-173672500D03*
D15*
X452437500Y-176212500D03*
D14*
X457517500Y-176212500D03*
D13*
X454977500Y-171132500D03*
D16*
X458727500Y-171132500D03*
X444877500Y-173672500D03*
%TD*%
D15*
%TO.C,K84*%
X350043750Y-252412500D03*
D13*
X346233750Y-249872500D03*
D14*
X344963750Y-252412500D03*
D13*
X352583750Y-247332500D03*
D14*
X355123750Y-252412500D03*
D16*
X356333750Y-247332500D03*
X342483750Y-249872500D03*
%TD*%
D13*
%TO.C,K75*%
X453390000Y-230822500D03*
D15*
X457200000Y-233362500D03*
D14*
X462280000Y-233362500D03*
X452120000Y-233362500D03*
D13*
X459740000Y-228282500D03*
D16*
X463490000Y-228282500D03*
X449640000Y-230822500D03*
%TD*%
D13*
%TO.C,K18*%
X296227500Y-173672500D03*
D14*
X294957500Y-176212500D03*
X305117500Y-176212500D03*
D13*
X302577500Y-171132500D03*
D15*
X300037500Y-176212500D03*
D16*
X306327500Y-171132500D03*
X292477500Y-173672500D03*
%TD*%
D15*
%TO.C,K32*%
X590550000Y-176212500D03*
D14*
X595630000Y-176212500D03*
D13*
X586740000Y-173672500D03*
D14*
X585470000Y-176212500D03*
D13*
X593090000Y-171132500D03*
D16*
X596840000Y-171132500D03*
X582990000Y-173672500D03*
%TD*%
D14*
%TO.C,K52*%
X623570000Y-195262500D03*
X633730000Y-195262500D03*
D13*
X624840000Y-192722500D03*
D15*
X628650000Y-195262500D03*
D13*
X631190000Y-190182500D03*
D16*
X634940000Y-190182500D03*
X621090000Y-192722500D03*
%TD*%
D14*
%TO.C,K65*%
X518795000Y-214312500D03*
X528955000Y-214312500D03*
D13*
X526415000Y-209232500D03*
D15*
X523875000Y-214312500D03*
D13*
X520065000Y-211772500D03*
D16*
X530165000Y-209232500D03*
X516315000Y-211772500D03*
%TD*%
D13*
%TO.C,K43*%
X445452500Y-190182500D03*
D14*
X447992500Y-195262500D03*
D15*
X442912500Y-195262500D03*
D14*
X437832500Y-195262500D03*
D13*
X439102500Y-192722500D03*
D16*
X449202500Y-190182500D03*
X435352500Y-192722500D03*
%TD*%
D14*
%TO.C,K30*%
X523557500Y-176212500D03*
D15*
X528637500Y-176212500D03*
D13*
X531177500Y-171132500D03*
D14*
X533717500Y-176212500D03*
D13*
X524827500Y-173672500D03*
D16*
X534927500Y-171132500D03*
X521077500Y-173672500D03*
%TD*%
D14*
%TO.C,K73*%
X414020000Y-233362500D03*
D15*
X419100000Y-233362500D03*
D14*
X424180000Y-233362500D03*
D13*
X415290000Y-230822500D03*
X421640000Y-228282500D03*
D16*
X425390000Y-228282500D03*
X411540000Y-230822500D03*
%TD*%
D17*
%TO.C,K85*%
X471519250Y-245427500D03*
X371443250Y-245427500D03*
D14*
X416401250Y-252412500D03*
X426561250Y-252412500D03*
D13*
X424021250Y-247332500D03*
D15*
X371443250Y-260667500D03*
D13*
X417671250Y-249872500D03*
D15*
X421481250Y-252412500D03*
X471519250Y-260667500D03*
D16*
X427771250Y-247332500D03*
X413921250Y-249872500D03*
%TD*%
D14*
%TO.C,K63*%
X490855000Y-214312500D03*
D13*
X488315000Y-209232500D03*
X481965000Y-211772500D03*
D14*
X480695000Y-214312500D03*
D15*
X485775000Y-214312500D03*
D16*
X492065000Y-209232500D03*
X478215000Y-211772500D03*
%TD*%
D15*
%TO.C,K11*%
X528637500Y-147637500D03*
D13*
X531177500Y-142557500D03*
X524827500Y-145097500D03*
D14*
X523557500Y-147637500D03*
X533717500Y-147637500D03*
D16*
X534927500Y-142557500D03*
X521077500Y-145097500D03*
%TD*%
D14*
%TO.C,K24*%
X409257500Y-176212500D03*
D15*
X414337500Y-176212500D03*
D13*
X410527500Y-173672500D03*
X416877500Y-171132500D03*
D14*
X419417500Y-176212500D03*
D16*
X420627500Y-171132500D03*
X406777500Y-173672500D03*
%TD*%
D14*
%TO.C,K17*%
X281305000Y-176212500D03*
X271145000Y-176212500D03*
D13*
X272415000Y-173672500D03*
D15*
X276225000Y-176212500D03*
D13*
X278765000Y-171132500D03*
D16*
X282515000Y-171132500D03*
X268665000Y-173672500D03*
%TD*%
D13*
%TO.C,K34*%
X624840000Y-173672500D03*
X631190000Y-171132500D03*
D15*
X628650000Y-176212500D03*
D14*
X623570000Y-176212500D03*
X633730000Y-176212500D03*
D16*
X634940000Y-171132500D03*
X621090000Y-173672500D03*
%TD*%
D13*
%TO.C,K37*%
X324802500Y-192722500D03*
D14*
X323532500Y-195262500D03*
D15*
X328612500Y-195262500D03*
D13*
X331152500Y-190182500D03*
D14*
X333692500Y-195262500D03*
D16*
X334902500Y-190182500D03*
X321052500Y-192722500D03*
%TD*%
D15*
%TO.C,K57*%
X371475000Y-214312500D03*
D14*
X366395000Y-214312500D03*
X376555000Y-214312500D03*
D13*
X374015000Y-209232500D03*
X367665000Y-211772500D03*
D16*
X377765000Y-209232500D03*
X363915000Y-211772500D03*
%TD*%
D14*
%TO.C,K46*%
X505142500Y-195262500D03*
D15*
X500062500Y-195262500D03*
D14*
X494982500Y-195262500D03*
D13*
X496252500Y-192722500D03*
X502602500Y-190182500D03*
D16*
X506352500Y-190182500D03*
X492502500Y-192722500D03*
%TD*%
D13*
%TO.C,K39*%
X369252500Y-190182500D03*
X362902500Y-192722500D03*
D15*
X366712500Y-195262500D03*
D14*
X371792500Y-195262500D03*
X361632500Y-195262500D03*
D16*
X373002500Y-190182500D03*
X359152500Y-192722500D03*
%TD*%
D13*
%TO.C,K64*%
X501015000Y-211772500D03*
D15*
X504825000Y-214312500D03*
D14*
X499745000Y-214312500D03*
X509905000Y-214312500D03*
D13*
X507365000Y-209232500D03*
D16*
X511115000Y-209232500D03*
X497265000Y-211772500D03*
%TD*%
D15*
%TO.C,K72*%
X400050000Y-233362500D03*
D14*
X394970000Y-233362500D03*
D13*
X402590000Y-228282500D03*
D14*
X405130000Y-233362500D03*
D13*
X396240000Y-230822500D03*
D16*
X406340000Y-228282500D03*
X392490000Y-230822500D03*
%TD*%
D13*
%TO.C,K86*%
X489108750Y-249872500D03*
D14*
X497998750Y-252412500D03*
D13*
X495458750Y-247332500D03*
D15*
X492918750Y-252412500D03*
D14*
X487838750Y-252412500D03*
D16*
X499208750Y-247332500D03*
X485358750Y-249872500D03*
%TD*%
D13*
%TO.C,K13*%
X562927500Y-145097500D03*
D14*
X571817500Y-147637500D03*
D15*
X566737500Y-147637500D03*
D13*
X569277500Y-142557500D03*
D14*
X561657500Y-147637500D03*
D16*
X573027500Y-142557500D03*
X559177500Y-145097500D03*
%TD*%
D13*
%TO.C,K53*%
X272415000Y-211772500D03*
X278765000Y-209232500D03*
D14*
X281305000Y-214312500D03*
X271145000Y-214312500D03*
D15*
X276225000Y-214312500D03*
D16*
X282515000Y-209232500D03*
X268665000Y-211772500D03*
%TD*%
D13*
%TO.C,K22*%
X372427500Y-173672500D03*
D15*
X376237500Y-176212500D03*
D14*
X381317500Y-176212500D03*
X371157500Y-176212500D03*
D13*
X378777500Y-171132500D03*
D16*
X382527500Y-171132500D03*
X368677500Y-173672500D03*
%TD*%
D15*
%TO.C,K79*%
X562006750Y-241617500D03*
X550068750Y-233362500D03*
D14*
X544988750Y-233362500D03*
D17*
X538130750Y-226377500D03*
D15*
X538130750Y-241617500D03*
D14*
X555148750Y-233362500D03*
D13*
X552608750Y-228282500D03*
D17*
X562006750Y-226377500D03*
D13*
X546258750Y-230822500D03*
D16*
X556358750Y-228282500D03*
X542508750Y-230822500D03*
%TD*%
D14*
%TO.C,K92*%
X633730000Y-252412500D03*
X623570000Y-252412500D03*
D13*
X624840000Y-249872500D03*
D15*
X628650000Y-252412500D03*
D13*
X631190000Y-247332500D03*
D16*
X634940000Y-247332500D03*
X621090000Y-249872500D03*
%TD*%
D14*
%TO.C,K35*%
X281305000Y-195262500D03*
D15*
X276225000Y-195262500D03*
D14*
X271145000Y-195262500D03*
D13*
X272415000Y-192722500D03*
X278765000Y-190182500D03*
D16*
X282515000Y-190182500D03*
X268665000Y-192722500D03*
%TD*%
D13*
%TO.C,K88*%
X536733750Y-249872500D03*
X543083750Y-247332500D03*
D15*
X540543750Y-252412500D03*
D14*
X545623750Y-252412500D03*
X535463750Y-252412500D03*
D16*
X546833750Y-247332500D03*
X532983750Y-249872500D03*
%TD*%
D15*
%TO.C,K5*%
X395287500Y-147637500D03*
D14*
X390207500Y-147637500D03*
D13*
X397827500Y-142557500D03*
X391477500Y-145097500D03*
D14*
X400367500Y-147637500D03*
D16*
X401577500Y-142557500D03*
X387727500Y-145097500D03*
%TD*%
D14*
%TO.C,K82*%
X297338750Y-252412500D03*
D13*
X304958750Y-247332500D03*
X298608750Y-249872500D03*
D15*
X302418750Y-252412500D03*
D14*
X307498750Y-252412500D03*
D16*
X308708750Y-247332500D03*
X294858750Y-249872500D03*
%TD*%
D14*
%TO.C,K89*%
X569436250Y-252412500D03*
D13*
X560546250Y-249872500D03*
D14*
X559276250Y-252412500D03*
D15*
X564356250Y-252412500D03*
D13*
X566896250Y-247332500D03*
D16*
X570646250Y-247332500D03*
X556796250Y-249872500D03*
%TD*%
D15*
%TO.C,K60*%
X428625000Y-214312500D03*
D14*
X433705000Y-214312500D03*
X423545000Y-214312500D03*
D13*
X424815000Y-211772500D03*
X431165000Y-209232500D03*
D16*
X434915000Y-209232500D03*
X421065000Y-211772500D03*
%TD*%
D15*
%TO.C,K76*%
X476250000Y-233362500D03*
D13*
X472440000Y-230822500D03*
D14*
X471170000Y-233362500D03*
X481330000Y-233362500D03*
D13*
X478790000Y-228282500D03*
D16*
X482540000Y-228282500D03*
X468690000Y-230822500D03*
%TD*%
D28*
%TO.C,D75*%
X372665625Y-241906250D03*
X372665625Y-239106250D03*
%TD*%
%TO.C,D61*%
X363140625Y-222856250D03*
X363140625Y-220056250D03*
%TD*%
%TO.C,D23*%
X310753125Y-184756250D03*
X310753125Y-181956250D03*
%TD*%
D29*
%TO.C,C10*%
X615895000Y-217025000D03*
X615895000Y-218775000D03*
%TD*%
D28*
%TO.C,D9*%
X386953125Y-156181250D03*
X386953125Y-153381250D03*
%TD*%
%TO.C,D70*%
X534590625Y-222856250D03*
X534590625Y-220056250D03*
%TD*%
D30*
%TO.C,C31*%
X257383750Y-222810459D03*
X259133750Y-222810459D03*
%TD*%
D31*
%TO.C,R23*%
X302418750Y-265193750D03*
X302418750Y-263443750D03*
%TD*%
D28*
%TO.C,D31*%
X463153125Y-184756250D03*
X463153125Y-181956250D03*
%TD*%
%TO.C,D50*%
X491728125Y-203806250D03*
X491728125Y-201006250D03*
%TD*%
D29*
%TO.C,R7*%
X610500000Y-221825000D03*
X610500000Y-223575000D03*
%TD*%
D31*
%TO.C,R31*%
X363450000Y-246143750D03*
X363450000Y-244393750D03*
%TD*%
%TO.C,R47*%
X457200000Y-246143750D03*
X457200000Y-244393750D03*
%TD*%
%TO.C,C27*%
X478171309Y-271158750D03*
X478171309Y-269408750D03*
%TD*%
D29*
%TO.C,R6*%
X284997024Y-135425000D03*
X284997024Y-137175000D03*
%TD*%
D28*
%TO.C,D80*%
X467915625Y-241906250D03*
X467915625Y-239106250D03*
%TD*%
D31*
%TO.C,C28*%
X420681138Y-271158750D03*
X420681138Y-269408750D03*
%TD*%
%TO.C,R44*%
X438150000Y-246143750D03*
X438150000Y-244393750D03*
%TD*%
D32*
%TO.C,D198*%
X597076651Y-129071250D03*
X597076651Y-132271250D03*
X592176651Y-132271250D03*
X592176651Y-129071250D03*
%TD*%
D31*
%TO.C,R43*%
X439650000Y-246143750D03*
X439650000Y-244393750D03*
%TD*%
D33*
%TO.C,C18*%
X447775000Y-253000000D03*
X446025000Y-253000000D03*
%TD*%
D28*
%TO.C,D25*%
X348853125Y-184756250D03*
X348853125Y-181956250D03*
%TD*%
%TO.C,D71*%
X267890625Y-241906250D03*
X267890625Y-239106250D03*
%TD*%
D32*
%TO.C,D202*%
X367115967Y-129071250D03*
X367115967Y-132271250D03*
X362215967Y-132271250D03*
X362215967Y-129071250D03*
%TD*%
D28*
%TO.C,D92*%
X529828125Y-260956250D03*
X529828125Y-258156250D03*
%TD*%
%TO.C,D52*%
X529828125Y-203806250D03*
X529828125Y-201006250D03*
%TD*%
D31*
%TO.C,R39*%
X398543750Y-246143750D03*
X398543750Y-244393750D03*
%TD*%
D28*
%TO.C,D37*%
X601265625Y-184756250D03*
X601265625Y-181956250D03*
%TD*%
D33*
%TO.C,R16*%
X447775000Y-254500000D03*
X446025000Y-254500000D03*
%TD*%
D28*
%TO.C,D8*%
X367903125Y-156181250D03*
X367903125Y-153381250D03*
%TD*%
%TO.C,D78*%
X429815625Y-241906250D03*
X429815625Y-239106250D03*
%TD*%
D31*
%TO.C,R54*%
X491418750Y-265193750D03*
X491418750Y-263443750D03*
%TD*%
%TO.C,C21*%
X395000000Y-270087500D03*
X395000000Y-268337500D03*
%TD*%
%TO.C,R19*%
X277725000Y-265193750D03*
X277725000Y-263443750D03*
%TD*%
D28*
%TO.C,D36*%
X582215625Y-184756250D03*
X582215625Y-181956250D03*
%TD*%
%TO.C,D89*%
X363140625Y-260956250D03*
X363140625Y-258156250D03*
%TD*%
D31*
%TO.C,C25*%
X593176651Y-271058750D03*
X593176651Y-269308750D03*
%TD*%
D28*
%TO.C,D85*%
X267890625Y-260956250D03*
X267890625Y-258156250D03*
%TD*%
D31*
%TO.C,R42*%
X419981250Y-265193750D03*
X419981250Y-263443750D03*
%TD*%
%TO.C,R41*%
X421481250Y-265193750D03*
X421481250Y-263443750D03*
%TD*%
D28*
%TO.C,D73*%
X334565625Y-241906250D03*
X334565625Y-239106250D03*
%TD*%
D31*
%TO.C,C30*%
X305700796Y-271158750D03*
X305700796Y-269408750D03*
%TD*%
D28*
%TO.C,D81*%
X486965625Y-241906250D03*
X486965625Y-239106250D03*
%TD*%
D32*
%TO.C,D203*%
X309625796Y-129071250D03*
X309625796Y-132271250D03*
X304725796Y-132271250D03*
X304725796Y-129071250D03*
%TD*%
D28*
%TO.C,D28*%
X406003125Y-184756250D03*
X406003125Y-181956250D03*
%TD*%
%TO.C,D86*%
X291703125Y-260956250D03*
X291703125Y-258156250D03*
%TD*%
D33*
%TO.C,C40*%
X647396250Y-228785459D03*
X645646250Y-228785459D03*
%TD*%
D28*
%TO.C,D79*%
X448865625Y-241906250D03*
X448865625Y-239106250D03*
%TD*%
D34*
%TO.C,U1*%
X614843750Y-264965625D03*
X614843750Y-265615625D03*
X614843750Y-266265625D03*
X614843750Y-266915625D03*
X614843750Y-267565625D03*
X614843750Y-268215625D03*
X614843750Y-268865625D03*
X614843750Y-269515625D03*
X614843750Y-270165625D03*
X614843750Y-270815625D03*
X609118750Y-270815625D03*
X609118750Y-270165625D03*
X609118750Y-269515625D03*
X609118750Y-268865625D03*
X609118750Y-268215625D03*
X609118750Y-267565625D03*
X609118750Y-266915625D03*
X609118750Y-266265625D03*
X609118750Y-265615625D03*
X609118750Y-264965625D03*
%TD*%
D28*
%TO.C,D13*%
X472678125Y-156181250D03*
X472678125Y-153381250D03*
%TD*%
D32*
%TO.C,D192*%
X480221309Y-270883750D03*
X480221309Y-267683750D03*
X485121309Y-267683750D03*
X485121309Y-270883750D03*
%TD*%
D28*
%TO.C,D46*%
X415528125Y-203806250D03*
X415528125Y-201006250D03*
%TD*%
%TO.C,D1*%
X592787500Y-212359375D03*
X589987500Y-212359375D03*
%TD*%
D35*
%TO.C,D205*%
X647121250Y-226735459D03*
X643921250Y-226735459D03*
X643921250Y-221835459D03*
X647121250Y-221835459D03*
%TD*%
D31*
%TO.C,R18*%
X399400000Y-270087500D03*
X399400000Y-268337500D03*
%TD*%
%TO.C,C20*%
X397956250Y-270087500D03*
X397956250Y-268337500D03*
%TD*%
D28*
%TO.C,D83*%
X525065625Y-241906250D03*
X525065625Y-239106250D03*
%TD*%
D29*
%TO.C,C36*%
X426656138Y-128796250D03*
X426656138Y-130546250D03*
%TD*%
D28*
%TO.C,D38*%
X620315625Y-184756250D03*
X620315625Y-181956250D03*
%TD*%
%TO.C,D41*%
X320278125Y-203806250D03*
X320278125Y-201006250D03*
%TD*%
D36*
%TO.C,U5*%
X394178694Y-257484924D03*
X393895852Y-257767767D03*
X393613009Y-258050610D03*
X393330166Y-258333453D03*
X393047324Y-258616295D03*
X392764481Y-258899138D03*
X392481638Y-259181981D03*
X392198795Y-259464823D03*
X391915953Y-259747666D03*
X391633110Y-260030509D03*
X391350267Y-260313352D03*
X391067425Y-260596194D03*
X390784582Y-260879037D03*
X390501739Y-261161880D03*
X390218896Y-261444722D03*
D37*
X389299658Y-261444722D03*
X389016815Y-261161880D03*
X388733972Y-260879037D03*
X388451129Y-260596194D03*
X388168287Y-260313352D03*
X387885444Y-260030509D03*
X387602601Y-259747666D03*
X387319759Y-259464823D03*
X387036916Y-259181981D03*
X386754073Y-258899138D03*
X386471230Y-258616295D03*
X386188388Y-258333453D03*
X385905545Y-258050610D03*
X385622702Y-257767767D03*
X385339860Y-257484924D03*
D36*
X385339860Y-256565686D03*
X385622702Y-256282843D03*
X385905545Y-256000000D03*
X386188388Y-255717157D03*
X386471230Y-255434315D03*
X386754073Y-255151472D03*
X387036916Y-254868629D03*
X387319759Y-254585787D03*
X387602601Y-254302944D03*
X387885444Y-254020101D03*
X388168287Y-253737258D03*
X388451129Y-253454416D03*
X388733972Y-253171573D03*
X389016815Y-252888730D03*
X389299658Y-252605888D03*
D37*
X390218896Y-252605888D03*
X390501739Y-252888730D03*
X390784582Y-253171573D03*
X391067425Y-253454416D03*
X391350267Y-253737258D03*
X391633110Y-254020101D03*
X391915953Y-254302944D03*
X392198795Y-254585787D03*
X392481638Y-254868629D03*
X392764481Y-255151472D03*
X393047324Y-255434315D03*
X393330166Y-255717157D03*
X393613009Y-256000000D03*
X393895852Y-256282843D03*
X394178694Y-256565686D03*
D38*
X389759277Y-257025305D03*
%TD*%
D31*
%TO.C,C26*%
X535661480Y-271158750D03*
X535661480Y-269408750D03*
%TD*%
D28*
%TO.C,D20*%
X620315625Y-156181250D03*
X620315625Y-153381250D03*
%TD*%
%TO.C,D58*%
X291703125Y-222856250D03*
X291703125Y-220056250D03*
%TD*%
%TO.C,D82*%
X506015625Y-241906250D03*
X506015625Y-239106250D03*
%TD*%
%TO.C,D93*%
X553640625Y-260956250D03*
X553640625Y-258156250D03*
%TD*%
D29*
%TO.C,C35*%
X484146309Y-128796250D03*
X484146309Y-130546250D03*
%TD*%
D31*
%TO.C,R55*%
X518231250Y-265193750D03*
X518231250Y-263443750D03*
%TD*%
D33*
%TO.C,R4*%
X283472024Y-137200000D03*
X281722024Y-137200000D03*
%TD*%
D28*
%TO.C,D19*%
X601265625Y-156181250D03*
X601265625Y-153381250D03*
%TD*%
%TO.C,D87*%
X315515625Y-260956250D03*
X315515625Y-258156250D03*
%TD*%
D33*
%TO.C,C16*%
X602575000Y-217000000D03*
X600825000Y-217000000D03*
%TD*%
D31*
%TO.C,C12*%
X600900000Y-212675000D03*
X600900000Y-210925000D03*
%TD*%
%TO.C,C24*%
X390500000Y-270075000D03*
X390500000Y-268325000D03*
%TD*%
D28*
%TO.C,D60*%
X344090625Y-222856250D03*
X344090625Y-220056250D03*
%TD*%
%TO.C,D88*%
X339328125Y-260956250D03*
X339328125Y-258156250D03*
%TD*%
%TO.C,D65*%
X439340625Y-222856250D03*
X439340625Y-220056250D03*
%TD*%
D31*
%TO.C,R29*%
X350043750Y-265193750D03*
X350043750Y-263443750D03*
%TD*%
D28*
%TO.C,D39*%
X267890625Y-203806250D03*
X267890625Y-201006250D03*
%TD*%
%TO.C,D94*%
X582215625Y-260956250D03*
X582215625Y-258156250D03*
%TD*%
%TO.C,D44*%
X377428125Y-203806250D03*
X377428125Y-201006250D03*
%TD*%
%TO.C,D32*%
X482203125Y-184756250D03*
X482203125Y-181956250D03*
%TD*%
%TO.C,D6*%
X329803125Y-156181250D03*
X329803125Y-153381250D03*
%TD*%
%TO.C,D68*%
X496490625Y-222856250D03*
X496490625Y-220056250D03*
%TD*%
D31*
%TO.C,R27*%
X324731250Y-265193750D03*
X324731250Y-263443750D03*
%TD*%
%TO.C,C29*%
X363190967Y-271158750D03*
X363190967Y-269408750D03*
%TD*%
%TO.C,R30*%
X348543750Y-265193750D03*
X348543750Y-263443750D03*
%TD*%
D32*
%TO.C,D191*%
X537711480Y-270883750D03*
X537711480Y-267683750D03*
X542611480Y-267683750D03*
X542611480Y-270883750D03*
%TD*%
D31*
%TO.C,R5*%
X284997024Y-133875000D03*
X284997024Y-132125000D03*
%TD*%
D39*
%TO.C,SW1*%
X581700000Y-216150000D03*
X587900000Y-216150000D03*
X587900000Y-212450000D03*
X581700000Y-212450000D03*
%TD*%
D35*
%TO.C,D197*%
X257658750Y-173266792D03*
X260858750Y-173266792D03*
X260858750Y-178166792D03*
X257658750Y-178166792D03*
%TD*%
D28*
%TO.C,D91*%
X506015625Y-260956250D03*
X506015625Y-258156250D03*
%TD*%
%TO.C,D34*%
X520303125Y-184756250D03*
X520303125Y-181956250D03*
%TD*%
D31*
%TO.C,R51*%
X474750000Y-246143750D03*
X474750000Y-244393750D03*
%TD*%
%TO.C,R49*%
X477750000Y-246143750D03*
X477750000Y-244393750D03*
%TD*%
%TO.C,C11*%
X602400000Y-212675000D03*
X602400000Y-210925000D03*
%TD*%
D28*
%TO.C,D63*%
X401240625Y-222856250D03*
X401240625Y-220056250D03*
%TD*%
D29*
%TO.C,C33*%
X599126651Y-128796250D03*
X599126651Y-130546250D03*
%TD*%
D33*
%TO.C,C15*%
X615675000Y-209500000D03*
X613925000Y-209500000D03*
%TD*%
D29*
%TO.C,C34*%
X541636480Y-128796250D03*
X541636480Y-130546250D03*
%TD*%
D28*
%TO.C,D27*%
X386953125Y-184756250D03*
X386953125Y-181956250D03*
%TD*%
D32*
%TO.C,D199*%
X539586480Y-129071250D03*
X539586480Y-132271250D03*
X534686480Y-132271250D03*
X534686480Y-129071250D03*
%TD*%
D31*
%TO.C,R48*%
X455700000Y-246143750D03*
X455700000Y-244393750D03*
%TD*%
D28*
%TO.C,D17*%
X558403125Y-156181250D03*
X558403125Y-153381250D03*
%TD*%
%TO.C,D10*%
X415528125Y-156181250D03*
X415528125Y-153381250D03*
%TD*%
D31*
%TO.C,R35*%
X381000000Y-246143750D03*
X381000000Y-244393750D03*
%TD*%
D28*
%TO.C,D64*%
X420290625Y-222856250D03*
X420290625Y-220056250D03*
%TD*%
%TO.C,D90*%
X482203125Y-260956250D03*
X482203125Y-258156250D03*
%TD*%
D32*
%TO.C,D201*%
X424606138Y-129071250D03*
X424606138Y-132271250D03*
X419706138Y-132271250D03*
X419706138Y-129071250D03*
%TD*%
D28*
%TO.C,D69*%
X515540625Y-222856250D03*
X515540625Y-220056250D03*
%TD*%
%TO.C,D67*%
X477440625Y-222856250D03*
X477440625Y-220056250D03*
%TD*%
%TO.C,D76*%
X391715625Y-241906250D03*
X391715625Y-239106250D03*
%TD*%
D31*
%TO.C,R37*%
X401550000Y-246143750D03*
X401550000Y-244393750D03*
%TD*%
D28*
%TO.C,D84*%
X601265625Y-241906250D03*
X601265625Y-239106250D03*
%TD*%
D29*
%TO.C,C9*%
X614395000Y-217025000D03*
X614395000Y-218775000D03*
%TD*%
D28*
%TO.C,D45*%
X396478125Y-203806250D03*
X396478125Y-201006250D03*
%TD*%
D33*
%TO.C,R15*%
X447775000Y-257500000D03*
X446025000Y-257500000D03*
%TD*%
D30*
%TO.C,R3*%
X281722024Y-133900000D03*
X283472024Y-133900000D03*
%TD*%
D31*
%TO.C,R38*%
X400050000Y-246143750D03*
X400050000Y-244393750D03*
%TD*%
D28*
%TO.C,D95*%
X601265625Y-260956250D03*
X601265625Y-258156250D03*
%TD*%
D33*
%TO.C,R14*%
X447775000Y-251500000D03*
X446025000Y-251500000D03*
%TD*%
D28*
%TO.C,D5*%
X291703125Y-156181250D03*
X291703125Y-153381250D03*
%TD*%
%TO.C,D42*%
X339328125Y-203806250D03*
X339328125Y-201006250D03*
%TD*%
D40*
%TO.C,U2*%
X606162500Y-217062500D03*
X606162500Y-216562500D03*
X606162500Y-216062500D03*
X606162500Y-215562500D03*
X606162500Y-215062500D03*
X606162500Y-214562500D03*
X606162500Y-214062500D03*
X606162500Y-213562500D03*
X606162500Y-213062500D03*
X606162500Y-212562500D03*
X606162500Y-212062500D03*
X606162500Y-211562500D03*
D41*
X606850000Y-210875000D03*
X607350000Y-210875000D03*
X607850000Y-210875000D03*
X608350000Y-210875000D03*
X608850000Y-210875000D03*
X609350000Y-210875000D03*
X609850000Y-210875000D03*
X610350000Y-210875000D03*
X610850000Y-210875000D03*
X611350000Y-210875000D03*
X611850000Y-210875000D03*
X612350000Y-210875000D03*
D40*
X613037500Y-211562500D03*
X613037500Y-212062500D03*
X613037500Y-212562500D03*
X613037500Y-213062500D03*
X613037500Y-213562500D03*
X613037500Y-214062500D03*
X613037500Y-214562500D03*
X613037500Y-215062500D03*
X613037500Y-215562500D03*
X613037500Y-216062500D03*
X613037500Y-216562500D03*
X613037500Y-217062500D03*
D41*
X612350000Y-217750000D03*
X611850000Y-217750000D03*
X611350000Y-217750000D03*
X610850000Y-217750000D03*
X610350000Y-217750000D03*
X609850000Y-217750000D03*
X609350000Y-217750000D03*
X608850000Y-217750000D03*
X608350000Y-217750000D03*
X607850000Y-217750000D03*
X607350000Y-217750000D03*
X606850000Y-217750000D03*
D42*
X609600000Y-214312500D03*
%TD*%
D29*
%TO.C,C2*%
X595387500Y-210484375D03*
X595387500Y-212234375D03*
%TD*%
D28*
%TO.C,D49*%
X472678125Y-203806250D03*
X472678125Y-201006250D03*
%TD*%
D31*
%TO.C,R52*%
X494418750Y-265193750D03*
X494418750Y-263443750D03*
%TD*%
D28*
%TO.C,D21*%
X267890625Y-184756250D03*
X267890625Y-181956250D03*
%TD*%
D31*
%TO.C,R22*%
X303918750Y-265193750D03*
X303918750Y-263443750D03*
%TD*%
%TO.C,C22*%
X393500000Y-270087500D03*
X393500000Y-268337500D03*
%TD*%
D28*
%TO.C,D74*%
X353615625Y-241906250D03*
X353615625Y-239106250D03*
%TD*%
D33*
%TO.C,C39*%
X647396250Y-177191792D03*
X645646250Y-177191792D03*
%TD*%
D28*
%TO.C,D55*%
X601265625Y-203806250D03*
X601265625Y-201006250D03*
%TD*%
%TO.C,D26*%
X367903125Y-184756250D03*
X367903125Y-181956250D03*
%TD*%
D43*
%TO.C,Q1*%
X590150000Y-215529375D03*
X591450000Y-215529375D03*
X590800000Y-218189375D03*
%TD*%
D28*
%TO.C,D11*%
X434578125Y-156181250D03*
X434578125Y-153381250D03*
%TD*%
D31*
%TO.C,R25*%
X327731250Y-265193750D03*
X327731250Y-263443750D03*
%TD*%
D33*
%TO.C,C5*%
X283472024Y-132100000D03*
X281722024Y-132100000D03*
%TD*%
D28*
%TO.C,D15*%
X520303125Y-156291875D03*
X520303125Y-153491875D03*
%TD*%
D31*
%TO.C,C1*%
X593800000Y-220234375D03*
X593800000Y-218484375D03*
%TD*%
%TO.C,C19*%
X396500000Y-270087500D03*
X396500000Y-268337500D03*
%TD*%
D28*
%TO.C,D12*%
X453628125Y-156181250D03*
X453628125Y-153381250D03*
%TD*%
D31*
%TO.C,R28*%
X351543750Y-265193750D03*
X351543750Y-263443750D03*
%TD*%
D28*
%TO.C,D4*%
X267890625Y-156181250D03*
X267890625Y-153381250D03*
%TD*%
D32*
%TO.C,D193*%
X422731138Y-270883750D03*
X422731138Y-267683750D03*
X427631138Y-267683750D03*
X427631138Y-270883750D03*
%TD*%
D31*
%TO.C,R40*%
X422981250Y-265193750D03*
X422981250Y-263443750D03*
%TD*%
D28*
%TO.C,D18*%
X582215625Y-156181250D03*
X582215625Y-153381250D03*
%TD*%
D33*
%TO.C,C17*%
X602575000Y-215500000D03*
X600825000Y-215500000D03*
%TD*%
D31*
%TO.C,R56*%
X516731250Y-265193750D03*
X516731250Y-263443750D03*
%TD*%
D29*
%TO.C,C38*%
X311675796Y-128796250D03*
X311675796Y-130546250D03*
%TD*%
D31*
%TO.C,C23*%
X392000000Y-270087500D03*
X392000000Y-268337500D03*
%TD*%
%TO.C,R57*%
X515231250Y-265193750D03*
X515231250Y-263443750D03*
%TD*%
D32*
%TO.C,D195*%
X307750796Y-270883750D03*
X307750796Y-267683750D03*
X312650796Y-267683750D03*
X312650796Y-270883750D03*
%TD*%
D28*
%TO.C,D48*%
X453628125Y-203806250D03*
X453628125Y-201006250D03*
%TD*%
D31*
%TO.C,R1*%
X596887500Y-212234375D03*
X596887500Y-210484375D03*
%TD*%
%TO.C,R20*%
X276225000Y-265193750D03*
X276225000Y-263443750D03*
%TD*%
D28*
%TO.C,D35*%
X539353125Y-184756250D03*
X539353125Y-181956250D03*
%TD*%
D31*
%TO.C,R26*%
X326231250Y-265193750D03*
X326231250Y-263443750D03*
%TD*%
D35*
%TO.C,D204*%
X647121250Y-175141792D03*
X643921250Y-175141792D03*
X643921250Y-170241792D03*
X647121250Y-170241792D03*
%TD*%
D28*
%TO.C,D72*%
X291703125Y-241906250D03*
X291703125Y-239106250D03*
%TD*%
%TO.C,D30*%
X444103125Y-184756250D03*
X444103125Y-181956250D03*
%TD*%
%TO.C,D43*%
X358378125Y-203806250D03*
X358378125Y-201006250D03*
%TD*%
%TO.C,D33*%
X501253125Y-184756250D03*
X501253125Y-181956250D03*
%TD*%
D35*
%TO.C,D196*%
X257658750Y-224860459D03*
X260858750Y-224860459D03*
X260858750Y-229760459D03*
X257658750Y-229760459D03*
%TD*%
D28*
%TO.C,D57*%
X267890625Y-222856250D03*
X267890625Y-220056250D03*
%TD*%
D31*
%TO.C,R45*%
X436650000Y-246143750D03*
X436650000Y-244393750D03*
%TD*%
D32*
%TO.C,D194*%
X365240967Y-270883750D03*
X365240967Y-267683750D03*
X370140967Y-267683750D03*
X370140967Y-270883750D03*
%TD*%
D28*
%TO.C,D66*%
X458390625Y-222856250D03*
X458390625Y-220056250D03*
%TD*%
D32*
%TO.C,D190*%
X595176651Y-270883750D03*
X595176651Y-267683750D03*
X600076651Y-267683750D03*
X600076651Y-270883750D03*
%TD*%
D29*
%TO.C,C37*%
X369165967Y-128796250D03*
X369165967Y-130546250D03*
%TD*%
D31*
%TO.C,R36*%
X379500000Y-246143750D03*
X379500000Y-244393750D03*
%TD*%
D28*
%TO.C,D59*%
X325040625Y-222856250D03*
X325040625Y-220056250D03*
%TD*%
%TO.C,D7*%
X348853125Y-156181250D03*
X348853125Y-153381250D03*
%TD*%
%TO.C,D96*%
X620315625Y-260956250D03*
X620315625Y-258156250D03*
%TD*%
%TO.C,D22*%
X291703125Y-184756250D03*
X291703125Y-181956250D03*
%TD*%
D31*
%TO.C,R33*%
X360450000Y-246143750D03*
X360450000Y-244393750D03*
%TD*%
D28*
%TO.C,D16*%
X539353125Y-156181250D03*
X539353125Y-153381250D03*
%TD*%
D32*
%TO.C,D200*%
X482096309Y-129071250D03*
X482096309Y-132271250D03*
X477196309Y-132271250D03*
X477196309Y-129071250D03*
%TD*%
D31*
%TO.C,R21*%
X274725000Y-265193750D03*
X274725000Y-263443750D03*
%TD*%
D30*
%TO.C,C6*%
X281722024Y-135400000D03*
X283472024Y-135400000D03*
%TD*%
D31*
%TO.C,R34*%
X382500000Y-246143750D03*
X382500000Y-244393750D03*
%TD*%
D28*
%TO.C,D51*%
X510778125Y-203806250D03*
X510778125Y-201006250D03*
%TD*%
%TO.C,D56*%
X620315625Y-203806250D03*
X620315625Y-201006250D03*
%TD*%
%TO.C,D29*%
X425053125Y-184756250D03*
X425053125Y-181956250D03*
%TD*%
D33*
%TO.C,C14*%
X606375000Y-219100000D03*
X604625000Y-219100000D03*
%TD*%
D31*
%TO.C,R53*%
X492918750Y-265193750D03*
X492918750Y-263443750D03*
%TD*%
D28*
%TO.C,D47*%
X434578125Y-203806250D03*
X434578125Y-201006250D03*
%TD*%
D31*
%TO.C,R8*%
X609000000Y-223575000D03*
X609000000Y-221825000D03*
%TD*%
D28*
%TO.C,D24*%
X329803125Y-184756250D03*
X329803125Y-181956250D03*
%TD*%
%TO.C,D54*%
X582215625Y-203806250D03*
X582215625Y-201006250D03*
%TD*%
D31*
%TO.C,R32*%
X361950000Y-246143750D03*
X361950000Y-244393750D03*
%TD*%
D28*
%TO.C,D40*%
X291703125Y-203806250D03*
X291703125Y-201006250D03*
%TD*%
%TO.C,D14*%
X501253125Y-156181250D03*
X501253125Y-153381250D03*
%TD*%
D31*
%TO.C,R24*%
X300918750Y-265193750D03*
X300918750Y-263443750D03*
%TD*%
D28*
%TO.C,D77*%
X410765625Y-241906250D03*
X410765625Y-239106250D03*
%TD*%
D33*
%TO.C,R17*%
X447775000Y-256000000D03*
X446025000Y-256000000D03*
%TD*%
D30*
%TO.C,C32*%
X257383750Y-171216792D03*
X259133750Y-171216792D03*
%TD*%
D31*
%TO.C,R50*%
X476250000Y-246143750D03*
X476250000Y-244393750D03*
%TD*%
%TO.C,R46*%
X458700000Y-246143750D03*
X458700000Y-244393750D03*
%TD*%
D28*
%TO.C,D53*%
X548878125Y-203806250D03*
X548878125Y-201006250D03*
%TD*%
%TO.C,D62*%
X382190625Y-222856250D03*
X382190625Y-220056250D03*
%TD*%
M02*
