M48
; DRILL file {KiCad (6.0.4)} date Thu Jul  7 12:58:36 2022
; FORMAT={-:-/ absolute / inch / decimal}
; #@! TF.CreationDate,2022-07-07T12:58:36-04:00
; #@! TF.GenerationSoftware,Kicad,Pcbnew,(6.0.4)
; #@! TF.FileFunction,NonPlated,1,4,NPTH
FMAT,2
INCH
; #@! TA.AperFunction,NonPlated,NPTH,ComponentDrill
T1C0.0256
; #@! TA.AperFunction,NonPlated,NPTH,ComponentDrill
T2C0.0670
; #@! TA.AperFunction,NonPlated,NPTH,ComponentDrill
T3C0.1181
; #@! TA.AperFunction,NonPlated,NPTH,ComponentDrill
T4C0.1200
; #@! TA.AperFunction,NonPlated,NPTH,ComponentDrill
T5C0.1570
%
G90
G05
T1
X12.4531Y-5.0433
X12.6807Y-5.0433
T2
X10.675Y-6.9375
X10.675Y-7.6875
X10.675Y-8.4375
X10.675Y-9.1875
X10.675Y-9.9375
X11.075Y-6.9375
X11.075Y-7.6875
X11.075Y-8.4375
X11.075Y-9.1875
X11.075Y-9.9375
X11.6125Y-5.8125
X11.6125Y-6.9375
X11.7062Y-9.9375
X11.8Y-7.6875
X11.8937Y-8.4375
X12.0125Y-5.8125
X12.0125Y-6.9375
X12.0812Y-9.1875
X12.1062Y-9.9375
X12.2Y-7.6875
X12.2937Y-8.4375
X12.3625Y-6.9375
X12.4812Y-9.1875
X12.6437Y-9.9375
X12.7375Y-7.6875
X12.7625Y-6.9375
X12.925Y-8.4375
X13.0437Y-9.9375
X13.1125Y-5.8125
X13.1125Y-6.9375
X13.1375Y-7.6875
X13.3Y-9.1875
X13.325Y-8.4375
X13.4875Y-7.6875
X13.5125Y-5.8125
X13.5125Y-6.9375
X13.5812Y-9.9375
X13.675Y-8.4375
X13.7Y-9.1875
X13.8625Y-5.8125
X13.8625Y-6.9375
X13.8875Y-7.6875
X13.9812Y-9.9375
X14.05Y-9.1875
X14.075Y-8.4375
X14.2375Y-7.6875
X14.2625Y-5.8125
X14.2625Y-6.9375
X14.425Y-8.4375
X14.45Y-9.1875
X14.6125Y-5.8125
X14.6125Y-6.9375
X14.6375Y-7.6875
X14.8Y-9.1875
X14.825Y-8.4375
X14.9875Y-7.6875
X15.0125Y-5.8125
X15.0125Y-6.9375
X15.175Y-8.4375
X15.2Y-9.1875
X15.3625Y-5.8125
X15.3625Y-6.9375
X15.3875Y-7.6875
X15.55Y-9.1875
X15.575Y-8.4375
X15.7375Y-7.6875
X15.7625Y-5.8125
X15.7625Y-6.9375
X15.925Y-8.4375
X15.95Y-9.1875
X16.1125Y-6.9375
X16.1375Y-7.6875
X16.3Y-9.1875
X16.325Y-8.4375
X16.3938Y-9.9375
X16.4875Y-5.8125
X16.4875Y-7.6875
X16.5125Y-6.9375
X16.675Y-8.4375
X16.7Y-9.1875
X16.7937Y-9.9375
X16.8625Y-6.9375
X16.8875Y-5.8125
X16.8875Y-7.6875
X17.05Y-9.1875
X17.075Y-8.4375
X17.2375Y-5.8125
X17.2375Y-7.6875
X17.2625Y-6.9375
X17.425Y-8.4375
X17.45Y-9.1875
X17.6125Y-6.9375
X17.6375Y-5.8125
X17.6375Y-7.6875
X17.8Y-9.1875
X17.825Y-8.4375
X17.9875Y-5.8125
X17.9875Y-7.6875
X18.0125Y-6.9375
X18.175Y-8.4375
X18.2Y-9.1875
X18.3625Y-6.9375
X18.3875Y-5.8125
X18.3875Y-7.6875
X18.55Y-9.1875
X18.575Y-8.4375
X18.7375Y-5.8125
X18.7375Y-7.6875
X18.7625Y-6.9375
X18.925Y-8.4375
X18.95Y-9.1875
X19.1125Y-6.9375
X19.1375Y-5.8125
X19.1375Y-7.6875
X19.2063Y-9.9375
X19.3Y-9.1875
X19.325Y-8.4375
X19.4875Y-7.6875
X19.5125Y-6.9375
X19.6062Y-9.9375
X19.675Y-8.4375
X19.7Y-9.1875
X19.8625Y-5.8125
X19.8625Y-6.9375
X19.8875Y-7.6875
X20.05Y-9.1875
X20.075Y-8.4375
X20.1438Y-9.9375
X20.2375Y-7.6875
X20.2625Y-5.8125
X20.2625Y-6.9375
X20.425Y-8.4375
X20.45Y-9.1875
X20.5437Y-9.9375
X20.6125Y-5.8125
X20.6125Y-6.9375
X20.6375Y-7.6875
X20.825Y-8.4375
X20.9875Y-7.6875
X21.0125Y-5.8125
X21.0125Y-6.9375
X21.0813Y-9.9375
X21.3625Y-5.8125
X21.3875Y-7.6875
X21.4563Y-9.1875
X21.4812Y-9.9375
X21.6438Y-8.4375
X21.7375Y-6.9375
X21.7625Y-5.8125
X21.8562Y-9.1875
X21.925Y-7.6875
X22.0188Y-9.9375
X22.0437Y-8.4375
X22.1125Y-5.8125
X22.1375Y-6.9375
X22.325Y-7.6875
X22.4187Y-9.9375
X22.5125Y-5.8125
X23.05Y-5.8125
X23.05Y-6.9375
X23.05Y-7.6875
X23.05Y-9.9375
X23.45Y-5.8125
X23.45Y-6.9375
X23.45Y-7.6875
X23.45Y-9.9375
X23.8Y-5.8125
X23.8Y-6.9375
X23.8Y-7.6875
X23.8Y-9.1875
X23.8Y-9.9375
X24.2Y-5.8125
X24.2Y-6.9375
X24.2Y-7.6875
X24.2Y-9.1875
X24.2Y-9.9375
X24.55Y-5.8125
X24.55Y-6.9375
X24.55Y-7.6875
X24.55Y-9.9375
X24.95Y-5.8125
X24.95Y-6.9375
X24.95Y-7.6875
X24.95Y-9.9375
T3
X10.725Y-6.8375
X10.725Y-7.5875
X10.725Y-8.3375
X10.725Y-9.0875
X10.725Y-9.8375
X10.975Y-6.7375
X10.975Y-7.4875
X10.975Y-8.2375
X10.975Y-8.9875
X10.975Y-9.7375
X11.6625Y-5.7125
X11.6625Y-6.8375
X11.7562Y-9.8375
X11.85Y-7.5875
X11.9125Y-5.6125
X11.9125Y-6.7375
X11.9437Y-8.3375
X12.0062Y-9.7375
X12.1Y-7.4875
X12.1312Y-9.0875
X12.1937Y-8.2375
X12.3812Y-8.9875
X12.4125Y-6.8375
X12.6625Y-6.7375
X12.6937Y-9.8375
X12.7875Y-7.5875
X12.9437Y-9.7375
X12.975Y-8.3375
X13.0375Y-7.4875
X13.1625Y-5.7125
X13.1625Y-6.8375
X13.225Y-8.2375
X13.35Y-9.0875
X13.4125Y-5.6125
X13.4125Y-6.7375
X13.5375Y-7.5875
X13.6Y-8.9875
X13.6312Y-9.8375
X13.725Y-8.3375
X13.7875Y-7.4875
X13.8812Y-9.7375
X13.9125Y-5.7125
X13.9125Y-6.8375
X13.975Y-8.2375
X14.1Y-9.0875
X14.1625Y-5.6125
X14.1625Y-6.7375
X14.2875Y-7.5875
X14.35Y-8.9875
X14.475Y-8.3375
X14.5375Y-7.4875
X14.6625Y-5.7125
X14.6625Y-6.8375
X14.725Y-8.2375
X14.85Y-9.0875
X14.9125Y-5.6125
X14.9125Y-6.7375
X15.0375Y-7.5875
X15.1Y-8.9875
X15.225Y-8.3375
X15.2875Y-7.4875
X15.4125Y-5.7125
X15.4125Y-6.8375
X15.475Y-8.2375
X15.6Y-9.0875
X15.6625Y-5.6125
X15.6625Y-6.7375
X15.7875Y-7.5875
X15.85Y-8.9875
X15.975Y-8.3375
X16.0375Y-7.4875
X16.1625Y-6.8375
X16.225Y-8.2375
X16.35Y-9.0875
X16.4125Y-6.7375
X16.4437Y-9.8375
X16.5375Y-5.7125
X16.5375Y-7.5875
X16.6Y-8.9875
X16.6937Y-9.7375
X16.725Y-8.3375
X16.7875Y-5.6125
X16.7875Y-7.4875
X16.9125Y-6.8375
X16.975Y-8.2375
X17.1Y-9.0875
X17.1625Y-6.7375
X17.2875Y-5.7125
X17.2875Y-7.5875
X17.35Y-8.9875
X17.475Y-8.3375
X17.5375Y-5.6125
X17.5375Y-7.4875
X17.6625Y-6.8375
X17.725Y-8.2375
X17.85Y-9.0875
X17.9125Y-6.7375
X18.0375Y-5.7125
X18.0375Y-7.5875
X18.1Y-8.9875
X18.225Y-8.3375
X18.2875Y-5.6125
X18.2875Y-7.4875
X18.4125Y-6.8375
X18.475Y-8.2375
X18.6Y-9.0875
X18.6625Y-6.7375
X18.7875Y-5.7125
X18.7875Y-7.5875
X18.85Y-8.9875
X18.975Y-8.3375
X19.0375Y-5.6125
X19.0375Y-7.4875
X19.1625Y-6.8375
X19.225Y-8.2375
X19.2562Y-9.8375
X19.35Y-9.0875
X19.4125Y-6.7375
X19.5062Y-9.7375
X19.5375Y-7.5875
X19.6Y-8.9875
X19.725Y-8.3375
X19.7875Y-7.4875
X19.9125Y-5.7125
X19.9125Y-6.8375
X19.975Y-8.2375
X20.1Y-9.0875
X20.1625Y-5.6125
X20.1625Y-6.7375
X20.1937Y-9.8375
X20.2875Y-7.5875
X20.35Y-8.9875
X20.4437Y-9.7375
X20.475Y-8.3375
X20.5375Y-7.4875
X20.6625Y-5.7125
X20.6625Y-6.8375
X20.725Y-8.2375
X20.9125Y-5.6125
X20.9125Y-6.7375
X21.0375Y-7.5875
X21.1312Y-9.8375
X21.2875Y-7.4875
X21.3812Y-9.7375
X21.4125Y-5.7125
X21.5062Y-9.0875
X21.6625Y-5.6125
X21.6937Y-8.3375
X21.7562Y-8.9875
X21.7875Y-6.8375
X21.9437Y-8.2375
X21.975Y-7.5875
X22.0375Y-6.7375
X22.0687Y-9.8375
X22.1625Y-5.7125
X22.225Y-7.4875
X22.3187Y-9.7375
X22.4125Y-5.6125
X23.1Y-5.7125
X23.1Y-6.8375
X23.1Y-7.5875
X23.1Y-9.8375
X23.35Y-5.6125
X23.35Y-6.7375
X23.35Y-7.4875
X23.35Y-9.7375
X23.85Y-5.7125
X23.85Y-6.8375
X23.85Y-7.5875
X23.85Y-9.0875
X23.85Y-9.8375
X24.1Y-5.6125
X24.1Y-6.7375
X24.1Y-7.4875
X24.1Y-8.9875
X24.1Y-9.7375
X24.6Y-5.7125
X24.6Y-6.8375
X24.6Y-7.5875
X24.6Y-9.8375
X24.85Y-5.6125
X24.85Y-6.7375
X24.85Y-7.4875
X24.85Y-9.7375
T4
X11.8112Y-8.9125
X12.7512Y-8.9125
X14.6237Y-9.6625
X18.5637Y-9.6625
X21.1863Y-8.9125
X21.3738Y-8.1625
X21.4675Y-6.6625
X22.1262Y-8.9125
X22.3137Y-8.1625
X22.4075Y-6.6625
T5
X10.875Y-6.9375
X10.875Y-7.6875
X10.875Y-8.4375
X10.875Y-9.1875
X10.875Y-9.9375
X11.8112Y-9.5125
X11.8125Y-5.8125
X11.8125Y-6.9375
X11.9062Y-9.9375
X12.0Y-7.6875
X12.0938Y-8.4375
X12.2812Y-9.1875
X12.5625Y-6.9375
X12.7512Y-9.5125
X12.8438Y-9.9375
X12.9375Y-7.6875
X13.125Y-8.4375
X13.3125Y-5.8125
X13.3125Y-6.9375
X13.5Y-9.1875
X13.6875Y-7.6875
X13.7812Y-9.9375
X13.875Y-8.4375
X14.0625Y-5.8125
X14.0625Y-6.9375
X14.25Y-9.1875
X14.4375Y-7.6875
X14.6237Y-10.2625
X14.625Y-8.4375
X14.8125Y-5.8125
X14.8125Y-6.9375
X15.0Y-9.1875
X15.1875Y-7.6875
X15.375Y-8.4375
X15.5625Y-5.8125
X15.5625Y-6.9375
X15.75Y-9.1875
X15.9375Y-7.6875
X16.125Y-8.4375
X16.3125Y-6.9375
X16.5Y-9.1875
X16.5938Y-9.9375
X16.6875Y-5.8125
X16.6875Y-7.6875
X16.875Y-8.4375
X17.0625Y-6.9375
X17.25Y-9.1875
X17.4375Y-5.8125
X17.4375Y-7.6875
X17.625Y-8.4375
X17.8125Y-6.9375
X18.0Y-9.1875
X18.1875Y-5.8125
X18.1875Y-7.6875
X18.375Y-8.4375
X18.5625Y-6.9375
X18.5637Y-10.2625
X18.75Y-9.1875
X18.9375Y-5.8125
X18.9375Y-7.6875
X19.125Y-8.4375
X19.3125Y-6.9375
X19.4062Y-9.9375
X19.5Y-9.1875
X19.6875Y-7.6875
X19.875Y-8.4375
X20.0625Y-5.8125
X20.0625Y-6.9375
X20.25Y-9.1875
X20.3438Y-9.9375
X20.4375Y-7.6875
X20.625Y-8.4375
X20.8125Y-5.8125
X20.8125Y-6.9375
X21.1863Y-9.5125
X21.1875Y-7.6875
X21.2812Y-9.9375
X21.3738Y-8.7625
X21.4675Y-7.2625
X21.5625Y-5.8125
X21.6562Y-9.1875
X21.8438Y-8.4375
X21.9375Y-6.9375
X22.125Y-7.6875
X22.1262Y-9.5125
X22.2188Y-9.9375
X22.3125Y-5.8125
X22.3137Y-8.7625
X22.4075Y-7.2625
X23.25Y-5.8125
X23.25Y-6.9375
X23.25Y-7.6875
X23.25Y-9.9375
X24.0Y-5.8125
X24.0Y-6.9375
X24.0Y-7.6875
X24.0Y-9.1875
X24.0Y-9.9375
X24.75Y-5.8125
X24.75Y-6.9375
X24.75Y-7.6875
X24.75Y-9.9375
T0
M30
