M48
; DRILL file {KiCad (6.0.4)} date Thu Jul  7 12:58:36 2022
; FORMAT={-:-/ absolute / inch / decimal}
; #@! TF.CreationDate,2022-07-07T12:58:36-04:00
; #@! TF.GenerationSoftware,Kicad,Pcbnew,(6.0.4)
; #@! TF.FileFunction,Plated,1,4,PTH
FMAT,2
INCH
; #@! TA.AperFunction,Plated,PTH,ViaDrill
T1C0.0157
; #@! TA.AperFunction,Plated,PTH,ComponentDrill
T2C0.0236
; #@! TA.AperFunction,Plated,PTH,ComponentDrill
T3C0.0394
; #@! TA.AperFunction,Plated,PTH,ComponentDrill
T4C0.0591
; #@! TA.AperFunction,Plated,PTH,ComponentDrill
T5C0.1260
%
G90
G05
T1
X10.1102Y-9.1063
X10.2165Y-8.9606
X10.315Y-9.1142
X10.4291Y-9.0984
X10.6024Y-5.2835
X10.7344Y-7.2188
X10.7344Y-7.9688
X10.7344Y-8.7188
X10.7344Y-9.4688
X10.7344Y-10.2188
X10.8281Y-6.3281
X10.8281Y-10.3125
X10.8281Y-10.5
X10.875Y-6.2812
X10.875Y-10.3125
X10.875Y-10.5
X10.9219Y-6.2344
X10.9219Y-10.3125
X10.9219Y-10.5
X11.0059Y-5.4016
X11.0156Y-6.0938
X11.0354Y-5.3307
X11.0394Y-5.2283
X11.25Y-6.7031
X11.25Y-7.4531
X11.25Y-8.2031
X11.25Y-8.9531
X11.25Y-9.7031
X11.2657Y-5.2028
X11.2657Y-5.3307
X11.3701Y-8.8661
X11.6719Y-6.0938
X11.6719Y-7.2188
X11.7656Y-10.2188
X11.8594Y-7.9688
X11.8594Y-10.3125
X11.8594Y-10.5
X11.9062Y-10.3125
X11.9062Y-10.5
X11.9531Y-8.7188
X11.9531Y-10.3125
X11.9531Y-10.5
X12.0938Y-9.4219
X12.1406Y-9.4688
X12.1875Y-5.5781
X12.1875Y-6.7031
X12.2812Y-9.7031
X12.375Y-7.4531
X12.375Y-9.2812
X12.4094Y-5.1772
X12.4219Y-7.2188
X12.4219Y-9.2344
X12.4685Y-5.1654
X12.4688Y-8.2031
X12.5156Y-5.8125
X12.5625Y-5.7188
X12.6094Y-5.625
X12.6562Y-8.9531
X12.6634Y-5.1654
X12.7031Y-10.2188
X12.7795Y-5.185
X12.7969Y-7.9688
X12.7969Y-10.3125
X12.7969Y-10.5
X12.8438Y-10.3125
X12.8438Y-10.5
X12.8906Y-10.3125
X12.8906Y-10.5
X12.9375Y-6.7031
X12.9844Y-8.7188
X13.0354Y-5.1555
X13.1024Y-4.9606
X13.1719Y-6.0938
X13.1719Y-7.2188
X13.2185Y-4.9724
X13.2188Y-9.7031
X13.3038Y-5.1181
X13.3125Y-7.4531
X13.3594Y-9.4688
X13.5Y-7.7812
X13.5Y-8.2031
X13.5469Y-7.9688
X13.6406Y-10.2188
X13.6875Y-5.5781
X13.6875Y-6.7031
X13.7344Y-8.7188
X13.7344Y-10.3125
X13.7344Y-10.5
X13.7812Y-7.8399
X13.7812Y-10.3125
X13.7813Y-10.5
X13.8281Y-7.7812
X13.8281Y-10.3125
X13.8281Y-10.5
X13.875Y-8.9531
X13.8799Y-5.2756
X13.9219Y-6.0938
X13.9219Y-7.2188
X14.0156Y-6.5625
X14.0625Y-6.5156
X14.0625Y-7.4531
X14.1094Y-6.4688
X14.1094Y-9.4688
X14.1094Y-9.7031
X14.1693Y-5.2402
X14.2031Y-9.5625
X14.2031Y-9.75
X14.25Y-8.2031
X14.25Y-9.5625
X14.25Y-9.75
X14.2969Y-7.9688
X14.2969Y-9.5625
X14.2969Y-9.75
X14.3906Y-10.2188
X14.4375Y-5.5781
X14.4375Y-6.7031
X14.4457Y-10.2739
X14.4844Y-8.7188
X14.625Y-8.9531
X14.6719Y-6.0938
X14.6719Y-7.2188
X14.6719Y-10.125
X14.6719Y-10.5
X14.6719Y-10.5938
X14.7188Y-10.5938
X14.7188Y-9.8203
X14.7656Y-6.4219
X14.7656Y-10.5938
X14.7656Y-9.8203
X14.8125Y-6.375
X14.8125Y-7.4531
X14.8125Y-10.5938
X14.8125Y-9.8203
X14.8589Y-6.3286
X14.8594Y-9.4688
X14.8594Y-10.5938
X14.8594Y-9.8203
X14.9062Y-10.5938
X14.9063Y-9.8203
X14.9531Y-9.5625
X14.9531Y-10.5938
X14.9531Y-9.75
X14.9531Y-9.8203
X15.0Y-8.2031
X15.0Y-9.5625
X15.0Y-10.5938
X15.0Y-9.75
X15.0Y-9.8203
X15.0469Y-7.9688
X15.0469Y-9.5625
X15.0469Y-10.5938
X15.0469Y-9.75
X15.0469Y-9.8203
X15.0938Y-10.5938
X15.0938Y-9.8203
X15.1406Y-10.5938
X15.1406Y-9.8203
X15.1875Y-5.5781
X15.1875Y-6.7031
X15.1875Y-10.5938
X15.1875Y-9.8203
X15.2244Y-10.1181
X15.2344Y-8.7188
X15.2344Y-10.5938
X15.2344Y-9.8203
X15.2812Y-10.5938
X15.2813Y-9.8203
X15.3281Y-10.5938
X15.3281Y-9.8203
X15.3434Y-10.1217
X15.3444Y-9.9952
X15.3465Y-10.2323
X15.375Y-8.9531
X15.375Y-10.5
X15.375Y-9.8203
X15.4219Y-6.0938
X15.4219Y-7.2188
X15.4219Y-9.8203
X15.4688Y-9.8203
X15.4701Y-10.1205
X15.5156Y-6.4219
X15.5156Y-9.8203
X15.5625Y-6.375
X15.5625Y-7.4531
X15.5625Y-9.8203
X15.6094Y-6.3281
X15.6094Y-9.4688
X15.6094Y-9.8203
X15.6563Y-9.8203
X15.7031Y-9.5625
X15.7031Y-9.75
X15.7031Y-9.8203
X15.75Y-8.2031
X15.75Y-9.5625
X15.75Y-9.75
X15.75Y-9.8203
X15.7969Y-7.9688
X15.7969Y-9.5625
X15.7969Y-9.75
X15.7969Y-9.8203
X15.8438Y-10.5938
X15.8438Y-9.8203
X15.8906Y-10.5938
X15.8906Y-9.8203
X15.9375Y-5.5781
X15.9375Y-6.7031
X15.9375Y-10.5938
X15.9375Y-9.8203
X15.9844Y-8.7188
X15.9844Y-10.5938
X15.9844Y-9.8203
X16.0312Y-10.5938
X16.0781Y-10.5938
X16.125Y-8.9531
X16.125Y-10.5938
X16.1719Y-7.2188
X16.1719Y-10.5938
X16.2188Y-10.5938
X16.2656Y-10.5938
X16.2961Y-10.1555
X16.3125Y-7.4531
X16.3594Y-9.4688
X16.3594Y-10.3125
X16.4531Y-10.2188
X16.4531Y-10.5
X16.5Y-6.2812
X16.5Y-8.2031
X16.5469Y-6.0938
X16.5469Y-7.9688
X16.5469Y-10.3125
X16.5469Y-10.5
X16.5938Y-6.2344
X16.5938Y-10.3125
X16.5938Y-6.6094
X16.6406Y-10.3125
X16.6875Y-6.1875
X16.6875Y-6.7031
X16.7344Y-8.7188
X16.7344Y-10.5
X16.8281Y-6.0938
X16.8281Y-6.2344
X16.875Y-8.9531
X16.9219Y-7.2188
X16.9688Y-9.75
X17.0156Y-9.9844
X17.0625Y-5.5781
X17.0625Y-7.4531
X17.0625Y-9.9844
X17.1094Y-9.4688
X17.1094Y-9.9844
X17.2031Y-9.5625
X17.2031Y-9.75
X17.25Y-6.2812
X17.25Y-8.2031
X17.25Y-9.5625
X17.25Y-9.75
X17.2969Y-6.0938
X17.2969Y-7.9688
X17.2969Y-9.5625
X17.2969Y-9.75
X17.3438Y-6.2344
X17.4375Y-6.1875
X17.4375Y-6.7031
X17.4844Y-8.7188
X17.5Y-9.9606
X17.5Y-10.0197
X17.5Y-10.0787
X17.5Y-10.1378
X17.625Y-8.9531
X17.6719Y-7.2188
X17.7656Y-6.75
X17.8125Y-5.5781
X17.8125Y-6.75
X17.8125Y-7.4531
X17.8594Y-9.4688
X17.9531Y-6.6094
X17.9531Y-9.5625
X17.9531Y-9.75
X18.0Y-8.2031
X18.0Y-9.5625
X18.0Y-9.75
X18.0469Y-6.0938
X18.0469Y-7.9688
X18.0469Y-9.5625
X18.0469Y-9.75
X18.1875Y-6.7031
X18.2344Y-8.7188
X18.375Y-8.9531
X18.4219Y-7.2188
X18.5625Y-5.5781
X18.5625Y-7.4531
X18.6094Y-9.4688
X18.7031Y-9.5625
X18.7031Y-9.75
X18.7418Y-10.2739
X18.75Y-8.2031
X18.75Y-9.5625
X18.75Y-9.75
X18.7969Y-6.0938
X18.7969Y-7.9688
X18.7969Y-9.5625
X18.7969Y-9.75
X18.8622Y-10.1614
X18.9375Y-6.7031
X18.9844Y-8.7188
X19.125Y-8.9531
X19.1719Y-7.2188
X19.2656Y-10.2188
X19.3125Y-5.5781
X19.3125Y-7.4531
X19.3594Y-9.4688
X19.3594Y-10.3125
X19.3594Y-10.5
X19.4062Y-10.3125
X19.4063Y-10.5
X19.4531Y-10.3125
X19.4531Y-10.5
X19.5Y-8.2031
X19.5469Y-7.9688
X19.6875Y-6.7031
X19.7344Y-8.7188
X19.7812Y-9.7031
X19.875Y-8.9531
X19.9219Y-6.0938
X19.9219Y-7.2188
X20.0625Y-7.4531
X20.1094Y-9.4688
X20.2031Y-10.2188
X20.25Y-8.2031
X20.2969Y-7.9688
X20.2969Y-10.3125
X20.2969Y-10.5
X20.3438Y-10.3125
X20.3438Y-10.5
X20.3906Y-10.3125
X20.3906Y-10.5
X20.4375Y-5.5781
X20.4375Y-6.7031
X20.4844Y-8.7188
X20.625Y-8.9531
X20.6719Y-6.0938
X20.6719Y-7.2188
X20.7188Y-9.7031
X20.8125Y-7.4531
X21.0Y-8.2031
X21.0469Y-7.9688
X21.1063Y-8.5748
X21.1142Y-8.7756
X21.1406Y-10.2188
X21.1875Y-5.5781
X21.1875Y-6.7031
X21.2344Y-9.7031
X21.2812Y-9.7031
X21.4219Y-6.0938
X21.4219Y-9.5625
X21.4688Y-9.6562
X21.5156Y-5.6719
X21.5156Y-9.4688
X21.5625Y-5.6719
X21.5625Y-7.4531
X21.564Y-8.811
X21.5966Y-10.3722
X21.7031Y-8.7188
X21.75Y-5.7188
X21.7969Y-7.2188
X21.7969Y-8.2031
X21.8438Y-8.2031
X21.9375Y-5.5781
X21.9844Y-7.9688
X22.0312Y-8.1562
X22.0312Y-8.9531
X22.0781Y-10.2188
X22.1719Y-6.0938
X22.2188Y-8.2031
X22.2656Y-5.6719
X22.3125Y-5.6719
X22.3125Y-6.7031
X22.3799Y-8.065
X22.5Y-5.7188
X22.5Y-7.4531
X22.5938Y-9.7031
X22.6875Y-5.5781
X22.7087Y-9.2047
X22.7756Y-9.2008
X22.8307Y-9.1969
X22.875Y-9.2813
X23.0Y-8.1457
X23.1024Y-10.6535
X23.1094Y-6.0938
X23.1094Y-7.2188
X23.1094Y-7.9688
X23.1094Y-10.2188
X23.189Y-8.6811
X23.2031Y-6.5625
X23.2031Y-9.5625
X23.2126Y-8.7126
X23.2402Y-8.7441
X23.25Y-6.5156
X23.25Y-9.5625
X23.2677Y-8.7756
X23.2969Y-6.4688
X23.2969Y-9.4219
X23.2969Y-9.5625
X23.2992Y-8.8071
X23.3438Y-9.4219
X23.3906Y-9.4219
X23.4219Y-8.6017
X23.437Y-8.9528
X23.4844Y-9.0
X23.5118Y-8.6417
X23.5118Y-10.7441
X23.5433Y-8.3563
X23.5906Y-7.3504
X23.625Y-5.5781
X23.625Y-6.7031
X23.625Y-7.4531
X23.625Y-8.2254
X23.625Y-8.5994
X23.625Y-9.0325
X23.625Y-9.7031
X23.6575Y-8.7598
X23.6575Y-8.811
X23.6811Y-9.5787
X23.685Y-8.0906
X23.7126Y-10.3125
X23.7394Y-6.1489
X23.752Y-8.878
X23.7559Y-8.437
X23.7717Y-8.4961
X23.7717Y-8.9134
X23.7756Y-8.5472
X23.7756Y-8.7421
X23.7815Y-8.3583
X23.7992Y-8.6693
X23.8071Y-8.437
X23.815Y-8.3327
X23.8228Y-8.5394
X23.8543Y-8.2008
X23.8543Y-8.2953
X23.8594Y-6.0938
X23.8594Y-7.2188
X23.8594Y-7.9688
X23.8594Y-9.4688
X23.8594Y-10.2188
X23.8701Y-8.685
X23.8937Y-8.1811
X23.8976Y-8.1339
X23.9213Y-8.685
X23.9213Y-8.7717
X23.9291Y-8.3701
X23.9333Y-8.5042
X23.9488Y-8.1339
X23.9531Y-6.4219
X23.9531Y-9.5625
X23.9606Y-8.689
X23.9882Y-8.1378
X24.0Y-6.375
X24.0Y-9.5625
X24.0118Y-8.8504
X24.0276Y-8.1378
X24.0469Y-6.3281
X24.0469Y-9.5625
X24.0591Y-10.7874
X24.0669Y-8.1299
X24.0706Y-8.5081
X24.0731Y-8.3644
X24.1024Y-8.7835
X24.1929Y-8.7717
X24.2008Y-8.1417
X24.2283Y-8.1732
X24.2283Y-8.7126
X24.252Y-8.2047
X24.2835Y-8.311
X24.2874Y-8.248
X24.2992Y-8.622
X24.3031Y-8.4469
X24.3071Y-9.3898
X24.315Y-8.5787
X24.3307Y-8.4764
X24.3386Y-8.6575
X24.375Y-5.5781
X24.375Y-6.7031
X24.375Y-7.4531
X24.375Y-8.4163
X24.375Y-8.6998
X24.375Y-8.9531
X24.378Y-10.6614
X24.4213Y-8.3031
X24.4528Y-8.3307
X24.4764Y-8.3701
X24.5512Y-8.8189
X24.561Y-8.3091
X24.6094Y-6.0938
X24.6094Y-7.2188
X24.6094Y-7.9688
X24.6094Y-10.2188
X24.6378Y-9.3425
X24.6417Y-8.7008
X24.6417Y-8.7913
X24.6417Y-9.9606
X24.7031Y-6.2812
X24.7031Y-9.5625
X24.75Y-6.2344
X24.75Y-9.5625
X24.7717Y-9.3307
X24.7969Y-6.1875
X24.7969Y-9.5625
X25.125Y-5.5781
X25.125Y-6.7031
X25.125Y-7.4531
X25.125Y-8.7648
X25.125Y-9.7031
X25.1719Y-6.5156
X25.2188Y-6.5625
X25.2656Y-6.6094
T3
X10.5994Y-5.7141
X10.5994Y-5.9109
X11.1703Y-5.7141
X11.1703Y-5.8125
X11.1703Y-5.9109
X24.7031Y-8.25
X24.7031Y-8.35
X24.7031Y-8.45
X24.7031Y-8.55
X24.7031Y-8.65
X24.8031Y-8.25
X24.8031Y-8.35
X24.8031Y-8.45
X24.8031Y-8.55
X24.8031Y-8.65
T5
X10.2188Y-5.1562
X10.2188Y-10.5938
X25.4062Y-5.1562
X25.4062Y-10.5938
T2
G00X12.3969Y-4.9114
M15
G01X12.3969Y-4.8878
M16
G05
G00X12.3969Y-5.0858
M15
G01X12.3969Y-5.0425
M16
G05
G00X12.737Y-4.9114
M15
G01X12.737Y-4.8878
M16
G05
G00X12.737Y-5.0858
M15
G01X12.737Y-5.0425
M16
G05
T4
G00X10.9006Y-5.592
M15
G01X10.8494Y-5.592
M16
G05
G00X10.9006Y-6.033
M15
G01X10.8494Y-6.033
M16
G05
T0
M30
